RobotoFlex-opsz144-wght400-wdth25-slnt-1.ufo
<glyph name="exclam" format="2">
  <advance width="210"/>
  <unicode hex="0021"/>
  <outline>
    <contour>
      <point x="-51" y="59" type="qcurve" smooth="yes"/>
      <point x="-50" y="87"/>
      <point x="-16" y="123"/>
      <point x="16" y="123" type="qcurve" smooth="yes"/>
      <point x="48" y="123"/>
      <point x="79" y="87"/>
      <point x="78" y="59" type="qcurve" smooth="yes"/>
      <point x="78" y="31"/>
      <point x="43" y="-7"/>
      <point x="12" y="-7" type="qcurve" smooth="yes"/>
      <point x="-19" y="-7"/>
      <point x="-51" y="31"/>
    </contour>
    <contour>
      <point x="12.7" y="393.525" type="line"/>
      <point x="168.875" y="1457.65" type="line"/>
      <point x="261.675" y="1457.65" type="line"/>
      <point x="101.125" y="393.525" type="line"/>
    </contour>
  </outline>
</glyph>
<glyph name="quotedbl" format="2">
  <advance width="355"/>
  <unicode hex="0022"/>
  <outline>
    <contour>
      <point x="114" y="1077" type="line"/>
      <point x="152" y="1348" type="line"/>
      <point x="167" y="1458" type="line"/>
      <point x="243.0" y="1458" type="line"/>
      <point x="228" y="1348" type="line"/>
      <point x="184" y="1077" type="line"/>
    </contour>
    <contour>
      <point x="269" y="1077" type="line"/>
      <point x="306" y="1348" type="line"/>
      <point x="322" y="1458" type="line"/>
      <point x="397" y="1458" type="line"/>
      <point x="382" y="1348" type="line"/>
      <point x="338" y="1077" type="line"/>
    </contour>
  </outline>
</glyph>
<glyph name="numbersign" format="2">
  <advance width="448"/>
  <unicode hex="0023"/>
  <outline>
    <contour>
      <point x="-30" y="-17" type="line"/>
      <point x="274" y="1475" type="line"/>
      <point x="342" y="1475" type="line"/>
      <point x="38" y="-17" type="line"/>
    </contour>
    <contour>
      <point x="100" y="-17" type="line"/>
      <point x="404" y="1475" type="line"/>
      <point x="472.57500000000005" y="1474.775" type="line"/>
      <point x="168.72500000000002" y="-17.125" type="line"/>
    </contour>
    <contour>
      <point x="2.0249999999999986" y="617.2249999999999" type="line"/>
      <point x="9" y="673" type="line"/>
      <point x="399" y="673" type="line"/>
      <point x="391.225" y="617.2249999999999" type="line"/>
    </contour>
    <contour>
      <point x="47.775000000000006" y="813.975" type="line"/>
      <point x="55" y="870" type="line"/>
      <point x="449" y="870" type="line"/>
      <point x="436.975" y="813.975" type="line"/>
    </contour>
  </outline>
</glyph>
<glyph name="parenright" format="2">
  <advance width="213"/>
  <unicode hex="0029"/>
  <outline>
    <contour>
      <point x="-157.875" y="-437.65" type="qcurve"/>
      <point x="-154" y="-349" type="line"/>
      <point x="-92" y="-280"/>
      <point x="12" y="135"/>
      <point x="63" y="503.0" type="qcurve" smooth="yes"/>
      <point x="67" y="532.0" type="line" smooth="yes"/>
      <point x="117" y="895"/>
      <point x="147" y="1311"/>
      <point x="98" y="1374" type="qcurve"/>
      <point x="118.9" y="1476.0" type="line"/>
      <point x="194.15" y="1405.75"/>
      <point x="218" y="1050"/>
      <point x="144" y="530" type="qcurve" smooth="yes"/>
      <point x="141" y="509" type="line" smooth="yes"/>
      <point x="72" y="24"/>
      <point x="-68.875" y="-367.4"/>
    </contour>
  </outline>
</glyph>
<glyph name="comma" format="2">
  <advance width="173"/>
  <unicode hex="002C"/>
  <outline>
    <contour>
      <point x="-145.95" y="-145.825" type="line"/>
      <point x="-98.125" y="-96.25"/>
      <point x="-54.675" y="21.675"/>
      <point x="-48.625" y="101.65" type="qcurve" smooth="yes"/>
      <point x="-34.9" y="200.65000000000003" type="line"/>
      <point x="52" y="201" type="line"/>
      <point x="39.0" y="107.3" type="line" smooth="yes"/>
      <point x="26" y="17"/>
      <point x="-15.75" y="-103.35"/>
      <point x="-69.92499999999995" y="-155.775" type="qcurve"/>
    </contour>
  </outline>
</glyph>
<glyph name="hyphen" format="2">
  <advance width="245"/>
  <unicode hex="002D"/>
  <outline>
    <contour>
      <point x="-8.625" y="587.825" type="line"/>
      <point x="5.900000000000006" y="675.9" type="line"/>
      <point x="219.40000000000003" y="675.9" type="line"/>
      <point x="204.875" y="587.825" type="line"/>
    </contour>
  </outline>
</glyph>
<glyph name="slash" format="2">
  <advance width="283"/>
  <unicode hex="002F"/>
  <outline>
    <contour>
      <point x="-136.2" y="-47.825" type="line"/>
      <point x="316.4" y="1457.65" type="line"/>
      <point x="402.15000000000003" y="1457.65" type="line"/>
      <point x="-50.625" y="-47.825" type="line"/>
    </contour>
  </outline>
</glyph>
<glyph name="one" format="2">
  <advance width="364"/>
  <unicode hex="0031"/>
  <outline>
    <contour>
      <point x="62" y="0.0" type="line"/>
      <point x="264" y="1363" type="line"/>
      <point x="96" y="1270" type="line"/>
      <point x="108" y="1359" type="line"/>
      <point x="290" y="1456" type="line"/>
      <point x="366" y="1456" type="line"/>
      <point x="148" y="0.0" type="line"/>
    </contour>
  </outline>
</glyph>
<glyph name="four" format="2">
  <advance width="364"/>
  <unicode hex="0034"/>
  <outline>
    <contour>
      <point x="111" y="0.0" type="line"/>
      <point x="165" y="372" type="line"/>
      <point x="171" y="374" type="line"/>
      <point x="293" y="1213" type="line"/>
      <point x="294" y="1216" type="line"/>
      <point x="31" y="420" type="line"/>
      <point x="210.60000000000002" y="419.475" type="line"/>
      <point x="217.07500000000005" y="428.225" type="line"/>
      <point x="306.20000000000005" y="428.225" type="line"/>
      <point x="292.55000000000007" y="345.225" type="line"/>
      <point x="-48.875" y="345.225" type="line"/>
      <point x="-34.475" y="434.8" type="line"/>
      <point x="319.375" y="1457.65" type="line"/>
      <point x="409.42500000000007" y="1457.65" type="line"/>
      <point x="196.1500000000001" y="0.0" type="line"/>
    </contour>
  </outline>
</glyph>
<glyph name="semicolon" format="2">
  <advance width="184"/>
  <unicode hex="003B"/>
  <outline>
    <contour>
      <point x="-153" y="-134" type="line"/>
      <point x="-106.0" y="-88.0"/>
      <point x="-70" y="8"/>
      <point x="-54" y="97" type="qcurve" smooth="yes"/>
      <point x="-38" y="178" type="line"/>
      <point x="46" y="178" type="line"/>
      <point x="29.275000000000034" y="97.45" type="line" smooth="yes"/>
      <point x="10" y="5"/>
      <point x="-28.92500000000001" y="-103.875"/>
      <point x="-77.27499999999998" y="-155.6" type="qcurve"/>
    </contour>
    <contour>
      <point x="32" y="790" type="qcurve" smooth="yes"/>
      <point x="33" y="815"/>
      <point x="66" y="850"/>
      <point x="96" y="850" type="qcurve" smooth="yes"/>
      <point x="127" y="850"/>
      <point x="158" y="814"/>
      <point x="158" y="789.0" type="qcurve" smooth="yes"/>
      <point x="158" y="763"/>
      <point x="124" y="729"/>
      <point x="94" y="729" type="qcurve" smooth="yes"/>
      <point x="63" y="729"/>
      <point x="32" y="764"/>
    </contour>
  </outline>
</glyph>
<glyph name="greater" format="2">
  <advance width="339"/>
  <unicode hex="003E"/>
  <outline>
    <contour>
      <point x="-13" y="368" type="line"/>
      <point x="-1" y="460" type="line"/>
      <point x="256" y="674" type="line"/>
      <point x="57" y="895" type="line"/>
      <point x="80" y="977" type="line"/>
      <point x="329" y="700" type="line"/>
      <point x="317" y="640" type="line"/>
    </contour>
  </outline>
</glyph>
<glyph name="question" format="2">
  <advance width="295"/>
  <unicode hex="003F"/>
  <outline>
    <contour>
      <point x="5" y="64.0" type="qcurve" smooth="yes"/>
      <point x="7" y="92.0"/>
      <point x="41" y="130.0"/>
      <point x="72" y="129.0" type="qcurve" smooth="yes"/>
      <point x="101" y="129.0"/>
      <point x="133" y="90.0"/>
      <point x="132" y="63.0" type="qcurve" smooth="yes"/>
      <point x="131" y="34.0"/>
      <point x="96" y="-5.0"/>
      <point x="65" y="-5.0" type="qcurve" smooth="yes"/>
      <point x="35" y="-4.0"/>
      <point x="4" y="36.0"/>
    </contour>
    <contour>
      <point x="83.525" y="1043.925" type="line"/>
      <point x="117.425" y="1283.9" type="line" smooth="yes"/>
      <point x="131.525" y="1384.45"/>
      <point x="207" y="1462"/>
      <point x="266.125" y="1462.2" type="qcurve" smooth="yes"/>
      <point x="325" y="1462"/>
      <point x="374" y="1364"/>
      <point x="354.35" y="1222.05" type="qcurve" smooth="yes"/>
      <point x="331" y="1056"/>
      <point x="276.975" y="923.275"/>
      <point x="245.32500000000005" y="865.6" type="qcurve" smooth="yes"/>
      <point x="208.72500000000002" y="793.075"/>
      <point x="178" y="676"/>
      <point x="163" y="573" type="qcurve" smooth="yes"/>
      <point x="131" y="352" type="line"/>
      <point x="55" y="352" type="line"/>
      <point x="87" y="575" type="line" smooth="yes"/>
      <point x="103" y="686"/>
      <point x="142.175" y="820.6"/>
      <point x="176.85000000000002" y="887.825" type="qcurve" smooth="yes"/>
      <point x="209.72500000000002" y="952.725"/>
      <point x="251" y="1065"/>
      <point x="269.95000000000005" y="1215.75" type="qcurve" smooth="yes"/>
      <point x="285" y="1333"/>
      <point x="273" y="1387"/>
      <point x="250" y="1387" type="qcurve" smooth="yes"/>
      <point x="226" y="1387"/>
      <point x="197" y="1334"/>
      <point x="189.75" y="1281.5" type="qcurve" smooth="yes"/>
      <point x="156.02500000000003" y="1043.925" type="line"/>
    </contour>
  </outline>
</glyph>
<glyph name="C" format="2">
  <advance width="351"/>
  <unicode hex="0043"/>
  <anchor x="175.5" y="0" name="bottom"/>
  <anchor x="175.5" y="1456" name="top"/>
  <outline>
    <contour>
      <point x="-27.725" y="284.425" type="qcurve" smooth="yes"/>
      <point x="98.425" y="1167.575" type="line" smooth="yes"/>
      <point x="123.725" y="1331.6"/>
      <point x="215.70000000000002" y="1461.325"/>
      <point x="291.425" y="1461.15" type="qcurve" smooth="yes"/>
      <point x="365.4" y="1460.975"/>
      <point x="420.0250000000001" y="1354.5"/>
      <point x="402.42500000000007" y="1238.075" type="qcurve" smooth="yes"/>
      <point x="350.875" y="902.05" type="line"/>
      <point x="262.45" y="902.4" type="line"/>
      <point x="316.1" y="1245.9" type="line" smooth="yes"/>
      <point x="326.52500000000003" y="1323.3"/>
      <point x="310.8" y="1384.625"/>
      <point x="279.875" y="1384.625" type="qcurve" smooth="yes"/>
      <point x="248.95000000000005" y="1384.625"/>
      <point x="214.20000000000005" y="1312.7"/>
      <point x="197.35000000000002" y="1196.4" type="qcurve" smooth="yes"/>
      <point x="60.125" y="255.425" type="line" smooth="yes"/>
      <point x="44.575000000000045" y="148.8"/>
      <point x="58.775000000000034" y="65.97500000000002"/>
      <point x="90.22500000000002" y="65.97500000000002" type="qcurve" smooth="yes"/>
      <point x="122.02500000000003" y="65.97500000000002"/>
      <point x="157.72500000000002" y="143.55"/>
      <point x="172.925" y="239.35000000000002" type="qcurve" smooth="yes"/>
      <point x="216.325" y="551.75" type="line"/>
      <point x="304.92500000000007" y="551.4" type="line"/>
      <point x="265.55000000000007" y="257.15000000000003" type="line" smooth="yes"/>
      <point x="242.30000000000007" y="115.67500000000001"/>
      <point x="149.32500000000005" y="-8.450000000000001"/>
      <point x="77.10000000000002" y="-8.275" type="qcurve" smooth="yes"/>
      <point x="4.349999999999994" y="-8.100000000000001"/>
      <point x="-52.900000000000006" y="122.375"/>
    </contour>
  </outline>
</glyph>
<glyph name="D" format="2">
  <advance width="386"/>
  <unicode hex="0044"/>
  <anchor x="193.0" y="0" name="bottom"/>
  <anchor x="193.0" y="728.0" name="center"/>
  <anchor x="193.0" y="1456" name="top"/>
  <outline>
    <contour>
      <point x="-60.6" y="0.3500000000000001" type="line"/>
      <point x="153" y="1456" type="line"/>
      <point x="302" y="1456.0" type="line" smooth="yes"/>
      <point x="379" y="1456"/>
      <point x="432" y="1331"/>
      <point x="416" y="1231" type="qcurve" smooth="yes"/>
      <point x="277.42500000000007" y="253.5" type="line" smooth="yes"/>
      <point x="255.25" y="109.275"/>
      <point x="162.20000000000005" y="-0.17500000000000004"/>
      <point x="83.57500000000005" y="0.0" type="qcurve" smooth="yes"/>
    </contour>
    <contour>
      <point x="41" y="79" type="line"/>
      <point x="88" y="79" type="line" smooth="yes"/>
      <point x="129" y="79"/>
      <point x="167" y="139"/>
      <point x="179" y="224" type="qcurve" smooth="yes"/>
      <point x="327" y="1258" type="line" smooth="yes"/>
      <point x="335" y="1314"/>
      <point x="310" y="1370.0"/>
      <point x="269" y="1370" type="qcurve" smooth="yes"/>
      <point x="225" y="1370" type="line"/>
    </contour>
  </outline>
</glyph>
<glyph name="E" format="2">
  <advance width="303"/>
  <unicode hex="0045"/>
  <outline>
    <contour>
      <point x="-60.6" y="0.3500000000000001" type="line"/>
      <point x="152.675" y="1456.35" type="line"/>
      <point x="394.17500000000007" y="1455.65" type="line"/>
      <point x="379.0" y="1369.975" type="line"/>
      <point x="223.875" y="1370.325" type="line"/>
      <point x="142.97500000000002" y="792.225" type="line"/>
      <point x="281.4" y="791.875" type="line"/>
      <point x="266.875" y="706.2" type="line"/>
      <point x="127.625" y="706.55" type="line"/>
      <point x="40.950000000000045" y="85.67500000000001" type="line"/>
      <point x="207.25" y="85.32500000000005" type="line"/>
      <point x="192.90000000000003" y="-0.3500000000000001" type="line"/>
    </contour>
  </outline>
</glyph>
<glyph name="H" format="2">
  <advance width="385"/>
  <unicode hex="0048"/>
  <anchor x="192.5" y="0" name="bottom"/>
  <anchor x="246" y="1089" name="center"/>
  <anchor x="192.5" y="1456" name="top"/>
  <outline>
    <contour>
      <point x="-61.300000000000004" y="0.0" type="line"/>
      <point x="151.975" y="1456.0" type="line"/>
      <point x="239.75" y="1456.0" type="line"/>
      <point x="145.72500000000002" y="804.0" type="line"/>
      <point x="263.25" y="804.0" type="line"/>
      <point x="357.27500000000003" y="1456.0" type="line"/>
      <point x="444.875" y="1456.0" type="line"/>
      <point x="231.60000000000002" y="0.0" type="line"/>
      <point x="143.82500000000002" y="0.0" type="line"/>
      <point x="246.85000000000002" y="711.9" type="line"/>
      <point x="129.325" y="711.9" type="line"/>
      <point x="26.30000000000001" y="0.0" type="line"/>
    </contour>
  </outline>
</glyph>
<glyph name="I" format="2">
  <advance width="183"/>
  <unicode hex="0049"/>
  <anchor x="91.5" y="0" name="bottom"/>
  <anchor x="16" y="0" name="ogonek"/>
  <anchor x="91.5" y="1456" name="top"/>
  <outline>
    <contour>
      <point x="-60.6" y="0.0" type="line"/>
      <point x="152.5" y="1456.0" type="line"/>
      <point x="243.25" y="1456.0" type="line"/>
      <point x="30.80000000000001" y="0.0" type="line"/>
    </contour>
  </outline>
</glyph>
<glyph name="J" format="2">
  <advance width="307"/>
  <unicode hex="004A"/>
  <anchor x="153.5" y="0" name="bottom"/>
  <anchor x="153.5" y="1456" name="top"/>
  <outline>
    <contour>
      <point x="-61.675" y="213.10000000000002" type="qcurve" smooth="yes"/>
      <point x="-42.05" y="378.425" type="line"/>
      <point x="40.42500000000001" y="378.425" type="line"/>
      <point x="19.400000000000034" y="204.525" type="line" smooth="yes"/>
      <point x="9.800000000000011" y="111.27500000000003"/>
      <point x="22" y="82"/>
      <point x="38" y="82" type="qcurve" smooth="yes"/>
      <point x="55" y="82"/>
      <point x="80.77500000000003" y="111.05000000000001"/>
      <point x="96.15000000000003" y="203.47500000000002" type="qcurve" smooth="yes"/>
      <point x="277.375" y="1456.0" type="line"/>
      <point x="369.42500000000007" y="1456.0" type="line"/>
      <point x="191.5250000000001" y="232.27500000000003" type="line" smooth="yes"/>
      <point x="168.75" y="84.05000000000001"/>
      <point x="82.5" y="-9.15"/>
      <point x="23.100000000000023" y="-9.15" type="qcurve" smooth="yes"/>
      <point x="-30.69999999999999" y="-9.15"/>
      <point x="-77.575" y="84.15"/>
    </contour>
  </outline>
</glyph>
<glyph name="L" format="2">
  <advance width="263"/>
  <unicode hex="004C"/>
  <anchor x="131.5" y="0" name="bottom"/>
  <anchor x="218" y="728.0" name="center"/>
  <anchor x="152" y="1456" name="top"/>
  <anchor x="82" y="914" name="topright"/>
  <outline>
    <contour>
      <point x="-61.300000000000004" y="0.0" type="line"/>
      <point x="152.15" y="1456.0" type="line"/>
      <point x="242.20000000000005" y="1456.0" type="line"/>
      <point x="45" y="94" type="line"/>
      <point x="169" y="94" type="line"/>
      <point x="153.40000000000003" y="0.0" type="line"/>
    </contour>
  </outline>
</glyph>
<glyph name="O" format="2">
  <advance width="389"/>
  <unicode hex="004F"/>
  <anchor x="194.5" y="0" name="bottom"/>
  <anchor x="194.5" y="728.0" name="center"/>
  <anchor x="137" y="0" name="ogonek"/>
  <anchor x="194.5" y="1456" name="top"/>
  <anchor x="343" y="1456" name="topright"/>
  <outline>
    <contour>
      <point x="-27.549999999999997" y="288.8" type="qcurve" smooth="yes"/>
      <point x="98.425" y="1170.725" type="line" smooth="yes"/>
      <point x="123.9" y="1334.4"/>
      <point x="221.70000000000002" y="1461.675"/>
      <point x="300.27500000000003" y="1461.5" type="qcurve" smooth="yes"/>
      <point x="383.07500000000005" y="1461.325"/>
      <point x="440.82500000000005" y="1333.875"/>
      <point x="415.525" y="1170.2" type="qcurve" smooth="yes"/>
      <point x="288.725" y="288.1" type="line" smooth="yes"/>
      <point x="264.9000000000001" y="133.97500000000002"/>
      <point x="165.57500000000005" y="-8.8"/>
      <point x="85.94999999999999" y="-8.625" type="qcurve" smooth="yes"/>
      <point x="7.7250000000000085" y="-8.450000000000001"/>
      <point x="-51.375" y="135.32500000000002"/>
    </contour>
    <contour>
      <point x="57.72500000000002" y="255.25" type="line" smooth="yes"/>
      <point x="42.17500000000001" y="149.925"/>
      <point x="67.27500000000003" y="65.97500000000002"/>
      <point x="98.375" y="65.97500000000002" type="qcurve" smooth="yes"/>
      <point x="134.425" y="65.97500000000002"/>
      <point x="176.25" y="152.57500000000002"/>
      <point x="190.8" y="255.25" type="qcurve" smooth="yes"/>
      <point x="329.025" y="1196.75" type="line" smooth="yes"/>
      <point x="345.225" y="1308.1"/>
      <point x="324.425" y="1385.8"/>
      <point x="288.2" y="1385.8" type="qcurve" smooth="yes"/>
      <point x="255.27500000000003" y="1385.8"/>
      <point x="212.15000000000003" y="1310.575"/>
      <point x="195.95000000000005" y="1196.75" type="qcurve" smooth="yes"/>
    </contour>
  </outline>
</glyph>
<glyph name="P" format="2">
  <advance width="354"/>
  <unicode hex="0050"/>
  <anchor x="177.0" y="0" name="bottom"/>
  <anchor x="177.0" y="1456" name="top"/>
  <outline>
    <contour>
      <point x="-61.300000000000004" y="0.0" type="line"/>
      <point x="151.975" y="1456.0" type="line"/>
      <point x="285.45000000000005" y="1456.0" type="line" smooth="yes"/>
      <point x="357.95000000000005" y="1456.0"/>
      <point x="415.6" y="1273.6"/>
      <point x="381.1" y="1039.875" type="qcurve" smooth="yes"/>
      <point x="348.25" y="816.05"/>
      <point x="229.65000000000003" y="608.4749999999999"/>
      <point x="149.22500000000002" y="608.4749999999999" type="qcurve" smooth="yes"/>
      <point x="113.82499999999999" y="608.4749999999999" type="line"/>
      <point x="26.825000000000045" y="0.0" type="line"/>
    </contour>
    <contour>
      <point x="126.55000000000001" y="679.275" type="line"/>
      <point x="150.625" y="679.275" type="line" smooth="yes"/>
      <point x="197.10000000000002" y="679.275"/>
      <point x="262.85" y="838.1"/>
      <point x="292.32500000000005" y="1037.425" type="qcurve" smooth="yes"/>
      <point x="321.45000000000005" y="1240.475"/>
      <point x="295.05" y="1380.075"/>
      <point x="251.22500000000002" y="1380.075" type="qcurve" smooth="yes"/>
      <point x="227.325" y="1380.075" type="line"/>
    </contour>
  </outline>
</glyph>
<glyph name="Q" format="2">
  <advance width="390"/>
  <unicode hex="0051"/>
  <anchor x="195.0" y="0" name="bottom"/>
  <anchor x="195.0" y="1456" name="top"/>
  <outline>
    <contour>
      <point x="-27.9" y="287.75" type="qcurve" smooth="yes"/>
      <point x="98.6" y="1172.125" type="line" smooth="yes"/>
      <point x="124.25" y="1337.55"/>
      <point x="221.70000000000002" y="1462.9"/>
      <point x="300.27500000000003" y="1462.9" type="qcurve" smooth="yes"/>
      <point x="383.07500000000005" y="1462.9"/>
      <point x="441.35" y="1337.725"/>
      <point x="415.525" y="1172.3" type="qcurve" smooth="yes"/>
      <point x="288.20000000000005" y="287.75" type="line" smooth="yes"/>
      <point x="264.0250000000001" y="131.875"/>
      <point x="165.57500000000005" y="-7.2250000000000005"/>
      <point x="85.94999999999999" y="-7.2250000000000005" type="qcurve" smooth="yes"/>
      <point x="7.7250000000000085" y="-7.2250000000000005"/>
      <point x="-51.900000000000006" y="132.525"/>
    </contour>
    <contour>
      <point x="57.72500000000002" y="256.65" type="line" smooth="yes"/>
      <point x="42.17500000000001" y="151.32500000000002"/>
      <point x="67.27500000000003" y="67.375"/>
      <point x="98.375" y="67.375" type="qcurve" smooth="yes"/>
      <point x="134.425" y="67.375"/>
      <point x="175.25" y="153.97500000000002"/>
      <point x="190.8" y="256.65" type="qcurve" smooth="yes"/>
      <point x="329.025" y="1198.15" type="line" smooth="yes"/>
      <point x="345.05" y="1309.5"/>
      <point x="324.425" y="1387.2"/>
      <point x="288.2" y="1387.2" type="qcurve" smooth="yes"/>
      <point x="256.925" y="1387.2"/>
      <point x="211.97500000000002" y="1311.975"/>
      <point x="195.95000000000005" y="1198.15" type="qcurve" smooth="yes"/>
    </contour>
    <contour>
      <point x="227.175" y="-80.35000000000001" type="line"/>
      <point x="106.44999999999999" y="122.85" type="line"/>
      <point x="163.82500000000005" y="173.45000000000002" type="line"/>
      <point x="285.25" y="-29.75" type="line"/>
    </contour>
  </outline>
</glyph>
<glyph name="R" format="2">
  <advance width="377"/>
  <unicode hex="0052"/>
  <anchor x="188.5" y="0" name="bottom"/>
  <anchor x="188.5" y="1456" name="top"/>
  <outline>
    <contour>
      <point x="-61.300000000000004" y="0.0" type="line"/>
      <point x="151.975" y="1456.0" type="line"/>
      <point x="298.675" y="1456.0" type="line" smooth="yes"/>
      <point x="360.35" y="1456.0"/>
      <point x="409.85" y="1325.275"/>
      <point x="369.75" y="1038.2" type="qcurve" smooth="yes"/>
      <point x="334.42500000000007" y="790.675"/>
      <point x="236.15000000000003" y="621.725"/>
      <point x="176.425" y="621.725" type="qcurve" smooth="yes"/>
      <point x="116.15000000000003" y="621.725" type="line"/>
      <point x="26.650000000000034" y="0.0" type="line"/>
    </contour>
    <contour>
      <point x="130" y="694" type="line"/>
      <point x="163" y="694" type="line" smooth="yes"/>
      <point x="199" y="694"/>
      <point x="248.52500000000003" y="822.225"/>
      <point x="276.77500000000003" y="1035.4" type="qcurve" smooth="yes"/>
      <point x="310.8" y="1292.725"/>
      <point x="289" y="1370"/>
      <point x="260" y="1371.0" type="qcurve" smooth="yes"/>
      <point x="223" y="1371.0" type="line"/>
    </contour>
    <contour>
      <point x="176.875" y="0.0" type="line"/>
      <point x="149.575" y="661.65" type="line"/>
      <point x="229.82500000000005" y="661.65" type="line"/>
      <point x="270.7750000000001" y="0.0" type="line"/>
    </contour>
  </outline>
</glyph>
<glyph name="T" format="2">
  <advance width="331"/>
  <unicode hex="0054"/>
  <anchor x="146" y="0" name="bottom"/>
  <anchor x="165.5" y="728.0" name="center"/>
  <anchor x="165.5" y="1456" name="top"/>
  <outline>
    <contour>
      <point x="92.9" y="1370.325" type="line"/>
      <point x="107.25" y="1456.0" type="line"/>
      <point x="432.75" y="1456.0" type="line"/>
      <point x="418.40000000000003" y="1370.325" type="line"/>
      <point x="301.70000000000005" y="1370.325" type="line"/>
      <point x="104.42500000000001" y="0.0" type="line"/>
      <point x="13.725000000000001" y="0.0" type="line"/>
      <point x="211.825" y="1370.325" type="line"/>
    </contour>
  </outline>
</glyph>
<glyph name="U" format="2">
  <advance width="371"/>
  <unicode hex="0055"/>
  <anchor x="185.5" y="0" name="bottom"/>
  <anchor x="131" y="0" name="ogonek"/>
  <anchor x="185.5" y="1456" name="top"/>
  <anchor x="443.95000000000005" y="1456" name="topright"/>
  <outline>
    <contour>
      <point x="-31.925" y="239.25" type="qcurve" smooth="yes"/>
      <point x="142.425" y="1456.0" type="line"/>
      <point x="229.85000000000002" y="1456.0" type="line"/>
      <point x="53.10000000000002" y="230.45000000000002" type="line" smooth="yes"/>
      <point x="41.5" y="146.05"/>
      <point x="65" y="82"/>
      <point x="92" y="82" type="qcurve" smooth="yes"/>
      <point x="122" y="82"/>
      <point x="166.10000000000002" y="147.40000000000003"/>
      <point x="176.7" y="230.45000000000002" type="qcurve" smooth="yes"/>
      <point x="357.225" y="1456.0" type="line"/>
      <point x="443.95000000000005" y="1456.0" type="line"/>
      <point x="265.82500000000005" y="239.25" type="line" smooth="yes"/>
      <point x="245.57500000000005" y="105.35000000000001"/>
      <point x="148.925" y="-8.975000000000001"/>
      <point x="82.22500000000002" y="-8.975000000000001" type="qcurve" smooth="yes"/>
      <point x="17.325000000000017" y="-8.975000000000001"/>
      <point x="-51.825" y="107.97500000000001"/>
    </contour>
  </outline>
</glyph>
<glyph name="V" format="2">
  <advance width="353"/>
  <unicode hex="0056"/>
  <anchor x="176.5" y="0" name="bottom"/>
  <anchor x="176.5" y="1456" name="top"/>
  <outline>
    <contour>
      <point x="118.775" y="1456.0" type="line"/>
      <point x="207.07500000000005" y="1456.0" type="line"/>
      <point x="113" y="326" type="line" smooth="yes"/>
      <point x="112" y="312"/>
      <point x="103" y="223"/>
      <point x="102" y="216" type="qcurve"/>
      <point x="103" y="216" type="line"/>
      <point x="104" y="223"/>
      <point x="119" y="311"/>
      <point x="122" y="326" type="qcurve" smooth="yes"/>
      <point x="364.0" y="1456.0" type="line"/>
      <point x="448.5" y="1456.0" type="line"/>
      <point x="117" y="-2" type="line"/>
      <point x="18.125" y="-2.4749999999999996" type="line"/>
    </contour>
  </outline>
</glyph>
<glyph name="X" format="2">
  <advance width="334"/>
  <unicode hex="0058"/>
  <anchor x="167.0" y="0" name="bottom"/>
  <anchor x="167.0" y="1456" name="top"/>
  <outline>
    <contour>
      <point x="-107.6" y="0.0" type="line"/>
      <point x="148.95" y="805.675" type="line"/>
      <point x="164.70000000000005" y="805.675" type="line"/>
      <point x="347.3" y="1456.0" type="line"/>
      <point x="430.475" y="1456.0" type="line"/>
      <point x="193.70000000000005" y="715.125" type="line"/>
      <point x="177.77500000000003" y="715.125" type="line"/>
      <point x="-21.099999999999966" y="0.0" type="line"/>
    </contour>
    <contour>
      <point x="110.15" y="1456.0" type="line"/>
      <point x="200.375" y="1456.0" type="line"/>
      <point x="203.925" y="795.375" type="line"/>
      <point x="214.25" y="795.725" type="line"/>
      <point x="227.4000000000001" y="-0.17500000000000004" type="line"/>
      <point x="138.925" y="-0.17500000000000004" type="line"/>
      <point x="139.25" y="736.225" type="line"/>
      <point x="128.925" y="736.225" type="line"/>
    </contour>
  </outline>
</glyph>
<glyph name="Y" format="2">
  <advance width="333"/>
  <unicode hex="0059"/>
  <anchor x="166.5" y="0" name="bottom"/>
  <anchor x="166.5" y="1456" name="top"/>
  <outline>
    <contour>
      <point x="20.650000000000006" y="0.0" type="line"/>
      <point x="103.775" y="553.425" type="line"/>
      <point x="105.15" y="1456.0" type="line"/>
      <point x="192.70000000000005" y="1456.0" type="line"/>
      <point x="180" y="788" type="line" smooth="yes"/>
      <point x="180" y="785"/>
      <point x="179" y="768"/>
      <point x="179" y="766" type="qcurve"/>
      <point x="180" y="766" type="line"/>
      <point x="180" y="768"/>
      <point x="183" y="785"/>
      <point x="184" y="788" type="qcurve" smooth="yes"/>
      <point x="351.52500000000003" y="1456.0" type="line"/>
      <point x="437.55000000000007" y="1456.0" type="line"/>
      <point x="196.22500000000002" y="553.425" type="line"/>
      <point x="113.10000000000002" y="0.0" type="line"/>
    </contour>
  </outline>
</glyph>
<glyph name="Z" format="2">
  <advance width="276"/>
  <unicode hex="005A"/>
  <anchor x="138.0" y="0" name="bottom"/>
  <anchor x="138.0" y="1456" name="top"/>
  <outline>
    <contour>
      <point x="-101.95" y="0.0" type="line"/>
      <point x="-92.325" y="59.900000000000006" type="line"/>
      <point x="273" y="1370" type="line"/>
      <point x="114.1" y="1370.325" type="line"/>
      <point x="128.45" y="1456.0" type="line"/>
      <point x="378.42500000000007" y="1456.0" type="line"/>
      <point x="368.1" y="1394.25" type="line"/>
      <point x="2" y="82" type="line"/>
      <point x="174.72500000000002" y="82.17500000000001" type="line"/>
      <point x="160.89999999999998" y="0.0" type="line"/>
    </contour>
  </outline>
</glyph>
<glyph name="bracketright" format="2">
  <advance width="211"/>
  <unicode hex="005D"/>
  <outline>
    <contour>
      <point x="3" y="-312" type="line"/>
      <point x="-165" y="-312" type="line"/>
      <point x="-159" y="-239" type="line"/>
      <point x="-75" y="-239" type="line"/>
      <point x="166.0" y="1385" type="line"/>
      <point x="85" y="1385" type="line"/>
      <point x="97.0" y="1458" type="line"/>
      <point x="260" y="1458" type="line"/>
    </contour>
  </outline>
</glyph>
<glyph name="underscore" format="2">
  <advance width="285"/>
  <unicode hex="005F"/>
  <outline>
    <contour>
      <point x="-144.125" y="-269.9" type="line"/>
      <point x="-129" y="-188" type="line"/>
      <point x="154.0" y="-188" type="line"/>
      <point x="138.75" y="-269.9" type="line"/>
    </contour>
  </outline>
</glyph>
<glyph name="grave" format="2">
  <advance width="313"/>
  <unicode hex="0060"/>
  <outline>
    <contour>
      <point x="195.0" y="987.8" type="line"/>
      <point x="143.7" y="1259.0" type="line"/>
      <point x="221.45" y="1281.275" type="line"/>
      <point x="265.05" y="1005.825" type="line"/>
    </contour>
  </outline>
</glyph>
<glyph name="a" format="2">
  <advance width="330"/>
  <unicode hex="0061"/>
  <outline>
    <contour>
      <point x="-45.975" y="250.9" type="qcurve" smooth="yes"/>
      <point x="-26.75" y="399.15"/>
      <point x="54.22500000000001" y="531.45"/>
      <point x="141.625" y="531.45" type="qcurve" smooth="yes"/>
      <point x="173.75" y="531.45" type="line"/>
      <point x="208.85000000000002" y="771.05" type="line" smooth="yes"/>
      <point x="216.45000000000002" y="821.425"/>
      <point x="204.20000000000002" y="867.025"/>
      <point x="179.40000000000003" y="867.025" type="qcurve" smooth="yes"/>
      <point x="152.95" y="867.025"/>
      <point x="124.85000000000002" y="816.475"/>
      <point x="119.90000000000003" y="771.225" type="qcurve" smooth="yes"/>
      <point x="103.95000000000005" y="637.15" type="line"/>
      <point x="25.974999999999998" y="637.675" type="line"/>
      <point x="42.05" y="773.375" type="line" smooth="yes"/>
      <point x="51.025" y="845.525"/>
      <point x="129.32500000000002" y="922.075"/>
      <point x="193.22500000000002" y="922.075" type="qcurve" smooth="yes"/>
      <point x="254.90000000000003" y="922.075"/>
      <point x="308.20000000000005" y="850.35"/>
      <point x="294.82500000000005" y="768.125" type="qcurve" smooth="yes"/>
      <point x="199.05000000000007" y="120.925" type="line" smooth="yes"/>
      <point x="190.57500000000005" y="60.525"/>
      <point x="191.57500000000005" y="14.450000000000001"/>
      <point x="194.10000000000002" y="2.1000000000000014" type="qcurve"/>
      <point x="194.57500000000005" y="0.0" type="line"/>
      <point x="107.72500000000002" y="0.0" type="line"/>
      <point x="105.375" y="10.475"/>
      <point x="105.375" y="51.5"/>
      <point x="107.375" y="72.225" type="qcurve"/>
      <point x="97.17500000000001" y="38.675"/>
      <point x="49.10000000000002" y="-3.9250000000000007"/>
      <point x="14.175000000000011" y="-3.9250000000000007" type="qcurve" smooth="yes"/>
      <point x="-35.64999999999999" y="-3.9250000000000007"/>
      <point x="-70.325" y="91.0"/>
    </contour>
    <contour>
      <point x="40.05000000000001" y="258.25" type="qcurve" smooth="yes"/>
      <point x="20.5" y="119.9"/>
      <point x="27.975000000000023" y="47.625"/>
      <point x="54.950000000000045" y="47.625" type="qcurve" smooth="yes"/>
      <point x="77.44999999999999" y="47.625"/>
      <point x="108.55000000000001" y="91.10000000000002"/>
      <point x="118.625" y="151.55" type="qcurve" smooth="yes"/>
      <point x="167.15" y="492.5" type="line"/>
      <point x="145.125" y="492.5" type="line" smooth="yes"/>
      <point x="105.125" y="492.5"/>
      <point x="58.775000000000034" y="392.7"/>
    </contour>
  </outline>
</glyph>
<glyph name="b" format="2">
  <advance width="343"/>
  <unicode hex="0062"/>
  <anchor x="171.5" y="0" name="bottom"/>
  <anchor x="171.5" y="914" name="top"/>
  <outline>
    <contour>
      <point x="-66.42500000000001" y="0.0" type="line"/>
      <point x="144.375" y="1456.0" type="line"/>
      <point x="232.8" y="1456.0" type="line"/>
      <point x="142.55" y="843.85" type="line"/>
      <point x="151.35000000000002" y="872.275"/>
      <point x="206" y="923"/>
      <point x="242" y="923" type="qcurve" smooth="yes"/>
      <point x="288" y="923"/>
      <point x="328.67500000000007" y="850.275"/>
      <point x="314.07500000000005" y="757.325" type="qcurve" smooth="yes"/>
      <point x="234.42500000000007" y="173.575" type="line" smooth="yes"/>
      <point x="219.30000000000007" y="80.82500000000002"/>
      <point x="157" y="-8"/>
      <point x="104" y="-8" type="qcurve" smooth="yes"/>
      <point x="71" y="-8"/>
      <point x="31.92500000000001" y="18.225"/>
      <point x="24.25" y="35.975" type="qcurve"/>
      <point x="24.25" y="35.975" type="line"/>
      <point x="19.375" y="0.0" type="line"/>
    </contour>
    <contour>
      <point x="37.625" y="103.30000000000001" type="line" smooth="yes"/>
      <point x="35" y="87"/>
      <point x="59.775000000000034" y="61.42500000000001"/>
      <point x="84.27500000000003" y="61.42500000000001" type="qcurve" smooth="yes"/>
      <point x="111.07500000000005" y="61.42500000000001"/>
      <point x="139.52500000000003" y="109.32500000000002"/>
      <point x="146.3" y="159.22500000000002" type="qcurve" smooth="yes"/>
      <point x="229.625" y="764.325" type="line" smooth="yes"/>
      <point x="236.57500000000002" y="815.575"/>
      <point x="217.375" y="851.45"/>
      <point x="197.35000000000002" y="851.45" type="qcurve" smooth="yes"/>
      <point x="175.325" y="851.45"/>
      <point x="138" y="812"/>
      <point x="132" y="769" type="qcurve" smooth="yes"/>
    </contour>
  </outline>
</glyph>
<glyph name="c" format="2">
  <advance width="327"/>
  <unicode hex="0063"/>
  <anchor x="163.5" y="0" name="bottom"/>
  <anchor x="163.5" y="914" name="top"/>
  <outline>
    <contour>
      <point x="-48.875" y="177.05" type="qcurve" smooth="yes"/>
      <point x="32.075" y="731.875" type="line" smooth="yes"/>
      <point x="48.15" y="835.775"/>
      <point x="128" y="923"/>
      <point x="200" y="923" type="qcurve" smooth="yes"/>
      <point x="267" y="923"/>
      <point x="314.70000000000005" y="844.275"/>
      <point x="306.775" y="769.675" type="qcurve" smooth="yes"/>
      <point x="282.80000000000007" y="573.175" type="line"/>
      <point x="194.55" y="573.175" type="line"/>
      <point x="220.10000000000002" y="774.75" type="line" smooth="yes"/>
      <point x="224.4" y="812.1"/>
      <point x="212.15" y="851.0999999999999"/>
      <point x="186.52500000000003" y="851.0999999999999" type="qcurve" smooth="yes"/>
      <point x="158.425" y="851.0999999999999"/>
      <point x="129.97500000000002" y="805.5"/>
      <point x="121.55000000000001" y="745.225" type="qcurve" smooth="yes"/>
      <point x="35.92500000000001" y="164.45000000000002" type="line" smooth="yes"/>
      <point x="28.150000000000034" y="113.375"/>
      <point x="46.35000000000002" y="62.125"/>
      <point x="73.80000000000001" y="62.125" type="qcurve" smooth="yes"/>
      <point x="99.42500000000001" y="62.125"/>
      <point x="130.825" y="112.67500000000001"/>
      <point x="138.425" y="163.05" type="qcurve" smooth="yes"/>
      <point x="166.625" y="351.175" type="line"/>
      <point x="255.875" y="351.175" type="line"/>
      <point x="227.72500000000002" y="168.82500000000002" type="line" smooth="yes"/>
      <point x="212.82500000000005" y="81.375"/>
      <point x="132" y="-9"/>
      <point x="63" y="-9" type="qcurve" smooth="yes"/>
      <point x="-6" y="-9"/>
      <point x="-63.825" y="81.9"/>
    </contour>
  </outline>
</glyph>
<glyph name="f" format="2">
  <advance width="194"/>
  <unicode hex="0066"/>
  <outline>
    <contour>
      <point x="-58.525" y="0.0" type="line"/>
      <point x="133.65" y="1310.675" type="line" smooth="yes"/>
      <point x="147.675" y="1400.625"/>
      <point x="228.3" y="1475.525"/>
      <point x="282.8" y="1475.525" type="qcurve" smooth="yes"/>
      <point x="309.07500000000005" y="1475.525"/>
      <point x="339.82500000000005" y="1470.25"/>
      <point x="347.8" y="1467.55" type="qcurve"/>
      <point x="327.675" y="1393.475" type="line"/>
      <point x="321.8" y="1395.475"/>
      <point x="304.975" y="1398.95"/>
      <point x="296.45" y="1398.95" type="qcurve" smooth="yes"/>
      <point x="270.25" y="1398.95"/>
      <point x="227.625" y="1356.6"/>
      <point x="219.02500000000003" y="1296.275" type="qcurve" smooth="yes"/>
      <point x="161.57500000000005" y="896.75" type="line"/>
      <point x="162.97500000000002" y="895.175" type="line"/>
      <point x="31.0" y="0.0" type="line"/>
    </contour>
    <contour>
      <point x="19" y="834" type="line"/>
      <point x="30.9" y="912.35" type="line"/>
      <point x="86.3" y="912.35" type="line"/>
      <point x="89.45" y="912.35" type="line"/>
      <point x="219.70000000000005" y="912.35" type="line"/>
      <point x="208" y="834" type="line"/>
    </contour>
  </outline>
</glyph>
<glyph name="h" format="2">
  <advance width="344"/>
  <unicode hex="0068"/>
  <outline>
    <contour>
      <point x="-66.42500000000001" y="0.0" type="line"/>
      <point x="144.375" y="1456.0" type="line"/>
      <point x="233.10000000000002" y="1456.0" type="line"/>
      <point x="143.60000000000002" y="842.45" type="line"/>
      <point x="154.175" y="869.875"/>
      <point x="207.8" y="920.675"/>
      <point x="245.97500000000002" y="920.675" type="qcurve" smooth="yes"/>
      <point x="290.375" y="920.675"/>
      <point x="327.4000000000001" y="861.075"/>
      <point x="318.7750000000001" y="798.9" type="qcurve" smooth="yes"/>
      <point x="198.42500000000007" y="0.0" type="line"/>
      <point x="109.82499999999999" y="0.0" type="line"/>
      <point x="226.32500000000002" y="777.2" type="line" smooth="yes"/>
      <point x="231.45000000000002" y="817.675"/>
      <point x="216.9" y="853.2"/>
      <point x="195.22500000000002" y="853.2" type="qcurve" smooth="yes"/>
      <point x="174.2" y="853.2"/>
      <point x="140.97500000000002" y="806.9"/>
      <point x="132.55" y="770.675" type="qcurve" smooth="yes"/>
      <point x="21.350000000000023" y="0.0" type="line"/>
    </contour>
  </outline>
</glyph>
<glyph name="j" format="2">
  <advance width="170"/>
  <unicode hex="006A"/>
  <outline>
    <contour>
      <point x="-251.0" y="-424.775" type="qcurve"/>
      <point x="-241.375" y="-352.625" type="line"/>
      <point x="-234.22500000000002" y="-356.79999999999995"/>
      <point x="-206.0" y="-364.625"/>
      <point x="-182.7" y="-364.625" type="qcurve" smooth="yes"/>
      <point x="-150.55" y="-364.625"/>
      <point x="-109.275" y="-313.325"/>
      <point x="-99.575" y="-249.22499999999997" type="qcurve" smooth="yes"/>
      <point x="66.575" y="912.35" type="line"/>
      <point x="156.22500000000002" y="912.35" type="line"/>
      <point x="-14.024999999999977" y="-268.525" type="line" smooth="yes"/>
      <point x="-26.57499999999999" y="-352.15"/>
      <point x="-109.69999999999999" y="-437.7"/>
      <point x="-175.65" y="-437.7" type="qcurve" smooth="yes"/>
      <point x="-205.3" y="-437.7"/>
      <point x="-239.175" y="-429.3"/>
    </contour>
    <contour>
      <point x="96.525" y="1231.125" type="qcurve" smooth="yes"/>
      <point x="98.625" y="1256.85"/>
      <point x="131.25" y="1289.7"/>
      <point x="158.25" y="1289.7" type="qcurve" smooth="yes"/>
      <point x="186.3" y="1289.7"/>
      <point x="214.72500000000002" y="1256.85"/>
      <point x="212.625" y="1231.95" type="qcurve" smooth="yes"/>
      <point x="211.57500000000005" y="1207.275"/>
      <point x="179.77500000000003" y="1172.55"/>
      <point x="150.9" y="1172.55" type="qcurve" smooth="yes"/>
      <point x="123.075" y="1172.55"/>
      <point x="95.475" y="1207.275"/>
    </contour>
  </outline>
</glyph>
<glyph name="l" format="2">
  <advance width="177"/>
  <unicode hex="006C"/>
  <outline>
    <contour>
      <point x="-66.25" y="0.0" type="line"/>
      <point x="144.55" y="1456.0" type="line"/>
      <point x="236.77500000000003" y="1456.0" type="line"/>
      <point x="24.325000000000045" y="0.0" type="line"/>
    </contour>
  </outline>
</glyph>
<glyph name="m" format="2">
  <advance width="520"/>
  <unicode hex="006D"/>
  <outline>
    <contour>
      <point x="-66.42500000000001" y="0.0" type="line"/>
      <point x="65.7" y="912.35" type="line"/>
      <point x="153.60000000000002" y="912.35" type="line"/>
      <point x="144" y="848" type="line"/>
      <point x="144" y="848" type="line"/>
      <point x="153" y="869"/>
      <point x="210.25" y="920.675"/>
      <point x="251.30000000000007" y="920.675" type="qcurve" smooth="yes"/>
      <point x="289.775" y="920.675"/>
      <point x="318" y="871"/>
      <point x="318" y="840" type="qcurve"/>
      <point x="319" y="840" type="line"/>
      <point x="330" y="869"/>
      <point x="390.75" y="920.675"/>
      <point x="427.45000000000005" y="920.675" type="qcurve" smooth="yes"/>
      <point x="469.07500000000005" y="920.675"/>
      <point x="503.6500000000001" y="861.075"/>
      <point x="495.0250000000001" y="798.9" type="qcurve" smooth="yes"/>
      <point x="379.625" y="0.0" type="line"/>
      <point x="291.025" y="0.0" type="line"/>
      <point x="402.57500000000005" y="777.2" type="line" smooth="yes"/>
      <point x="407.70000000000005" y="817.675"/>
      <point x="393.15" y="853.2"/>
      <point x="374.775" y="853.2" type="qcurve" smooth="yes"/>
      <point x="355.4" y="853.2"/>
      <point x="315" y="813"/>
      <point x="310" y="776" type="qcurve" smooth="yes"/>
      <point x="198.42500000000007" y="0.0" type="line"/>
      <point x="109.82499999999999" y="0.0" type="line"/>
      <point x="221.375" y="777.2" type="line" smooth="yes"/>
      <point x="227.32500000000002" y="817.675"/>
      <point x="216.9" y="853.2"/>
      <point x="196.05" y="853.2" type="qcurve" smooth="yes"/>
      <point x="174.2" y="853.2"/>
      <point x="136" y="808"/>
      <point x="131" y="771" type="qcurve" smooth="yes"/>
      <point x="21.350000000000023" y="0.0" type="line"/>
    </contour>
  </outline>
</glyph>
<glyph name="n" format="2">
  <advance width="344"/>
  <unicode hex="006E"/>
  <outline>
    <contour>
      <point x="-66.42500000000001" y="0.0" type="line"/>
      <point x="65.7" y="912.35" type="line"/>
      <point x="153.60000000000002" y="912.35" type="line"/>
      <point x="142.90000000000003" y="839.125" type="line"/>
      <point x="143.425" y="839.125" type="line"/>
      <point x="154.175" y="868.25"/>
      <point x="208.32500000000005" y="920.675"/>
      <point x="247.89999999999998" y="920.675" type="qcurve" smooth="yes"/>
      <point x="292.30000000000007" y="920.675"/>
      <point x="327.4000000000001" y="861.075"/>
      <point x="318.7750000000001" y="798.9" type="qcurve" smooth="yes"/>
      <point x="198.42500000000007" y="0.0" type="line"/>
      <point x="109.82499999999999" y="0.0" type="line"/>
      <point x="226.32500000000002" y="777.2" type="line" smooth="yes"/>
      <point x="231.45000000000002" y="817.675"/>
      <point x="216.9" y="853.2"/>
      <point x="195.22500000000002" y="853.2" type="qcurve" smooth="yes"/>
      <point x="174.2" y="853.2"/>
      <point x="141.15000000000003" y="806.9"/>
      <point x="132.55" y="770.675" type="qcurve" smooth="yes"/>
      <point x="21.350000000000023" y="0.0" type="line"/>
    </contour>
  </outline>
</glyph>
<glyph name="p" format="2">
  <advance width="351"/>
  <unicode hex="0070"/>
  <outline>
    <contour>
      <point x="-126.35000000000001" y="-409.45" type="line"/>
      <point x="65.525" y="912.35" type="line"/>
      <point x="152.20000000000005" y="912.35" type="line"/>
      <point x="142.375" y="843.675" type="line"/>
      <point x="143.07500000000005" y="843.85" type="line"/>
      <point x="151.875" y="872.625"/>
      <point x="204.55" y="921.025"/>
      <point x="240.22500000000002" y="921.025" type="qcurve" smooth="yes"/>
      <point x="284.07500000000005" y="921.025"/>
      <point x="327.5" y="845.275"/>
      <point x="313.9" y="757.325" type="qcurve" smooth="yes"/>
      <point x="234.25" y="173.575" type="line" smooth="yes"/>
      <point x="219.125" y="80.82500000000002"/>
      <point x="152.8" y="-6.75"/>
      <point x="102.65000000000003" y="-6.75" type="qcurve" smooth="yes"/>
      <point x="70.52500000000003" y="-6.75"/>
      <point x="33.200000000000045" y="13.674999999999999"/>
      <point x="24.125" y="29.325" type="qcurve"/>
      <point x="-37.625" y="-409.45" type="line"/>
    </contour>
    <contour>
      <point x="36.97500000000002" y="103.30000000000001" type="line" smooth="yes"/>
      <point x="36.80000000000001" y="87.22500000000002"/>
      <point x="59.60000000000002" y="61.42500000000001"/>
      <point x="84.10000000000002" y="61.42500000000001" type="qcurve" smooth="yes"/>
      <point x="110.90000000000003" y="61.42500000000001"/>
      <point x="139.35000000000002" y="109.32500000000002"/>
      <point x="146.125" y="159.22500000000002" type="qcurve" smooth="yes"/>
      <point x="229.45000000000002" y="764.325" type="line" smooth="yes"/>
      <point x="236.4" y="813.1"/>
      <point x="217.20000000000002" y="851.45"/>
      <point x="197.175" y="851.45" type="qcurve" smooth="yes"/>
      <point x="175.15000000000003" y="851.45"/>
      <point x="140.45" y="810.625"/>
      <point x="131.02500000000003" y="769.275" type="qcurve" smooth="yes"/>
    </contour>
  </outline>
</glyph>
<glyph name="q" format="2">
  <advance width="349"/>
  <unicode hex="0071"/>
  <outline>
    <contour>
      <point x="-49.0" y="171.10000000000002" type="qcurve" smooth="yes"/>
      <point x="36.425" y="757.325" type="line" smooth="yes"/>
      <point x="50.675" y="845.325"/>
      <point x="117.55000000000001" y="921.025"/>
      <point x="163.925" y="921.025" type="qcurve" smooth="yes"/>
      <point x="199.425" y="921.025"/>
      <point x="234.75" y="873.275"/>
      <point x="236.85000000000002" y="840.375" type="qcurve"/>
      <point x="239.125" y="840.375" type="line"/>
      <point x="249.47500000000002" y="912.35" type="line"/>
      <point x="337.0250000000001" y="912.35" type="line"/>
      <point x="143.5" y="-409.45" type="line"/>
      <point x="54.900000000000006" y="-409.45" type="line"/>
      <point x="121.52500000000003" y="41.85" type="line"/>
      <point x="121.52500000000003" y="41.85" type="line"/>
      <point x="108.15" y="22.450000000000003"/>
      <point x="62.150000000000006" y="-5.0"/>
      <point x="30.275000000000006" y="-5.0" type="qcurve" smooth="yes"/>
      <point x="-18.574999999999996" y="-5.0"/>
      <point x="-63.6" y="82.92500000000001"/>
    </contour>
    <contour>
      <point x="36.150000000000034" y="158.5" type="line" smooth="yes"/>
      <point x="29.375" y="111.07500000000002"/>
      <point x="50.05000000000001" y="63.17500000000001"/>
      <point x="75.20000000000005" y="63.17500000000001" type="qcurve" smooth="yes"/>
      <point x="95.57500000000005" y="63.17500000000001"/>
      <point x="122.375" y="86.5"/>
      <point x="131.625" y="105.05000000000001" type="qcurve" smooth="yes"/>
      <point x="226.15" y="769.275" type="line" smooth="yes"/>
      <point x="227.15" y="812.75"/>
      <point x="205.825" y="851.45"/>
      <point x="185.45" y="851.45" type="qcurve" smooth="yes"/>
      <point x="163.77500000000003" y="851.45"/>
      <point x="131.85000000000002" y="812.275"/>
      <point x="124.90000000000003" y="764.325" type="qcurve" smooth="yes"/>
    </contour>
  </outline>
</glyph>
<glyph name="r" format="2">
  <advance width="229"/>
  <unicode hex="0072"/>
  <outline>
    <contour>
      <point x="-66.42500000000001" y="0.0" type="line"/>
      <point x="65.7" y="912.35" type="line"/>
      <point x="153.60000000000002" y="912.35" type="line"/>
      <point x="142.90000000000003" y="838.95" type="line"/>
      <point x="143.425" y="838.95" type="line"/>
      <point x="153.35000000000002" y="871.825"/>
      <point x="197.65000000000003" y="919.275"/>
      <point x="223.8" y="919.275" type="qcurve" smooth="yes"/>
      <point x="234.425" y="919.275"/>
      <point x="251.57500000000005" y="914.05"/>
      <point x="255.45000000000005" y="911.7" type="qcurve"/>
      <point x="243.02500000000003" y="836.575" type="line"/>
      <point x="238.97500000000002" y="839.625"/>
      <point x="220.77500000000003" y="845.325"/>
      <point x="211.85000000000002" y="845.325" type="qcurve" smooth="yes"/>
      <point x="188.5" y="845.325"/>
      <point x="144.90000000000003" y="798.5999999999999"/>
      <point x="130.97500000000002" y="754.825" type="qcurve"/>
      <point x="23.100000000000023" y="0.0" type="line"/>
    </contour>
  </outline>
</glyph>
<glyph name="s" format="2">
  <advance width="287"/>
  <unicode hex="0073"/>
  <outline>
    <contour>
      <point x="-48.3" y="284.45" type="line"/>
      <point x="21.80000000000001" y="284.45" type="line"/>
      <point x="0.30000000000001137" y="145.9" type="line" smooth="yes"/>
      <point x="-8.300000000000011" y="88.525"/>
      <point x="7.824999999999989" y="43.22500000000002"/>
      <point x="34.32499999999999" y="43.22500000000002" type="qcurve" smooth="yes"/>
      <point x="60.650000000000034" y="43.22500000000002"/>
      <point x="91.97500000000002" y="99.25"/>
      <point x="107.17500000000001" y="204.3" type="qcurve" smooth="yes"/>
      <point x="121.9" y="302.85"/>
      <point x="106.775" y="406.05"/>
      <point x="65.15" y="464.725" type="qcurve" smooth="yes"/>
      <point x="26.050000000000004" y="519.925"/>
      <point x="6.574999999999999" y="614.425"/>
      <point x="22.45" y="725.0" type="qcurve" smooth="yes"/>
      <point x="40.025" y="845.85"/>
      <point x="109.70000000000002" y="922.25"/>
      <point x="168.72500000000002" y="922.25" type="qcurve" smooth="yes"/>
      <point x="229.55" y="922.25"/>
      <point x="271.775" y="848.7"/>
      <point x="260.20000000000005" y="767.1" type="qcurve" smooth="yes"/>
      <point x="243.25" y="641.875" type="line"/>
      <point x="172.97500000000002" y="641.875" type="line"/>
      <point x="187.525" y="754.1" type="line" smooth="yes"/>
      <point x="196.125" y="820.2"/>
      <point x="181.0" y="866.5"/>
      <point x="159.625" y="866.5" type="qcurve" smooth="yes"/>
      <point x="137.425" y="866.5"/>
      <point x="106.625" y="815.775"/>
      <point x="93.90000000000003" y="720.975" type="qcurve" smooth="yes"/>
      <point x="81.0" y="628.6"/>
      <point x="90.60000000000002" y="561.275"/>
      <point x="133.675" y="504.475" type="qcurve" smooth="yes"/>
      <point x="179.02499999999998" y="448.45"/>
      <point x="208.22500000000002" y="324.425"/>
      <point x="189.35000000000002" y="201.5" type="qcurve" smooth="yes"/>
      <point x="169.47500000000002" y="71.45"/>
      <point x="97.95000000000005" y="-7.800000000000001"/>
      <point x="31.350000000000023" y="-7.800000000000001" type="qcurve" smooth="yes"/>
      <point x="-34.19999999999999" y="-7.800000000000001"/>
      <point x="-82.9" y="66.22500000000001"/>
      <point x="-69.45" y="147.82500000000002" type="qcurve" smooth="yes"/>
    </contour>
  </outline>
</glyph>
<glyph name="t" format="2">
  <advance width="201"/>
  <unicode hex="0074"/>
  <outline>
    <contour>
      <point x="21" y="834" type="line"/>
      <point x="33.775" y="912.35" type="line"/>
      <point x="227.22500000000002" y="912.35" type="line"/>
      <point x="214" y="834" type="line"/>
    </contour>
    <contour>
      <point x="-39.45" y="132.60000000000002" type="qcurve" smooth="yes"/>
      <point x="75.1" y="902.525" type="line"/>
      <point x="78.95" y="904.45" type="line"/>
      <point x="103.7" y="1073.65" type="line"/>
      <point x="186.22500000000002" y="1073.65" type="line"/>
      <point x="51.775000000000034" y="157.27500000000003" type="line" smooth="yes"/>
      <point x="44.125" y="106.60000000000002"/>
      <point x="66.55000000000001" y="63.875"/>
      <point x="89.97500000000002" y="63.875" type="qcurve" smooth="yes"/>
      <point x="104.67500000000001" y="63.875"/>
      <point x="121.02500000000003" y="69.52500000000003"/>
      <point x="125.95000000000005" y="71.69999999999999" type="qcurve"/>
      <point x="116.75" y="7.5" type="line"/>
      <point x="106.97500000000002" y="2.75"/>
      <point x="69.72500000000002" y="-6.4"/>
      <point x="46.97500000000002" y="-6.4" type="qcurve" smooth="yes"/>
      <point x="-3.6499999999999915" y="-6.4"/>
      <point x="-50.6" y="59.325"/>
    </contour>
  </outline>
</glyph>
<glyph name="u" format="2">
  <advance width="345"/>
  <unicode hex="0075"/>
  <outline>
    <contour>
      <point x="-52.0" y="88.70000000000002" type="qcurve" smooth="yes"/>
      <point x="65.875" y="912.35" type="line"/>
      <point x="153.65000000000003" y="912.35" type="line"/>
      <point x="39.625" y="110.4" type="line" smooth="yes"/>
      <point x="36.150000000000034" y="83.94999999999999"/>
      <point x="49.22500000000002" y="59.150000000000034"/>
      <point x="67.60000000000002" y="59.150000000000034" type="qcurve" smooth="yes"/>
      <point x="86.97500000000002" y="59.150000000000034"/>
      <point x="123.15000000000003" y="101.32500000000002"/>
      <point x="133.40000000000003" y="141.675" type="qcurve" smooth="yes"/>
      <point x="247.075" y="912.35" type="line"/>
      <point x="334.85" y="912.35" type="line"/>
      <point x="198.60000000000002" y="0.0" type="line"/>
      <point x="112.35000000000002" y="0.0" type="line"/>
      <point x="123.05000000000001" y="73.225" type="line"/>
      <point x="122.52500000000003" y="73.225" type="line"/>
      <point x="110.30000000000001" y="43.275"/>
      <point x="53.5" y="-8.325000000000001"/>
      <point x="13.925000000000011" y="-8.325000000000001" type="qcurve" smooth="yes"/>
      <point x="-24.7" y="-8.325000000000001"/>
      <point x="-59.975" y="37.25"/>
    </contour>
  </outline>
</glyph>
<glyph name="v" format="2">
  <advance width="304"/>
  <unicode hex="0076"/>
  <outline>
    <contour>
      <point x="29" y="912" type="line"/>
      <point x="107" y="912" type="line"/>
      <point x="72" y="195" type="line" smooth="yes"/>
      <point x="72" y="191"/>
      <point x="71" y="175"/>
      <point x="71" y="172" type="qcurve"/>
      <point x="71" y="172" type="line"/>
      <point x="72" y="174"/>
      <point x="76" y="190"/>
      <point x="77" y="194" type="qcurve" smooth="yes"/>
      <point x="245" y="912" type="line"/>
      <point x="324" y="912" type="line"/>
      <point x="94" y="0.0" type="line"/>
      <point x="-8" y="0.0" type="line"/>
    </contour>
  </outline>
</glyph>
<glyph name="w" format="2">
  <advance width="436"/>
  <unicode hex="0077"/>
  <outline>
    <contour>
      <point x="19.974999999999998" y="912.35" type="line"/>
      <point x="94.27500000000003" y="912.35" type="line"/>
      <point x="44.400000000000034" y="137.25" type="line" smooth="yes"/>
      <point x="44.22500000000002" y="134.625"/>
      <point x="43.575000000000045" y="112.95000000000005"/>
      <point x="43.575000000000045" y="112.77500000000003" type="qcurve"/>
      <point x="43.575000000000045" y="112.77500000000003" type="line"/>
      <point x="43.575000000000045" y="112.95000000000005"/>
      <point x="48.325000000000045" y="134.625"/>
      <point x="48.85000000000002" y="137.25" type="qcurve" smooth="yes"/>
      <point x="211.3" y="912.35" type="line"/>
      <point x="279.42500000000007" y="912.35" type="line"/>
      <point x="219.92500000000007" y="137.25" type="line" smooth="yes"/>
      <point x="219.57500000000005" y="134.625"/>
      <point x="217.92500000000007" y="112.95000000000005"/>
      <point x="217.92500000000007" y="112.77500000000003" type="qcurve"/>
      <point x="217.92500000000007" y="112.77500000000003" type="line"/>
      <point x="217.92500000000007" y="112.95000000000005"/>
      <point x="223.67500000000007" y="134.625"/>
      <point x="224.375" y="137.25" type="qcurve" smooth="yes"/>
      <point x="389.75" y="912.35" type="line"/>
      <point x="464.05000000000007" y="912.35" type="line"/>
      <point x="248.42500000000007" y="0.0" type="line"/>
      <point x="164.55" y="0.0" type="line"/>
      <point x="222.425" y="777.425" type="line" smooth="yes"/>
      <point x="222.60000000000002" y="778.825"/>
      <point x="224.425" y="797.3499999999999"/>
      <point x="224.60000000000002" y="797.875" type="qcurve"/>
      <point x="224.60000000000002" y="797.875" type="line"/>
      <point x="224.425" y="797.3499999999999"/>
      <point x="220.07500000000005" y="778.825"/>
      <point x="219.72500000000002" y="777.425" type="qcurve" smooth="yes"/>
      <point x="55.575000000000045" y="0.0" type="line"/>
      <point x="-28.65" y="0.0" type="line"/>
    </contour>
  </outline>
</glyph>
<glyph name="x" format="2">
  <advance width="287"/>
  <unicode hex="0078"/>
  <outline>
    <contour>
      <point x="-117.575" y="0.0" type="line"/>
      <point x="82.375" y="503.45" type="line"/>
      <point x="89.72500000000002" y="503.45" type="line"/>
      <point x="233.125" y="912.35" type="line"/>
      <point x="313.9000000000001" y="912.35" type="line"/>
      <point x="124.67500000000001" y="445.525" type="line"/>
      <point x="117.32500000000005" y="445.525" type="line"/>
      <point x="-35.92500000000001" y="0.0" type="line"/>
    </contour>
    <contour>
      <point x="25.575" y="912.35" type="line"/>
      <point x="113.52500000000003" y="912.35" type="line"/>
      <point x="135.425" y="508.125" type="line"/>
      <point x="141.90000000000003" y="508.125" type="line"/>
      <point x="186.55000000000007" y="0.0" type="line"/>
      <point x="95.27500000000003" y="0.0" type="line"/>
      <point x="76.35000000000002" y="442.2" type="line"/>
      <point x="70.05000000000001" y="442.2" type="line"/>
    </contour>
  </outline>
</glyph>
<glyph name="y" format="2">
  <advance width="295"/>
  <unicode hex="0079"/>
  <outline>
    <contour>
      <point x="-274.45" y="-390.7" type="qcurve"/>
      <point x="-254.3" y="-327.9" type="line"/>
      <point x="-244.1" y="-333.125"/>
      <point x="-208.525" y="-341.875"/>
      <point x="-178.05" y="-341.875" type="qcurve" smooth="yes"/>
      <point x="-126.02499999999999" y="-341.875"/>
      <point x="-56.349999999999994" y="-231.95"/>
      <point x="-5.974999999999994" y="-4.3" type="qcurve" smooth="yes"/>
      <point x="-5.625" y="-2.1999999999999993" type="line"/>
      <point x="27.074999999999996" y="912.35" type="line"/>
      <point x="108.375" y="912.35" type="line"/>
      <point x="68.77500000000003" y="199.3" type="line" smooth="yes"/>
      <point x="67.95000000000005" y="185.02500000000003"/>
      <point x="64.30000000000001" y="121.30000000000001"/>
      <point x="63.125" y="108.42500000000001" type="qcurve"/>
      <point x="63.30000000000001" y="108.42500000000001" type="line"/>
      <point x="65.47500000000002" y="121.125"/>
      <point x="80.65000000000003" y="184.02500000000003"/>
      <point x="84.70000000000005" y="199.125" type="qcurve" smooth="yes"/>
      <point x="246.90000000000003" y="912.35" type="line"/>
      <point x="322.6" y="912.35" type="line"/>
      <point x="95.67500000000007" y="7.650000000000006" type="line" smooth="yes"/>
      <point x="26.225000000000023" y="-264.975"/>
      <point x="-85.92500000000001" y="-409.825"/>
      <point x="-167.375" y="-409.0" type="qcurve" smooth="yes"/>
      <point x="-210.1" y="-409.0"/>
      <point x="-262.025" y="-397.975"/>
    </contour>
  </outline>
</glyph>
<glyph name="z" format="2">
  <advance width="256"/>
  <unicode hex="007A"/>
  <outline>
    <contour>
      <point x="-95.775" y="0.0" type="line"/>
      <point x="-87.025" y="54.82500000000002" type="line"/>
      <point x="146.875" y="839.275" type="line"/>
      <point x="32.55" y="839.275" type="line"/>
      <point x="44.625" y="912.35" type="line"/>
      <point x="267.725" y="912.35" type="line"/>
      <point x="258.275" y="854.025" type="line"/>
      <point x="24.725000000000023" y="69.57499999999999" type="line"/>
      <point x="160.20000000000005" y="69.57499999999999" type="line"/>
      <point x="148.64999999999998" y="0.0" type="line"/>
    </contour>
  </outline>
</glyph>
<glyph name="braceleft" format="2">
  <advance width="221"/>
  <unicode hex="007B"/>
  <outline>
    <contour>
      <point x="64.72500000000002" y="-312.0" type="line"/>
      <point x="-36.82499999999999" y="-314.1"/>
      <point x="-60.974999999999994" y="-79.575"/>
      <point x="-8.774999999999991" y="113.125" type="qcurve" smooth="yes"/>
      <point x="49.775000000000006" y="325.1" type="line" smooth="yes"/>
      <point x="80.65" y="438.275"/>
      <point x="34.45" y="545.5"/>
      <point x="-11.0" y="545.5" type="qcurve"/>
      <point x="-6.974999999999994" y="600.85" type="line"/>
      <point x="38.650000000000006" y="600.85"/>
      <point x="114.45" y="708.075"/>
      <point x="119.75" y="821.25" type="qcurve" smooth="yes"/>
      <point x="127.95" y="1033.225" type="line" smooth="yes"/>
      <point x="133.22500000000002" y="1224.875"/>
      <point x="225.675" y="1460.225"/>
      <point x="322.27500000000003" y="1459.175" type="qcurve"/>
      <point x="317.90000000000003" y="1411.625" type="line"/>
      <point x="268.40000000000003" y="1411.625"/>
      <point x="200.65000000000003" y="1201.075"/>
      <point x="192.05" y="1020.575" type="qcurve" smooth="yes"/>
      <point x="184.02500000000003" y="815.65" type="line" smooth="yes"/>
      <point x="179.77500000000003" y="711.85"/>
      <point x="113.625" y="588.325"/>
      <point x="64.17500000000001" y="573.175" type="qcurve"/>
      <point x="111.22500000000002" y="553.9"/>
      <point x="142.27500000000003" y="438.625"/>
      <point x="113.875" y="335.65" type="qcurve" smooth="yes"/>
      <point x="55.325000000000045" y="125.775" type="line" smooth="yes"/>
      <point x="7.725000000000023" y="-54.724999999999994"/>
      <point x="17.30000000000001" y="-261.975"/>
      <point x="69.27500000000003" y="-261.975" type="qcurve"/>
    </contour>
  </outline>
</glyph>
<glyph name="bar" format="2">
  <advance width="247"/>
  <unicode hex="007C"/>
  <outline>
    <contour>
      <point x="-82.5" y="-414.35" type="line"/>
      <point x="195.675" y="1457.65" type="line"/>
      <point x="268.52500000000003" y="1457.65" type="line"/>
      <point x="-9.474999999999966" y="-414.35" type="line"/>
    </contour>
  </outline>
</glyph>
<glyph name="exclamdown" format="2">
  <advance width="635"/>
  <unicode hex="00A1"/>
  <outline>
    <contour>
      <point x="496.27965631596123" y="1047.575" type="qcurve" smooth="yes"/>
      <point x="489.15163812082153" y="996.3"/>
      <point x="411.1187549849077" y="923.15"/>
      <point x="347.4437549849077" y="923.15" type="qcurve" smooth="yes"/>
      <point x="283.9437549849077" y="923.15"/>
      <point x="226.4516381208215" y="996.3"/>
      <point x="233.57965631596122" y="1047.575" type="qcurve" smooth="yes"/>
      <point x="240.70767451110092" y="1098.85"/>
      <point x="318.7405576470148" y="1172.0"/>
      <point x="382.24055764701484" y="1172.0" type="qcurve" smooth="yes"/>
      <point x="445.74055764701484" y="1172.0"/>
      <point x="503.40767451110094" y="1098.85"/>
    </contour>
    <contour>
      <point x="407.6976217225179" y="737.2" type="line"/>
      <point x="271.586253720148" y="-306.0" type="line"/>
      <point x="63.06125372014802" y="-306.0" type="line"/>
      <point x="231.09762172251789" y="737.2" type="line"/>
    </contour>
  </outline>
</glyph>
<glyph name="cent" format="2">
  <advance width="1057"/>
  <unicode hex="00A2"/>
  <outline>
    <contour>
      <point x="499.9224720618244" y="291.45" type="qcurve" smooth="yes"/>
      <point x="595.4224720618245" y="291.45"/>
      <point x="765.4083733928779" y="405.2"/>
      <point x="786.871121469566" y="483.425" type="qcurve"/>
      <point x="974.9461214695659" y="483.425" type="line"/>
      <point x="944.5984761614004" y="347.475"/>
      <point x="648.8110686809829" y="130.0"/>
      <point x="477.8110686809829" y="130.0" type="qcurve" smooth="yes"/>
      <point x="223.6110686809829" y="130.0"/>
      <point x="27.018270624355566" y="459.775"/>
      <point x="58.43973858660403" y="669.475" type="qcurve" smooth="yes"/>
      <point x="64.54946846815231" y="712.35" type="line" smooth="yes"/>
      <point x="95.97093643040077" y="921.35"/>
      <point x="386.82813837377347" y="1252.0"/>
      <point x="641.0281383737735" y="1252.0" type="qcurve" smooth="yes"/>
      <point x="832.4781383737735" y="1252.0"/>
      <point x="1044.75197282068" y="1023.375"/>
      <point x="1028.8289928126558" y="859.475" type="qcurve"/>
      <point x="841.103992812656" y="859.475" type="line"/>
      <point x="847.2804989620197" y="950.075"/>
      <point x="727.516734992932" y="1090.725"/>
      <point x="618.566734992932" y="1090.725" type="qcurve" smooth="yes"/>
      <point x="442.266734992932" y="1090.725"/>
      <point x="284.21523473998" y="838.35"/>
      <point x="263.8494684681523" y="712.35" type="qcurve" smooth="yes"/>
      <point x="257.73973858660406" y="669.475" type="line" smooth="yes"/>
      <point x="237.0830327966073" y="537.8"/>
      <point x="321.4474720618244" y="291.45"/>
    </contour>
    <contour>
      <point x="377.4" y="0.0" type="line"/>
      <point x="411.87633290302267" y="245.75" type="line"/>
      <point x="419.7879095302054" y="259.75" type="line"/>
      <point x="486.2675894318144" y="708.0" type="line"/>
      <point x="631.5175894318144" y="708.0" type="line"/>
      <point x="564.8924397711208" y="258.75" type="line"/>
      <point x="569.312742180276" y="248.75" type="line"/>
      <point x="534.4" y="0.0" type="line"/>
    </contour>
    <contour>
      <point x="486.2675894318144" y="708.0" type="line"/>
      <point x="555.2202552378596" y="1182.0" type="line"/>
      <point x="550.7999528287045" y="1192.0" type="line"/>
      <point x="581.348602236446" y="1402.0" type="line"/>
      <point x="738.348602236446" y="1402.0" type="line"/>
      <point x="707.7999528287045" y="1192.0" type="line"/>
      <point x="700.0338459606062" y="1179.0" type="line"/>
      <point x="631.5175894318144" y="708.0" type="line"/>
    </contour>
  </outline>
</glyph>
<glyph name="sterling" format="2">
  <advance width="1047"/>
  <unicode hex="00A3"/>
  <outline>
    <contour>
      <point x="949.875" y="0.0" type="line"/>
      <point x="-69.6" y="0.0" type="line"/>
      <point x="-46.32483854648261" y="170.85" type="line"/>
      <point x="11.250161453517379" y="170.85" type="line" smooth="yes"/>
      <point x="105.70016145351737" y="170.85"/>
      <point x="208.3322019433727" y="324.0"/>
      <point x="214.78437749245384" y="467.0" type="qcurve" smooth="yes"/>
      <point x="241.41807968877845" y="1039.0" type="line" smooth="yes"/>
      <point x="250.73686415574585" y="1224.15"/>
      <point x="497.68836440869774" y="1476.0"/>
      <point x="705.1633644086977" y="1476.0" type="qcurve" smooth="yes"/>
      <point x="899.8883644086977" y="1476.0"/>
      <point x="1089.5715940372943" y="1267.725"/>
      <point x="1065.2781442701853" y="1103.0" type="qcurve" smooth="yes"/>
      <point x="1062.9506281248337" y="1087.0" type="line"/>
      <point x="856.6006281248336" y="1087.0" type="line"/>
      <point x="858.9281442701854" y="1103.0" type="line" smooth="yes"/>
      <point x="867.432166564901" y="1215.025"/>
      <point x="771.894914641589" y="1296.925"/>
      <point x="682.869914641589" y="1296.925" type="qcurve" smooth="yes"/>
      <point x="588.3199146415891" y="1296.925"/>
      <point x="450.83166451511306" y="1182.025"/>
      <point x="443.41807968877845" y="1039.0" type="qcurve" smooth="yes"/>
      <point x="418.57363761491774" y="499.25" type="line" smooth="yes"/>
      <point x="411.4397503794279" y="369.2"/>
      <point x="333.31224013048814" y="216.625"/>
      <point x="257.1729800080243" y="176.85" type="qcurve"/>
      <point x="974.0229800080243" y="176.85" type="line"/>
    </contour>
    <contour>
      <point x="831.0185994278022" y="616.25" type="line"/>
      <point x="37.84359942780226" y="616.25" type="line"/>
      <point x="60.39141208589721" y="781.225" type="line"/>
      <point x="853.5664120858972" y="781.225" type="line"/>
    </contour>
  </outline>
</glyph>
<glyph name="currency" format="2">
  <advance width="1158"/>
  <unicode hex="00A4"/>
  <guideline x="25.46825293511972" y="901.0" angle="0" identifier="bRYxxRaQQf"/>
  <guideline x="-24.8642837081116" y="555.0" angle="0" identifier="917FhrihjR"/>
  <outline>
    <contour>
      <point x="251.4494684681523" y="711.3" type="qcurve"/>
      <point x="230.3563534009022" y="562.975"/>
      <point x="391.3852201385124" y="363.55"/>
      <point x="524.4852201385124" y="363.55" type="qcurve" smooth="yes"/>
      <point x="656.5852201385125" y="363.55"/>
      <point x="873.2313534009022" y="562.975"/>
      <point x="894.3244684681523" y="711.3" type="qcurve" smooth="yes"/>
      <point x="915.1266440172336" y="857.275"/>
      <point x="754.9227772796232" y="1056.875"/>
      <point x="622.8227772796233" y="1056.875" type="qcurve" smooth="yes"/>
      <point x="489.72277727962324" y="1056.875"/>
      <point x="272.2516440172335" y="857.275"/>
    </contour>
    <contour>
      <point x="55.847287022659216" y="717.475" type="qcurve"/>
      <point x="87.1232852258232" y="941.05"/>
      <point x="438.55045487849236" y="1246.175"/>
      <point x="647.4254548784924" y="1246.175" type="qcurve" smooth="yes"/>
      <point x="856.3004548784924" y="1246.175"/>
      <point x="1122.9482852258232" y="941.05"/>
      <point x="1091.6722870226592" y="717.475" type="qcurve" smooth="yes"/>
      <point x="1060.54175857858" y="494.9"/>
      <point x="708.503179648657" y="188.35"/>
      <point x="499.62817964865707" y="188.35" type="qcurve" smooth="yes"/>
      <point x="290.75317964865707" y="188.35"/>
      <point x="24.716758578579714" y="495.775"/>
    </contour>
    <contour>
      <point x="1204.5974366833527" y="1190.7" type="line"/>
      <point x="965.4556663119491" y="977.35" type="line"/>
      <point x="854.9303257156785" y="1111.7" type="line"/>
      <point x="1093.8970960870822" y="1325.05" type="line"/>
    </contour>
    <contour>
      <point x="273.5462947159072" y="339.125" type="line"/>
      <point x="34.57952434450357" y="125.77499999999999" type="line"/>
      <point x="-75.09128601085149" y="259.125" type="line"/>
      <point x="163.73001460146762" y="471.475" type="line"/>
    </contour>
    <contour>
      <point x="954.2978126580949" y="132.95" type="line"/>
      <point x="775.0895830294986" y="346.475" type="line"/>
      <point x="923.5937726741436" y="479.825" type="line"/>
      <point x="1102.7724720618244" y="267.3" type="line"/>
    </contour>
    <contour>
      <point x="255.2422429391319" y="991.875" type="line"/>
      <point x="76.03401331053547" y="1205.225" type="line"/>
      <point x="222.3632029551804" y="1338.75" type="line"/>
      <point x="401.57143258377675" y="1125.4" type="line"/>
    </contour>
  </outline>
</glyph>
<glyph name="yen" format="2">
  <advance width="1056"/>
  <unicode hex="00A5"/>
  <outline>
    <contour>
      <point x="-1.358904924725607" y="305.4" type="line"/>
      <point x="21.7707867697073" y="475.25" type="line"/>
      <point x="967.7707867697072" y="475.25" type="line"/>
      <point x="944.6410950752744" y="305.4" type="line"/>
    </contour>
    <contour>
      <point x="43.736720391464324" y="624.5" type="line"/>
      <point x="66.13906329047481" y="788.475" type="line"/>
      <point x="432.1390632904748" y="788.475" type="line"/>
      <point x="469.71926882751956" y="679.675" type="line"/>
      <point x="578.7192688275196" y="679.675" type="line"/>
      <point x="642.1390632904747" y="788.475" type="line"/>
      <point x="1012.1390632904747" y="788.475" type="line"/>
      <point x="989.7367203914644" y="624.5" type="line"/>
    </contour>
    <contour>
      <point x="323.925" y="0.0" type="line"/>
      <point x="403.642427978297" y="548.0" type="line"/>
      <point x="80.72896922700815" y="1456.0" type="line"/>
      <point x="305.4789692270081" y="1456.0" type="line"/>
      <point x="483.9038254627266" y="859.675" type="line" smooth="yes"/>
      <point x="493.3647326901921" y="829.675"/>
      <point x="511.55634750449025" y="726.675"/>
      <point x="513.1739664183643" y="689.675" type="qcurve"/>
      <point x="533.1739664183643" y="689.675" type="line"/>
      <point x="550.3202729270954" y="745.675"/>
      <point x="593.7147326901921" y="829.675"/>
      <point x="611.9038254627266" y="859.675" type="qcurve" smooth="yes"/>
      <point x="971.1039692270082" y="1456.0" type="line"/>
      <point x="1187.678969227008" y="1456.0" type="line"/>
      <point x="600.592427978297" y="548.0" type="line"/>
      <point x="520.875" y="0.0" type="line"/>
    </contour>
  </outline>
</glyph>
<glyph name="brokenbar" format="2">
  <advance width="605"/>
  <unicode hex="00A6"/>
  <guideline x="25.46825293511972" y="901.0" angle="0" identifier="jmguX8NWKI"/>
  <guideline x="-24.8642837081116" y="555.0" angle="0" identifier="Z0RZpP7MTi"/>
  <outline>
    <contour>
      <point x="233.48458022085484" y="-416.0" type="line"/>
      <point x="38.88458022085484" y="-416.0" type="line"/>
      <point x="151.62364351132965" y="359.0" type="line"/>
      <point x="346.22364351132967" y="359.0" type="line"/>
    </contour>
    <contour>
      <point x="517.4415499537668" y="1536.0" type="line"/>
      <point x="404.702486663292" y="761.0" type="line"/>
      <point x="210.102486663292" y="761.0" type="line"/>
      <point x="322.84154995376684" y="1536.0" type="line"/>
    </contour>
  </outline>
</glyph>
<glyph name="section" format="2">
  <advance width="1258"/>
  <unicode hex="00A7"/>
  <guideline x="135.58886056207382" y="1658.0" angle="0" identifier="QzZ5gIiCyn"/>
  <guideline x="-21.51847924916848" y="578.0" angle="0" identifier="9Hxjf2sdFw"/>
  <outline>
    <contour>
      <point x="600.8974779582363" y="130.55" type="qcurve"/>
      <point x="618.2083792892898" y="254.45" type="line"/>
      <point x="726.9833792892899" y="254.275"/>
      <point x="898.1966294157659" y="376.7"/>
      <point x="910.852498456116" y="461.25" type="qcurve"/>
      <point x="924.3811860509729" y="551.45"/>
      <point x="778.630678104773" y="665.175"/>
      <point x="609.274803168011" y="727.0" type="qcurve" smooth="yes"/>
      <point x="425.52798871307994" y="786.475"/>
      <point x="222.67580137117494" y="936.75"/>
      <point x="248.860358006382" y="1123.925" type="qcurve" smooth="yes"/>
      <point x="274.4630356052511" y="1305.175"/>
      <point x="530.3999410358806" y="1489.825"/>
      <point x="735.8704107949651" y="1491.0" type="qcurve" smooth="yes"/>
      <point x="931.9908805540495" y="1492.175"/>
      <point x="1128.5878682553216" y="1291.725"/>
      <point x="1099.191734992932" y="1094.75" type="qcurve"/>
      <point x="924.5667349929319" y="1094.75" type="line"/>
      <point x="940.2887109013803" y="1189.5"/>
      <point x="831.8430678959545" y="1325.8"/>
      <point x="713.4680678959545" y="1325.8" type="qcurve" smooth="yes"/>
      <point x="574.5180678959546" y="1325.8"/>
      <point x="440.0120315056752" y="1232.875"/>
      <point x="425.6105253563113" y="1136.325" type="qcurve" smooth="yes"/>
      <point x="412.3727772796233" y="1047.775"/>
      <point x="523.4464384801888" y="966.075"/>
      <point x="714.4863738987818" y="902.075" type="qcurve" smooth="yes"/>
      <point x="887.9491278718817" y="844.95"/>
      <point x="1131.7712829230834" y="657.425"/>
      <point x="1106.4595448423831" y="478.35" type="qcurve" smooth="yes"/>
      <point x="1082.7479741116124" y="311.325"/>
      <point x="782.3474779582364" y="129.85"/>
    </contour>
    <contour>
      <point x="564.0749646215284" y="895.4" type="qcurve"/>
      <point x="542.8251378678696" y="747.25" type="line"/>
      <point x="433.0501378678696" y="747.25"/>
      <point x="295.93487364582984" y="643.225"/>
      <point x="284.00635340090224" y="564.2" type="qcurve" smooth="yes"/>
      <point x="272.3687726741435" y="491.2"/>
      <point x="401.1967967656952" y="393.3"/>
      <point x="578.4389136297813" y="323.125" type="qcurve" smooth="yes"/>
      <point x="741.4833792892899" y="258.475"/>
      <point x="959.5260040995759" y="74.4"/>
      <point x="933.4869172234535" y="-108.625" type="qcurve" smooth="yes"/>
      <point x="906.5750117928238" y="-296.775"/>
      <point x="616.9808926259979" y="-509.0"/>
      <point x="421.6308926259979" y="-509.0" type="qcurve" smooth="yes"/>
      <point x="226.45589262599788" y="-509.0"/>
      <point x="-22.002337002598523" y="-302.125"/>
      <point x="11.601177345917193" y="-66.225" type="qcurve"/>
      <point x="185.34211686408614" y="-64.225" type="line"/>
      <point x="162.06695541056877" y="-223.875"/>
      <point x="345.5582355250083" y="-344.85"/>
      <point x="444.03323552500837" y="-344.85" type="qcurve" smooth="yes"/>
      <point x="555.2582355250083" y="-344.85"/>
      <point x="740.980378783386" y="-240.5"/>
      <point x="756.6911127645102" y="-135.125" type="qcurve" smooth="yes"/>
      <point x="771.3835584320431" y="-36.925"/>
      <point x="646.3991573539415" y="90.325"/>
      <point x="453.09563121260186" y="157.325" type="qcurve" smooth="yes"/>
      <point x="278.89428651675536" y="217.275"/>
      <point x="67.84729881548311" y="418.95"/>
      <point x="90.68605099174702" y="576.475" type="qcurve" smooth="yes"/>
      <point x="112.50651485441958" y="729.8"/>
      <point x="401.7249646215284" y="895.4"/>
    </contour>
  </outline>
</glyph>
<glyph name="dieresis" format="2">
  <advance width="500"/>
  <unicode hex="00A8"/>
  <outline>
    <contour>
      <point x="155.91381473524882" y="1024.0" type="qcurve" smooth="yes"/>
      <point x="159.42733560280863" y="1049.0"/>
      <point x="194.2057239826899" y="1083.0"/>
      <point x="223.2057239826899" y="1083.0" type="qcurve" smooth="yes"/>
      <point x="252.2057239826899" y="1083.0"/>
      <point x="276.4273356028086" y="1049.0"/>
      <point x="272.9138147352488" y="1024.0" type="qcurve" smooth="yes"/>
      <point x="269.5408347023914" y="1000.0"/>
      <point x="235.90298715721252" y="967.0"/>
      <point x="206.90298715721252" y="967.0" type="qcurve" smooth="yes"/>
      <point x="177.90298715721252" y="967.0"/>
      <point x="152.54083470239144" y="1000.0"/>
    </contour>
    <contour>
      <point x="310.63273306584404" y="1022.0" type="qcurve" smooth="yes"/>
      <point x="314.14625393340384" y="1047.0"/>
      <point x="348.0651831479875" y="1082.0"/>
      <point x="378.0651831479875" y="1082.0" type="qcurve" smooth="yes"/>
      <point x="407.0651831479875" y="1082.0"/>
      <point x="431.14625393340384" y="1047.0"/>
      <point x="427.63273306584404" y="1022.0" type="qcurve" smooth="yes"/>
      <point x="424.2597530329866" y="998.0"/>
      <point x="390.62190548780774" y="965.0"/>
      <point x="361.62190548780774" y="965.0" type="qcurve" smooth="yes"/>
      <point x="331.62190548780774" y="965.0"/>
      <point x="307.2597530329866" y="998.0"/>
    </contour>
  </outline>
</glyph>
<glyph name="copyright" format="2">
  <advance width="1654"/>
  <unicode hex="00A9"/>
  <guideline x="25.46825293511972" y="901.0" angle="0" identifier="0Pjz0qKr8z"/>
  <guideline x="-24.8642837081116" y="555.0" angle="0" identifier="sJo8BlDiJ7"/>
  <outline>
    <contour>
      <point x="995.601488460128" y="546.525" type="qcurve"/>
      <point x="1190.726488460128" y="546.525" type="line"/>
      <point x="1165.8511596566814" y="371.325"/>
      <point x="897.0213006123191" y="205.0"/>
      <point x="734.2463006123191" y="205.0" type="qcurve" smooth="yes"/>
      <point x="564.6463006123191" y="205.0"/>
      <point x="373.47028471991933" y="433.85"/>
      <point x="406.49192003209714" y="662.425" type="qcurve" smooth="yes"/>
      <point x="412.165240636392" y="702.65" type="line" smooth="yes"/>
      <point x="445.33234570765427" y="932.225"/>
      <point x="706.1996181288458" y="1170.0"/>
      <point x="894.5996181288458" y="1170.0" type="qcurve" smooth="yes"/>
      <point x="1083.6996181288457" y="1170.0"/>
      <point x="1255.8217731800473" y="981.95"/>
      <point x="1233.419430281037" y="828.3" type="qcurve"/>
      <point x="1038.6444302810369" y="828.3" type="line"/>
      <point x="1051.4457690804713" y="911.05"/>
      <point x="965.2425776389905" y="994.275"/>
      <point x="869.2175776389905" y="994.275" type="qcurve" smooth="yes"/>
      <point x="766.9425776389905" y="994.275"/>
      <point x="643.6927508853317" y="864.85"/>
      <point x="626.0909100361092" y="754.35" type="qcurve" smooth="yes"/>
      <point x="607.7617203914643" y="611.9" type="line" smooth="yes"/>
      <point x="590.0144097831574" y="497.775"/>
      <point x="684.3600527885831" y="372.5"/>
      <point x="786.4600527885831" y="372.5" type="qcurve" smooth="yes"/>
      <point x="881.9600527885831" y="372.5"/>
      <point x="982.6546799016091" y="462.075"/>
    </contour>
    <contour>
      <point x="183.83772449104026" y="687.0" type="qcurve" smooth="yes"/>
      <point x="142.08790363379347" y="403.5"/>
      <point x="462.18187903633793" y="9.425"/>
      <point x="722.9818790363379" y="9.425" type="qcurve" smooth="yes"/>
      <point x="982.7818790363378" y="9.425"/>
      <point x="1418.0879036337935" y="403.5"/>
      <point x="1459.8377244910403" y="687.0" type="qcurve" smooth="yes"/>
      <point x="1501.7330151073716" y="972.025"/>
      <point x="1181.0571606684891" y="1361.4"/>
      <point x="921.2571606684891" y="1361.4" type="qcurve" smooth="yes"/>
      <point x="660.457160668489" y="1361.4"/>
      <point x="225.7330151073715" y="972.025"/>
    </contour>
    <contour>
      <point x="28.837724491040248" y="687.0" type="qcurve" smooth="yes"/>
      <point x="80.04307968877846" y="1039.0"/>
      <point x="616.3685640493306" y="1522.5"/>
      <point x="942.3685640493306" y="1522.5" type="qcurve" smooth="yes"/>
      <point x="1267.3685640493306" y="1522.5"/>
      <point x="1665.0430796887786" y="1039.0"/>
      <point x="1613.8377244910403" y="687.0" type="qcurve" smooth="yes"/>
      <point x="1562.923308811471" y="337.0"/>
      <point x="1025.015945414581" y="-150.5"/>
      <point x="700.0159454145809" y="-150.5" type="qcurve" smooth="yes"/>
      <point x="374.01594541458087" y="-150.5"/>
      <point x="-22.076691188529026" y="337.0"/>
    </contour>
  </outline>
</glyph>
<glyph name="ordfeminine" format="2">
  <advance width="916"/>
  <unicode hex="00AA"/>
  <guideline x="138.93466502101694" y="1681.0" angle="0" identifier="3CJlALCfkl"/>
  <guideline x="26.632011007795604" y="909.0" angle="0" identifier="Zdl6NZVQAy"/>
  <outline>
    <contour>
      <point x="621.9449323308248" y="862.0" type="line"/>
      <point x="615.980672208361" y="821.0"/>
      <point x="623.6157426861799" y="736.0"/>
      <point x="642.2516499136455" y="706.0" type="qcurve"/>
      <point x="784.6016499136455" y="706.0" type="line"/>
      <point x="776.8568495542781" y="749.0"/>
      <point x="777.8036581127972" y="838.0"/>
      <point x="784.9316763079369" y="887.0" type="qcurve" smooth="yes"/>
      <point x="830.6091806604649" y="1201.0" type="line" smooth="yes"/>
      <point x="850.538537655039" y="1338.7"/>
      <point x="708.7838341677823" y="1477.0"/>
      <point x="573.2588341677822" y="1477.0" type="qcurve" smooth="yes"/>
      <point x="446.25883416778225" y="1477.0"/>
      <point x="254.38199331855975" y="1356.0"/>
      <point x="239.86236620553382" y="1261.0" type="qcurve" smooth="yes"/>
      <point x="235.93468271025276" y="1234.0" type="line"/>
      <point x="399.15968271025275" y="1234.0" type="line"/>
      <point x="401.050789578351" y="1247.0" type="line" smooth="yes"/>
      <point x="407.59692873715284" y="1288.675"/>
      <point x="487.6522957277149" y="1340.05"/>
      <point x="556.202295727715" y="1340.05" type="qcurve" smooth="yes"/>
      <point x="621.2772957277149" y="1340.05"/>
      <point x="682.1694125918011" y="1273.9"/>
      <point x="671.4046504195493" y="1202.0" type="qcurve" smooth="yes"/>
    </contour>
    <contour>
      <point x="696.5447531880717" y="1149.0" type="line"/>
      <point x="538.5447531880717" y="1149.0" type="line" smooth="yes"/>
      <point x="366.5697531880717" y="1149.0"/>
      <point x="181.96791233884915" y="1027.825"/>
      <point x="165.96623883955593" y="918.0" type="qcurve" smooth="yes"/>
      <point x="151.1283234129386" y="817.225"/>
      <point x="261.3150732864627" y="692.0"/>
      <point x="382.0650732864627" y="692.0" type="qcurve" smooth="yes"/>
      <point x="483.0650732864627" y="692.0"/>
      <point x="628.0301701585731" y="788.0"/>
      <point x="657.1581883537128" y="837.0" type="qcurve"/>
      <point x="654.575801371175" y="954.775" type="line"/>
      <point x="649.0479505259646" y="916.775"/>
      <point x="503.9761419674455" y="827.775"/>
      <point x="439.9761419674455" y="827.775" type="qcurve" smooth="yes"/>
      <point x="378.07614196744555" y="827.775"/>
      <point x="325.5179182352611" y="882.675"/>
      <point x="331.7731178758939" y="922.0" type="qcurve" smooth="yes"/>
      <point x="338.61019655286464" y="966.025"/>
      <point x="435.9044889660319" y="1039.55"/>
      <point x="523.9794889660319" y="1039.725" type="qcurve" smooth="yes"/>
      <point x="680.9794889660319" y="1039.725" type="line"/>
    </contour>
  </outline>
</glyph>
<glyph name="guillemotleft" format="2">
  <advance width="1104"/>
  <unicode hex="00AB"/>
  <guideline x="25.46825293511972" y="901.0" angle="0" identifier="ZftBQarVKw"/>
  <guideline x="-24.8642837081116" y="555.0" angle="0" identifier="MVJpdoVRVd"/>
  <outline>
    <contour>
      <point x="78.33521424210046" y="523.05" type="line"/>
      <point x="86.91793002808497" y="585.9" type="line"/>
      <point x="441.5758013711749" y="954.95" type="line"/>
      <point x="613.0258013711749" y="954.95" type="line"/>
      <point x="295.20383725555047" y="553.975" type="line"/>
      <point x="497.23187313992594" y="153.0" type="line"/>
      <point x="325.781873139926" y="153.0" type="line"/>
    </contour>
    <contour>
      <point x="521.6602142421004" y="523.05" type="line"/>
      <point x="530.242930028085" y="585.9" type="line"/>
      <point x="884.725801371175" y="954.95" type="line"/>
      <point x="1056.3508013711748" y="954.95" type="line"/>
      <point x="738.5288372555505" y="553.975" type="line"/>
      <point x="940.556873139926" y="153.0" type="line"/>
      <point x="768.931873139926" y="153.0" type="line"/>
    </contour>
  </outline>
</glyph>
<glyph name="logicalnot" format="2">
  <advance width="1024"/>
  <unicode hex="00AC"/>
  <outline>
    <contour>
      <point x="960.4462770266714" y="811.5" type="line"/>
      <point x="898.6216294157658" y="376.0" type="line"/>
      <point x="700.3216294157659" y="376.0" type="line"/>
      <point x="738.289236536816" y="635.775" type="line"/>
      <point x="45.06423653681604" y="635.775" type="line"/>
      <point x="68.92127702667138" y="811.5" type="line"/>
    </contour>
  </outline>
</glyph>
<glyph name="registered" format="2">
  <advance width="1654"/>
  <unicode hex="00AE"/>
  <outline>
    <contour>
      <point x="28.837724491040248" y="687.0" type="qcurve" smooth="yes"/>
      <point x="80.04307968877846" y="1039.0"/>
      <point x="616.3685640493306" y="1522.5"/>
      <point x="942.3685640493306" y="1522.5" type="qcurve" smooth="yes"/>
      <point x="1267.3685640493306" y="1522.5"/>
      <point x="1665.0430796887786" y="1039.0"/>
      <point x="1613.8377244910403" y="687.0" type="qcurve" smooth="yes"/>
      <point x="1562.923308811471" y="337.0"/>
      <point x="1025.015945414581" y="-148.75"/>
      <point x="700.0159454145809" y="-148.75" type="qcurve" smooth="yes"/>
      <point x="374.01594541458087" y="-148.75"/>
      <point x="-22.076691188529026" y="337.0"/>
    </contour>
    <contour>
      <point x="183.83772449104026" y="687.0" type="qcurve" smooth="yes"/>
      <point x="142.08790363379347" y="404.9"/>
      <point x="462.18187903633793" y="11.0"/>
      <point x="722.9818790363379" y="11.0" type="qcurve" smooth="yes"/>
      <point x="982.7818790363378" y="11.0"/>
      <point x="1418.0879036337935" y="404.9"/>
      <point x="1459.8377244910403" y="687.0" type="qcurve" smooth="yes"/>
      <point x="1501.7330151073716" y="971.15"/>
      <point x="1181.0571606684891" y="1361.75"/>
      <point x="921.2571606684891" y="1361.75" type="qcurve" smooth="yes"/>
      <point x="660.457160668489" y="1361.75"/>
      <point x="225.7330151073715" y="971.15"/>
    </contour>
    <contour>
      <point x="832.9204461734367" y="593.15" type="line"/>
      <point x="649.6204461734367" y="593.15" type="line"/>
      <point x="595.5056957940088" y="225.0" type="line"/>
      <point x="420.88069579400883" y="225.0" type="line"/>
      <point x="556.603981019832" y="1158.0" type="line"/>
      <point x="883.8539810198321" y="1158.0" type="line" smooth="yes"/>
      <point x="1056.7289810198322" y="1158.0"/>
      <point x="1244.7382147480043" y="1018.0"/>
      <point x="1224.2269787170922" y="875.25" type="qcurve" smooth="yes"/>
      <point x="1207.7888959405454" y="760.15"/>
      <point x="1080.5756458140695" y="637.55"/>
      <point x="966.975311114211" y="615.55" type="qcurve"/>
      <point x="996.2045066552677" y="592.55"/>
      <point x="1014.3925953282263" y="559.0"/>
      <point x="1027.3489723147763" y="530.0" type="qcurve" smooth="yes"/>
      <point x="1157.2241514575294" y="243.0" type="line"/>
      <point x="1154.6056957940086" y="225.0" type="line"/>
      <point x="963.8806957940087" y="225.0" type="line"/>
    </contour>
    <contour>
      <point x="862.888047398075" y="997.9" type="qcurve" smooth="yes"/>
      <point x="709.263047398075" y="997.9" type="line"/>
      <point x="670.1316822043489" y="741.85" type="line"/>
      <point x="848.7566822043489" y="741.85" type="line" smooth="yes"/>
      <point x="916.856682204349" y="741.85"/>
      <point x="1018.8734584721645" y="793.95"/>
      <point x="1028.1835230535714" y="855.325" type="qcurve" smooth="yes"/>
      <point x="1039.9665735394146" y="935.625"/>
      <point x="981.6175776389905" y="996.9"/>
    </contour>
  </outline>
</glyph>
<glyph name="macron" format="2">
  <advance width="385"/>
  <unicode hex="00AF"/>
  <outline>
    <contour>
      <point x="234.45381956631468" y="1053.65" type="line"/>
      <point x="235.32663812082149" y="1005.75" type="line"/>
      <point x="231.85163812082152" y="1005.75" type="line"/>
      <point x="230.97881956631466" y="1053.65" type="line"/>
    </contour>
  </outline>
</glyph>
<glyph name="degree" format="2">
  <advance width="389"/>
  <unicode hex="00B0"/>
  <outline>
    <contour>
      <point x="111.03819583281037" y="1217.0" type="qcurve"/>
      <point x="127.34093265828778" y="1333.0"/>
      <point x="225.7679961613843" y="1457.0"/>
      <point x="300.7679961613843" y="1457.0" type="qcurve" smooth="yes"/>
      <point x="373.7679961613843" y="1457.0"/>
      <point x="435.3409326582878" y="1333.0"/>
      <point x="419.0381958328104" y="1217.0" type="qcurve" smooth="yes"/>
      <point x="403.01654067673775" y="1103.0"/>
      <point x="306.73001800834356" y="980.0"/>
      <point x="233.73001800834356" y="980.0" type="qcurve" smooth="yes"/>
      <point x="158.73001800834356" y="980.0"/>
      <point x="95.01654067673775" y="1103.0"/>
    </contour>
    <contour>
      <point x="206.0381958328104" y="1217.0" type="qcurve"/>
      <point x="196.20033740364295" y="1147.0"/>
      <point x="217.51923396626125" y="1071.0"/>
      <point x="246.51923396626125" y="1071.0" type="qcurve" smooth="yes"/>
      <point x="273.51923396626125" y="1071.0"/>
      <point x="314.20033740364295" y="1147.0"/>
      <point x="324.0381958328104" y="1217.0" type="qcurve" smooth="yes"/>
      <point x="334.1571359313825" y="1289.0"/>
      <point x="314.9787802034667" y="1366.0"/>
      <point x="287.9787802034667" y="1366.0" type="qcurve" smooth="yes"/>
      <point x="258.9787802034667" y="1366.0"/>
      <point x="216.15713593138253" y="1289.0"/>
    </contour>
  </outline>
</glyph>
<glyph name="plusminus" format="2">
  <advance width="1024"/>
  <unicode hex="00B1"/>
  <outline>
    <contour>
      <point x="35.732022800619475" y="608.375" type="line"/>
      <point x="59.589063290474805" y="784.275" type="line"/>
      <point x="977.9890632904747" y="784.275" type="line"/>
      <point x="954.1320228006194" y="608.375" type="line"/>
    </contour>
    <contour>
      <point x="345.826500252952" y="255.0" type="line"/>
      <point x="478.494920538001" y="1163.5" type="line"/>
      <point x="671.094920538001" y="1163.5" type="line"/>
      <point x="538.426500252952" y="255.0" type="line"/>
    </contour>
    <contour>
      <point x="-51.95453024091552" y="1.0" type="line"/>
      <point x="-28.09748975106021" y="176.725" type="line"/>
      <point x="888.9025102489398" y="176.725" type="line"/>
      <point x="865.0454697590845" y="1.0" type="line"/>
    </contour>
  </outline>
</glyph>
<glyph name="twosuperior" format="2">
  <advance width="302"/>
  <unicode hex="00B2"/>
  <outline>
    <contour>
      <point x="36.678831359138535" y="699.475" type="line"/>
      <point x="36.96977087730751" y="720.025" type="line"/>
      <point x="210.01136800236984" y="1049.5" type="line" smooth="yes"/>
      <point x="248.4965999337061" y="1122.05"/>
      <point x="282.8457572876476" y="1215.175"/>
      <point x="296.3744448825046" y="1297.675" type="qcurve" smooth="yes"/>
      <point x="310.1940719955305" y="1384.45"/>
      <point x="285.4720901906702" y="1434.85"/>
      <point x="252.8720901906702" y="1434.85" type="qcurve" smooth="yes"/>
      <point x="215.9220901906702" y="1434.85"/>
      <point x="170.45531392285463" y="1373.65"/>
      <point x="149.53719885560452" y="1240.9" type="qcurve"/>
      <point x="114.3621988556045" y="1240.9" type="line"/>
      <point x="136.58954175461503" y="1390.875"/>
      <point x="201.7949087451771" y="1463.075"/>
      <point x="253.0449087451771" y="1463.075" type="qcurve" smooth="yes"/>
      <point x="301.2449087451771" y="1463.075"/>
      <point x="346.5350115136995" y="1396.95"/>
      <point x="332.42444488250453" y="1298.025" type="qcurve" smooth="yes"/>
      <point x="318.7502875285631" y="1206.475"/>
      <point x="273.5215999337061" y="1108.05"/>
      <point x="230.56589824328537" y="1032.05" type="qcurve" smooth="yes"/>
      <point x="83.5471196727299" y="731.15" type="line"/>
      <point x="258.6721196727299" y="731.15" type="line"/>
      <point x="257.6538313591386" y="699.475" type="line"/>
    </contour>
  </outline>
</glyph>
<glyph name="threesuperior" format="2">
  <advance width="385"/>
  <unicode hex="00B3"/>
  <outline>
    <contour>
      <point x="43.4867512321523" y="900.0" type="qcurve"/>
      <point x="144.4867512321523" y="900.0" type="line"/>
      <point x="133.66510696006816" y="823.0"/>
      <point x="151.2650851920912" y="749.0"/>
      <point x="182.2650851920912" y="749.0" type="qcurve" smooth="yes"/>
      <point x="215.2650851920912" y="749.0"/>
      <point x="255.94618862947294" y="825.0"/>
      <point x="267.18945540566426" y="905.0" type="qcurve" smooth="yes"/>
      <point x="277.58947717364117" y="979.0"/>
      <point x="243.86517226399906" y="1045.0"/>
      <point x="197.00571309870145" y="1046.0" type="qcurve" smooth="yes"/>
      <point x="159.00571309870145" y="1046.0" type="line"/>
      <point x="171.37330655251185" y="1134.0" type="line"/>
      <point x="209.37330655251185" y="1134.0" type="line" smooth="yes"/>
      <point x="247.37330655251185" y="1134.0"/>
      <point x="290.3841341305482" y="1191.0"/>
      <point x="299.37874755150125" y="1255.0" type="qcurve" smooth="yes"/>
      <point x="309.07606514596625" y="1324.0"/>
      <point x="295.7895968975145" y="1386.0"/>
      <point x="271.7895968975145" y="1386.0" type="qcurve" smooth="yes"/>
      <point x="243.7895968975145" y="1386.0"/>
      <point x="208.51390180715669" y="1320.0"/>
      <point x="198.11388003917972" y="1246.0" type="qcurve"/>
      <point x="107.11388003917972" y="1246.0" type="line"/>
      <point x="124.25986187287148" y="1368.0"/>
      <point x="208.57881285543215" y="1477.0"/>
      <point x="284.57881285543215" y="1477.0" type="qcurve" smooth="yes"/>
      <point x="359.57881285543215" y="1477.0"/>
      <point x="412.52472938519304" y="1377.0"/>
      <point x="396.7841558985251" y="1265.0" type="qcurve" smooth="yes"/>
      <point x="386.2435932958458" y="1190.0"/>
      <point x="338.4381631808449" y="1106.0"/>
      <point x="295.90842815620186" y="1088.0" type="qcurve"/>
      <point x="342.8165297927493" y="1066.0"/>
      <point x="375.167854669534" y="976.0"/>
      <point x="364.0651287280451" y="897.0" type="qcurve" smooth="yes"/>
      <point x="346.3569835555438" y="771.0"/>
      <point x="254.47586923417356" y="658.0"/>
      <point x="169.47586923417356" y="658.0" type="qcurve" smooth="yes"/>
      <point x="85.47586923417356" y="658.0"/>
      <point x="25.497524390246184" y="772.0"/>
    </contour>
  </outline>
</glyph>
<glyph name="acute" format="2">
  <advance width="319"/>
  <unicode hex="00B4"/>
  <outline>
    <contour>
      <point x="132.13536390279396" y="1007.475" type="line"/>
      <point x="249.83233391483031" y="1273.8" type="line"/>
      <point x="325.6663943966614" y="1254.825" type="line"/>
      <point x="199.96942438462494" y="987.8" type="line"/>
    </contour>
  </outline>
</glyph>
<glyph name="micro" format="2">
  <advance width="1218"/>
  <unicode hex="00B5"/>
  <outline>
    <contour>
      <point x="288.90918655687676" y="1076.15" type="line"/>
      <point x="488.7341865568768" y="1076.15" type="line"/>
      <point x="257.1442806203434" y="391.65" type="line" smooth="yes"/>
      <point x="213.2900909756985" y="263.55"/>
      <point x="288.03388723548983" y="152.8"/>
      <point x="393.78388723548983" y="152.8" type="qcurve" smooth="yes"/>
      <point x="484.1838872354898" y="152.8"/>
      <point x="653.1489841076002" y="250.375"/>
      <point x="718.0796857980209" y="327.6" type="qcurve"/>
      <point x="971.0091865568768" y="1076.15" type="line"/>
      <point x="1170.6591865568769" y="1076.15" type="line"/>
      <point x="810.3" y="6.825000000000003" type="line"/>
      <point x="629.0" y="6.825000000000003" type="line"/>
      <point x="666.9884174764053" y="144.1" type="line"/>
      <point x="660.8134174764053" y="144.1" type="line"/>
      <point x="578.1145948223225" y="70.875"/>
      <point x="384.69060481831036" y="-13.524999999999999"/>
      <point x="281.19060481831036" y="-13.524999999999999" type="qcurve" smooth="yes"/>
      <point x="236.41560481831036" y="-13.524999999999999"/>
      <point x="168.25704638626726" y="22.175000000000004"/>
      <point x="142.30972988154832" y="47.6" type="qcurve"/>
      <point x="-13.365419779145157" y="-416.0" type="line"/>
      <point x="-213.36541977914516" y="-416.0" type="line"/>
    </contour>
  </outline>
</glyph>
<glyph name="paragraph" format="2">
  <advance width="1321"/>
  <unicode hex="00B6"/>
  <guideline x="25.46825293511972" y="901.0" angle="0" identifier="27539Lsr1A"/>
  <guideline x="-24.8642837081116" y="555.0" angle="0" identifier="e34wUdCmXR"/>
  <outline>
    <contour>
      <point x="636.2614151736655" y="-146.0" type="line"/>
      <point x="436.9614151736654" y="-146.0" type="line"/>
      <point x="559.4469523228006" y="669.925" type="line"/>
      <point x="469.4719523228006" y="669.925" type="line" smooth="yes"/>
      <point x="267.8219523228006" y="669.925"/>
      <point x="83.06842028504903" y="893.275"/>
      <point x="106.92546077490437" y="1063.05" type="qcurve" smooth="yes"/>
      <point x="130.49156174659072" y="1230.475"/>
      <point x="378.37896922700816" y="1456.0"/>
      <point x="580.0289692270081" y="1456.0" type="qcurve" smooth="yes"/>
      <point x="869.3039692270081" y="1456.0" type="line"/>
    </contour>
    <contour>
      <point x="1011.7403785042616" y="1459.0" type="line"/>
      <point x="1211.5653785042616" y="1459.0" type="line"/>
      <point x="978.0864151736653" y="-146.0" type="line"/>
      <point x="778.2614151736655" y="-146.0" type="line"/>
    </contour>
  </outline>
</glyph>
<glyph name="periodcentered" format="2">
  <advance width="600"/>
  <unicode hex="00B7"/>
  <outline>
    <contour>
      <point x="179.3568495542782" y="749.0" type="qcurve" smooth="yes"/>
      <point x="186.4848677494179" y="798.0"/>
      <point x="260.66775088533177" y="868.0"/>
      <point x="320.66775088533177" y="868.0" type="qcurve" smooth="yes"/>
      <point x="380.6677508853317" y="868.0"/>
      <point x="434.4848677494179" y="798.0"/>
      <point x="427.3568495542782" y="749.0" type="qcurve" smooth="yes"/>
      <point x="420.2288313591385" y="700.0"/>
      <point x="346.0459482232247" y="630.0"/>
      <point x="286.0459482232247" y="630.0" type="qcurve" smooth="yes"/>
      <point x="226.04594822322466" y="630.0"/>
      <point x="172.22883135913852" y="700.0"/>
    </contour>
  </outline>
</glyph>
<glyph name="cedilla" format="2">
  <advance width="385"/>
  <unicode hex="00B8"/>
  <outline>
    <contour>
      <point x="53.3298649407742" y="24.675" type="line"/>
      <point x="89.25486494077416" y="24.675" type="line"/>
      <point x="72.3359072274655" y="-33.675" type="line"/>
      <point x="107.365437468381" y="-36.25"/>
      <point x="145.33758662317075" y="-80.55000000000001"/>
      <point x="139.51879625979132" y="-128.60000000000002" type="qcurve" smooth="yes"/>
      <point x="131.37248975106024" y="-190.72500000000002"/>
      <point x="55.07836468782227" y="-261.125"/>
      <point x="-16.671635312177784" y="-261.125" type="qcurve"/>
      <point x="-17.373816757670852" y="-231.325" type="line"/>
      <point x="21.576183242329137" y="-231.325"/>
      <point x="79.05436878739818" y="-177.10000000000002"/>
      <point x="86.47332650070678" y="-129.95" type="qcurve" smooth="yes"/>
      <point x="92.0011773459172" y="-93.875"/>
      <point x="66.16761891387415" y="-61.5"/>
      <point x="31.133558432043117" y="-59.150000000000006" type="qcurve"/>
    </contour>
  </outline>
</glyph>
<glyph name="onesuperior" format="2">
  <advance width="338"/>
  <unicode hex="00B9"/>
  <outline>
    <contour>
      <point x="127.5457513912356" y="1337.225" type="line"/>
      <point x="126.23450946391151" y="1371.65" type="line"/>
      <point x="297.55396922700817" y="1461.25" type="line"/>
      <point x="310.20396922700814" y="1461.25" type="line"/>
      <point x="192.9553434049144" y="657.0" type="line"/>
      <point x="159.65534340491436" y="657.0" type="line"/>
      <point x="275.88568091341676" y="1420.825" type="line"/>
    </contour>
  </outline>
</glyph>
<glyph name="ordmasculine" format="2">
  <advance width="932"/>
  <unicode hex="00BA"/>
  <guideline x="181.70277419185513" y="1975.0" angle="0" identifier="Jnt0R9CyOf"/>
  <outline>
    <contour>
      <point x="166.8499587251164" y="1043.0" type="qcurve"/>
      <point x="178.63300921095953" y="1124.0" type="line"/>
      <point x="201.03535210997" y="1278.0"/>
      <point x="417.4927893916629" y="1477.0"/>
      <point x="574.2588341677822" y="1477.0" type="qcurve" smooth="yes"/>
      <point x="732.4312222274838" y="1477.0"/>
      <point x="889.3712706821563" y="1277.7313432835822"/>
      <point x="867.0080092109596" y="1124.0" type="qcurve"/>
      <point x="855.2249587251164" y="1043.0" type="line"/>
      <point x="832.8616972539197" y="889.2686567164179"/>
      <point x="618.6856483034976" y="691.0"/>
      <point x="461.9196035273782" y="691.0" type="qcurve" smooth="yes"/>
      <point x="303.7472154676767" y="691.0"/>
      <point x="144.44761582610593" y="889.0"/>
    </contour>
    <contour>
      <point x="350.90800921095956" y="1124.0" type="qcurve"/>
      <point x="339.1249587251164" y="1043.0" type="line"/>
      <point x="325.8806970771261" y="957.380223880597"/>
      <point x="392.798855264002" y="837.0"/>
      <point x="482.1399000401214" y="837.0" type="qcurve" smooth="yes"/>
      <point x="568.1458701893752" y="837.0"/>
      <point x="670.8806970771261" y="957.380223880597"/>
      <point x="684.1249587251164" y="1043.0" type="qcurve"/>
      <point x="695.9080092109596" y="1124.0" type="line"/>
      <point x="708.8265922938353" y="1207.2059701492537"/>
      <point x="641.2461055995566" y="1329.0"/>
      <point x="553.7475981368701" y="1329.0" type="qcurve" smooth="yes"/>
      <point x="466.24909067418355" y="1329.0"/>
      <point x="363.82659229383535" y="1207.2059701492537"/>
    </contour>
  </outline>
</glyph>
<glyph name="guillemotright" format="2">
  <advance width="453"/>
  <unicode hex="00BB"/>
  <guideline x="-88.22699819916564" y="98.0" angle="0.0" identifier="MTEldNnfdj"/>
  <guideline x="-39.740410226840595" y="443.0" angle="0.0" identifier="G9bQni2n1K"/>
  <outline>
    <contour>
      <point x="-55.49725229053411" y="153.0" type="line"/>
      <point x="115.04880573107704" y="534.0" type="line"/>
      <point x="51.594863752688156" y="915.0" type="line"/>
      <point x="139.59486375268816" y="915.0" type="line"/>
      <point x="218.57854075572004" y="552.0" type="line"/>
      <point x="213.3785298717316" y="515.0" type="line"/>
      <point x="32.50274770946589" y="153.0" type="line"/>
    </contour>
    <contour>
      <point x="124.5027477094659" y="153.0" type="line"/>
      <point x="295.04880573107704" y="534.0" type="line"/>
      <point x="231.59486375268818" y="915.0" type="line"/>
      <point x="319.5948637526882" y="915.0" type="line"/>
      <point x="398.57854075572004" y="552.0" type="line"/>
      <point x="393.3785298717316" y="515.0" type="line"/>
      <point x="212.5027477094659" y="153.0" type="line"/>
    </contour>
  </outline>
</glyph>
<glyph name="questiondown" format="2">
  <advance width="993"/>
  <unicode hex="00BF"/>
  <guideline x="-131.93002639429153" y="-181.0" angle="0" identifier="apukwP5ffL"/>
  <guideline x="28.377648116809404" y="921.0" angle="0" identifier="5ZPZZL8Rim"/>
  <outline>
    <contour>
      <point x="713.1387167977923" y="1045.575" type="qcurve" smooth="yes"/>
      <point x="706.0106986026526" y="994.3"/>
      <point x="627.9778154667388" y="921.15"/>
      <point x="564.4778154667388" y="921.15" type="qcurve" smooth="yes"/>
      <point x="500.9778154667388" y="921.15"/>
      <point x="443.31069860265256" y="994.3"/>
      <point x="450.43871679779227" y="1045.575" type="qcurve" smooth="yes"/>
      <point x="457.56673499293197" y="1096.85"/>
      <point x="535.5996181288458" y="1170.0"/>
      <point x="599.0996181288458" y="1170.0" type="qcurve" smooth="yes"/>
      <point x="662.7746181288458" y="1170.0"/>
      <point x="720.266734992932" y="1096.85"/>
    </contour>
    <contour>
      <point x="838.1098972314776" y="51.425" type="line"/>
      <point x="835.2005020497879" y="31.775" type="line" smooth="yes"/>
      <point x="811.1979918008482" y="-132.175"/>
      <point x="554.4609190202893" y="-328.0"/>
      <point x="357.11091902028943" y="-328.0" type="qcurve" smooth="yes"/>
      <point x="159.76091902028938" y="-328.0"/>
      <point x="-32.49731060830699" y="-119.2"/>
      <point x="-7.767451563944775" y="54.825" type="qcurve" smooth="yes"/>
      <point x="11.725496153376028" y="187.25"/>
      <point x="201.88320604294861" y="402.6"/>
      <point x="281.09327062435557" y="460.825" type="qcurve" smooth="yes"/>
      <point x="377.8194420738608" y="535.025"/>
      <point x="435.3691014775903" y="659.75"/>
      <point x="445.5519846135041" y="728.875" type="qcurve" smooth="yes"/>
      <point x="447.00668220434886" y="738.875" type="line"/>
      <point x="645.7816822043488" y="738.875" type="line"/>
      <point x="644.3269846135041" y="728.875" type="line" smooth="yes"/>
      <point x="626.1432647279436" y="601.95"/>
      <point x="543.470619419778" y="462.15"/>
      <point x="431.1714620658365" y="367.625" type="qcurve" smooth="yes"/>
      <point x="336.5134115799934" y="287.675"/>
      <point x="205.90452434450359" y="152.55"/>
      <point x="191.3575484360552" y="54.825" type="qcurve" smooth="yes"/>
      <point x="176.81057252760687" y="-43.775"/>
      <point x="269.4520199919757" y="-153.925"/>
      <point x="380.8520199919757" y="-153.925" type="qcurve" smooth="yes"/>
      <point x="492.0770199919757" y="-153.925"/>
      <point x="623.430874936762" y="-56.925"/>
      <point x="637.2505020497879" y="31.775" type="qcurve" smooth="yes"/>
      <point x="640.1598972314777" y="51.425" type="line"/>
    </contour>
  </outline>
</glyph>
<glyph name="AE" format="2">
  <advance width="1966"/>
  <unicode hex="00C6"/>
  <outline>
    <contour>
      <point x="251.42582495682274" y="346.0" type="line"/>
      <point x="384.93303279660734" y="535.0" type="line"/>
      <point x="1022.6580327966074" y="535.0" type="line"/>
      <point x="997.2008249568227" y="346.0" type="line"/>
    </contour>
    <contour>
      <point x="-121.64999999999999" y="0.0" type="line"/>
      <point x="971.1539692270081" y="1456.0" type="line"/>
      <point x="1981.4039692270082" y="1456.0" type="line"/>
      <point x="1958.4197472916596" y="1287.675" type="line"/>
      <point x="1227.2697472916598" y="1287.675" type="line"/>
      <point x="1159.1899000401213" y="835.075" type="line"/>
      <point x="1799.3899000401213" y="835.075" type="line"/>
      <point x="1776.405678104773" y="666.75" type="line"/>
      <point x="1136.205678104773" y="666.75" type="line"/>
      <point x="1061.4342219353484" y="168.325" type="line"/>
      <point x="1802.5842219353485" y="168.325" type="line"/>
      <point x="1779.6" y="0.0" type="line"/>
      <point x="832.1" y="0.0" type="line"/>
      <point x="1012.1915617465907" y="1226.1" type="line"/>
      <point x="124.775" y="0.0" type="line"/>
    </contour>
  </outline>
</glyph>
<glyph name="multiply" format="2">
  <advance width="1024"/>
  <unicode hex="00D7"/>
  <outline>
    <contour>
      <point x="114.15133290302262" y="225.625" type="line"/>
      <point x="16.66894592048478" y="344.1" type="line"/>
      <point x="878.32361402927" y="1115.9" type="line"/>
      <point x="975.6605312527232" y="996.25" type="line"/>
    </contour>
    <contour>
      <point x="742.8013329030226" y="225.625" type="line"/>
      <point x="111.98536390279395" y="983.325" type="line"/>
      <point x="256.7236140292699" y="1115.9" type="line"/>
      <point x="887.3941132704141" y="357.025" type="line"/>
    </contour>
  </outline>
</glyph>
<glyph name="Thorn" format="2">
  <advance width="351"/>
  <unicode hex="00DE"/>
  <guideline x="24.62729206685468" y="901.0" angle="0.0" identifier="i9jYwjBDP4"/>
  <guideline x="-23.999836740172753" y="555.0" angle="0.0" identifier="T8KKW8oxop"/>
  <outline>
    <contour>
      <point x="148.6274553266819" y="1456.0" type="line"/>
      <point x="248.6274553266819" y="1456.0" type="line"/>
      <point x="208.15169493239318" y="1168.0" type="line"/>
      <point x="219.15169493239318" y="1168.0" type="line" smooth="yes"/>
      <point x="325.1516949323932" y="1168.0"/>
      <point x="378.24353887590337" y="1005.0"/>
      <point x="341.28129934917445" y="742.0" type="qcurve" smooth="yes"/>
      <point x="304.3190598224455" y="479.0"/>
      <point x="195.12982209655092" y="314.0"/>
      <point x="118.12982209655092" y="314.0" type="qcurve" smooth="yes"/>
      <point x="88.12982209655092" y="314.0" type="line"/>
      <point x="44.0" y="0.0" type="line"/>
      <point x="-56.0" y="0.0" type="line"/>
    </contour>
    <contour>
      <point x="218.23815229685647" y="1069.0" type="qcurve" smooth="yes"/>
      <point x="194.23815229685647" y="1069.0" type="line"/>
      <point x="102.04336473208767" y="413.0" type="line"/>
      <point x="126.04336473208767" y="413.0" type="line" smooth="yes"/>
      <point x="159.04336473208764" y="413.0"/>
      <point x="210.56771317768374" y="495.0"/>
      <point x="245.14075851447205" y="741.0" type="qcurve" smooth="yes"/>
      <point x="275.9192013142958" y="960.0"/>
      <point x="260.23815229685647" y="1069.0"/>
    </contour>
  </outline>
</glyph>
<glyph name="germandbls" format="2">
  <advance width="497"/>
  <unicode hex="00DF"/>
  <outline>
    <contour>
      <point x="184.47059149501143" y="1092.0" type="qcurve" name="hr00"/>
      <point x="31.0" y="0.0" type="line"/>
      <point x="-60.0" y="0.0" type="line"/>
      <point x="93.47059149501143" y="1092.0" type="line" smooth="yes"/>
      <point x="129.02742267471646" y="1345.0"/>
      <point x="239.58964043346845" y="1534.0"/>
      <point x="352.58964043346845" y="1534.0" type="qcurve" smooth="yes"/>
      <point x="454.5896404334685" y="1534.0"/>
      <point x="511.47608691394316" y="1398.0"/>
      <point x="485.7571141634056" y="1215.0" type="qcurve" smooth="yes"/>
      <point x="473.3895207095951" y="1127.0"/>
      <point x="415.400293867689" y="999.0"/>
      <point x="388.79487463667664" y="952.0" type="qcurve" smooth="yes"/>
      <point x="365.0327004138786" y="911.0"/>
      <point x="333.6488928029849" y="830.0"/>
      <point x="323.24887103500794" y="756.0" type="qcurve"/>
      <point x="315.51912512637637" y="701.0"/>
      <point x="329.1677458296492" y="606.0"/>
      <point x="353.40557160685114" y="565.0" type="qcurve" smooth="yes"/>
      <point x="384.9569073676244" y="512.0"/>
      <point x="426.32983298053944" y="351.0"/>
      <point x="410.3081778244667" y="237.0" type="qcurve" smooth="yes"/>
      <point x="389.36759345381046" y="88.0"/>
      <point x="307.5945916529761" y="-10.0"/>
      <point x="245.59459165297608" y="-10.0" type="qcurve" smooth="yes"/>
      <point x="183.59459165297608" y="-10.0"/>
      <point x="129.68110343738175" y="76.0"/>
      <point x="142.0486968911922" y="164.0" type="qcurve" smooth="yes"/>
      <point x="159.33521955958633" y="287.0" type="line"/>
      <point x="249.33521955958633" y="287.0" type="line"/>
      <point x="234.43789108113288" y="181.0" type="line" smooth="yes"/>
      <point x="225.0216551560726" y="114.0"/>
      <point x="243.3838076108937" y="81.0"/>
      <point x="258.3838076108937" y="81.0" type="qcurve" smooth="yes"/>
      <point x="278.3838076108937" y="81.0"/>
      <point x="301.162195990775" y="115.0"/>
      <point x="316.90276947744286" y="227.0" type="qcurve" smooth="yes"/>
      <point x="328.28657708833657" y="308.0"/>
      <point x="309.8379672690522" y="440.0"/>
      <point x="279.8650090041718" y="490.0" type="qcurve" smooth="yes"/>
      <point x="243.00016325982722" y="555.0"/>
      <point x="219.27047177113815" y="685.0"/>
      <point x="229.24887103500794" y="756.0" type="qcurve"/>
      <point x="241.05430115000877" y="840.0"/>
      <point x="297.05974214899817" y="961.0"/>
      <point x="322.24353887590337" y="1005.0" type="qcurve" smooth="yes"/>
      <point x="346.14625393340384" y="1047.0"/>
      <point x="384.48141907304773" y="1149.0"/>
      <point x="392.2111649816793" y="1204.0" type="qcurve" smooth="yes"/>
      <point x="411.04363683179974" y="1338.0"/>
      <point x="388.09772030203885" y="1438.0"/>
      <point x="339.09772030203885" y="1438.0" type="qcurve" smooth="yes"/>
      <point x="278.09772030203885" y="1438.0"/>
      <point x="212.29767676608492" y="1290.0"/>
    </contour>
  </outline>
</glyph>
<glyph name="ae" format="2">
  <advance width="1801"/>
  <unicode hex="00E6"/>
  <outline>
    <contour>
      <point x="236.02532290703473" y="330.325" type="qcurve" smooth="yes"/>
      <point x="222.93304458943123" y="239.975"/>
      <point x="311.57012916281394" y="135.525"/>
      <point x="423.4951291628139" y="135.525" type="qcurve" smooth="yes"/>
      <point x="534.0201291628139" y="135.525"/>
      <point x="734.3065325436554" y="288.925"/>
      <point x="746.6714620658365" y="372.875" type="qcurve"/>
      <point x="768.6373956875935" y="525.975" type="line"/>
      <point x="547.6623956875935" y="525.975" type="line" smooth="yes"/>
      <point x="409.06239568759355" y="525.975"/>
      <point x="249.11760122463832" y="419.975"/>
    </contour>
    <contour>
      <point x="33.290927725345085" y="307.35" type="qcurve" smooth="yes"/>
      <point x="58.0207867697073" y="483.825"/>
      <point x="346.4894038867453" y="665.15"/>
      <point x="546.6894038867454" y="665.15" type="qcurve" smooth="yes"/>
      <point x="787.8394038867453" y="665.15" type="line"/>
      <point x="798.3132265408282" y="733.125" type="line" smooth="yes"/>
      <point x="812.1328536538542" y="828.65"/>
      <point x="733.5437549849077" y="951.325"/>
      <point x="610.3937549849077" y="951.325" type="qcurve" smooth="yes"/>
      <point x="488.6437549849077" y="951.325"/>
      <point x="373.8672488355438" y="849.35"/>
      <point x="364.4117144950524" y="786.975" type="qcurve" smooth="yes"/>
      <point x="363.68436569962995" y="785.3" type="line"/>
      <point x="165.20936569962996" y="785.3" type="line"/>
      <point x="165.9367144950524" y="784.7" type="line" smooth="yes"/>
      <point x="184.12043438061283" y="913.375"/>
      <point x="441.8482793294113" y="1107.9"/>
      <point x="637.6232793294113" y="1107.9" type="qcurve" smooth="yes"/>
      <point x="810.3732793294113" y="1107.9"/>
      <point x="966.350801371175" y="965.45"/>
      <point x="961.8246299216697" y="887.925" type="qcurve"/>
      <point x="987.9212711302594" y="966.975"/>
      <point x="1177.3982793294113" y="1107.9"/>
      <point x="1332.1482793294113" y="1107.9" type="qcurve" smooth="yes"/>
      <point x="1554.1482793294113" y="1107.9"/>
      <point x="1753.5258072675867" y="817.325"/>
      <point x="1718.6130650873108" y="572.775" type="qcurve" smooth="yes"/>
      <point x="1707.5573633968902" y="491.0" type="line"/>
      <point x="877.0323633968901" y="491.0" type="line"/>
      <point x="898.5618877413937" y="648.275" type="line"/>
      <point x="1527.0868877413936" y="648.275" type="line"/>
      <point x="1531.7531619594213" y="675.775" type="line"/>
      <point x="1547.1617144950524" y="789.95"/>
      <point x="1438.6368759485697" y="946.625"/>
      <point x="1306.5118759485697" y="946.625" type="qcurve" smooth="yes"/>
      <point x="1169.6868759485697" y="946.625"/>
      <point x="990.2561801545609" y="716.55"/>
      <point x="966.5446094237902" y="553.9" type="qcurve" smooth="yes"/>
      <point x="961.8895771330866" y="521.9" type="line" smooth="yes"/>
      <point x="938.1780064023158" y="359.25"/>
      <point x="1059.972310608307" y="129.7"/>
      <point x="1225.6473106083072" y="129.7" type="qcurve" smooth="yes"/>
      <point x="1326.347310608307" y="129.7"/>
      <point x="1485.2486494077416" y="219.8"/>
      <point x="1540.3768349528107" y="279.45" type="qcurve"/>
      <point x="1654.6072078397847" y="180.425" type="line"/>
      <point x="1591.4219759084485" y="103.15"/>
      <point x="1356.3359072274654" y="-31.75"/>
      <point x="1203.1859072274656" y="-31.75" type="qcurve" smooth="yes"/>
      <point x="1054.5609072274656" y="-31.75"/>
      <point x="831.4422783176035" y="88.075"/>
      <point x="792.535058684995" y="215.625" type="qcurve"/>
      <point x="737.5765061493639" y="100.4"/>
      <point x="515.5406048183103" y="-21.225"/>
      <point x="358.1156048183103" y="-21.225" type="qcurve" smooth="yes"/>
      <point x="205.84060481831034" y="-21.225"/>
      <point x="11.470463862672545" y="154.2"/>
    </contour>
  </outline>
</glyph>
<glyph name="eth" format="2">
  <advance width="1146"/>
  <unicode hex="00F0"/>
  <outline>
    <contour>
      <point x="319.8375276590512" y="1428.525" type="qcurve"/>
      <point x="405.01268911256864" y="1601.475" type="line"/>
      <point x="739.8524571812322" y="1525.425"/>
      <point x="1097.8585171571594" y="1038.975"/>
      <point x="1043.307357500478" y="651.725" type="qcurve"/>
      <point x="1029.0513211101986" y="550.925" type="line"/>
      <point x="993.2657603754158" y="297.225"/>
      <point x="675.3156048183102" y="-20.0"/>
      <point x="468.9406048183103" y="-20.0" type="qcurve" smooth="yes"/>
      <point x="253.51560481831035" y="-20.0"/>
      <point x="23.024486157388168" y="274.625"/>
      <point x="52.554847251538334" y="482.0" type="qcurve" smooth="yes"/>
      <point x="86.01289184096956" y="719.7"/>
      <point x="386.99442438462495" y="1006.525"/>
      <point x="583.319424384625" y="1006.525" type="qcurve" smooth="yes"/>
      <point x="756.344424384625" y="1006.525"/>
      <point x="954.5863797951937" y="768.825"/>
      <point x="934.9479623187885" y="631.025" type="qcurve"/>
      <point x="862.5934320778729" y="632.025" type="line"/>
      <point x="872.1944361774489" y="695.4"/>
      <point x="757.3080210037834" y="844.9"/>
      <point x="610.4580210037835" y="844.9" type="qcurve" smooth="yes"/>
      <point x="462.0080210037835" y="844.9"/>
      <point x="275.71188774139364" y="649.5"/>
      <point x="251.85484725153833" y="482.0" type="qcurve" smooth="yes"/>
      <point x="233.96206688414685" y="361.275"/>
      <point x="352.65200819915185" y="141.625"/>
      <point x="495.0520081991518" y="141.625" type="qcurve" smooth="yes"/>
      <point x="623.2270081991519" y="141.625"/>
      <point x="804.2055225476676" y="376.825"/>
      <point x="829.2263211101987" y="550.925" type="qcurve" smooth="yes"/>
      <point x="843.7732970186471" y="653.725" type="line" smooth="yes"/>
      <point x="894.5422429391319" y="1011.125"/>
      <point x="569.3115235594753" y="1362.0"/>
    </contour>
    <contour>
      <point x="1066.635346213558" y="1441.875" type="line"/>
      <point x="463.7934143886371" y="1071.15" type="line"/>
      <point x="392.99978547877515" y="1197.8" type="line"/>
      <point x="995.6962475446117" y="1567.525" type="line"/>
    </contour>
  </outline>
</glyph>
<glyph name="divide" format="2">
  <advance width="998"/>
  <unicode hex="00F7"/>
  <outline>
    <contour>
      <point x="415.20029342497503" y="1072.0" type="qcurve" smooth="yes"/>
      <point x="422.91019065645264" y="1127.975"/>
      <point x="499.7680737923665" y="1201.825"/>
      <point x="565.4430737923665" y="1201.825" type="qcurve" smooth="yes"/>
      <point x="629.9430737923665" y="1201.825"/>
      <point x="688.6101906564527" y="1127.975"/>
      <point x="680.9002934249751" y="1072.0" type="qcurve" smooth="yes"/>
      <point x="673.4813357116664" y="1018.025"/>
      <point x="594.593922334837" y="945.175"/>
      <point x="530.093922334837" y="945.175" type="qcurve" smooth="yes"/>
      <point x="464.418922334837" y="945.175"/>
      <point x="407.78133571166643" y="1018.025"/>
    </contour>
    <contour>
      <point x="302.1702906163313" y="282.4" type="qcurve" smooth="yes"/>
      <point x="309.73471808872443" y="337.2"/>
      <point x="386.7380709837227" y="412.225"/>
      <point x="452.4130709837227" y="412.225" type="qcurve" smooth="yes"/>
      <point x="516.9130709837227" y="412.225"/>
      <point x="575.4347180887244" y="337.2"/>
      <point x="567.8702906163312" y="282.4" type="qcurve" smooth="yes"/>
      <point x="560.4513329030226" y="228.425"/>
      <point x="481.4184497671087" y="154.4"/>
      <point x="416.9184497671087" y="154.4" type="qcurve" smooth="yes"/>
      <point x="351.24344976710876" y="154.4"/>
      <point x="294.7513329030226" y="228.425"/>
    </contour>
    <contour>
      <point x="19.961218341676357" y="581.35" type="line"/>
      <point x="46.1457749768834" y="776.05" type="line"/>
      <point x="964.5457749768834" y="776.05" type="line"/>
      <point x="938.3612183416765" y="581.35" type="line"/>
    </contour>
  </outline>
</glyph>
<glyph name="thorn" format="2">
  <advance width="1211"/>
  <unicode hex="00FE"/>
  <outline>
    <contour>
      <point x="-12.865419779145157" y="-411.1" type="line"/>
      <point x="271.09154995376684" y="1536.0" type="line"/>
      <point x="471.7915499537668" y="1536.0" type="line"/>
      <point x="383.3459364304008" y="953.55" type="line"/>
      <point x="440.20147077089223" y="1018.725"/>
      <point x="605.4685817385664" y="1096.15"/>
      <point x="717.3935817385664" y="1096.15" type="qcurve" smooth="yes"/>
      <point x="922.2935817385664" y="1096.15"/>
      <point x="1127.4026540132213" y="786.525"/>
      <point x="1093.94460942379" y="553.025" type="qcurve" smooth="yes"/>
      <point x="1089.2895771330866" y="521.025" type="line" smooth="yes"/>
      <point x="1055.8315325436554" y="288.225"/>
      <point x="763.4406048183102" y="-20.0"/>
      <point x="558.5406048183103" y="-20.0" type="qcurve" smooth="yes"/>
      <point x="446.79060481831027" y="-20.0"/>
      <point x="307.4667762678156" y="57.0"/>
      <point x="276.8949618128846" y="116.475" type="qcurve"/>
      <point x="272.7199618128846" y="116.475" type="line"/>
      <point x="185.78458022085485" y="-411.1" type="line"/>
    </contour>
    <contour>
      <point x="292.8615648343589" y="322.5" type="line"/>
      <point x="313.6786816984451" y="252.325"/>
      <point x="438.3770081991519" y="141.45"/>
      <point x="538.7270081991519" y="141.45" type="qcurve" smooth="yes"/>
      <point x="689.6020081991519" y="141.45"/>
      <point x="862.0144156795693" y="361.025"/>
      <point x="885.2895771330866" y="520.85" type="qcurve" smooth="yes"/>
      <point x="889.9446094237901" y="553.025" type="line" smooth="yes"/>
      <point x="913.2197708773075" y="713.025"/>
      <point x="804.2321783577249" y="934.875"/>
      <point x="653.3571783577249" y="934.875" type="qcurve" smooth="yes"/>
      <point x="552.832178357725" y="934.875"/>
      <point x="396.30550485843173" y="823.825"/>
      <point x="355.1226217225179" y="753.475" type="qcurve"/>
    </contour>
  </outline>
</glyph>
<glyph name="kgreenlandic" format="2">
  <advance width="328"/>
  <unicode hex="0138"/>
  <outline>
    <contour>
      <point x="158.4543229179858" y="914.0" type="line"/>
      <point x="30.0" y="0.0" type="line"/>
      <point x="-62.0" y="0.0" type="line"/>
      <point x="66.45432291798576" y="914.0" type="line"/>
    </contour>
    <contour>
      <point x="340.4543229179858" y="914.0" type="line"/>
      <point x="169.886609740302" y="419.0" type="line"/>
      <point x="48.88660974030199" y="419.0" type="line"/>
      <point x="61.95690736762441" y="512.0" type="line"/>
      <point x="114.95690736762441" y="512.0" type="line"/>
      <point x="249.4543229179858" y="914.0" type="line"/>
    </contour>
    <contour>
      <point x="134.0" y="0.0" type="line"/>
      <point x="105.2595897731594" y="443.0" type="line"/>
      <point x="183.09206162327985" y="577.0" type="line"/>
      <point x="226.0" y="0.0" type="line"/>
    </contour>
  </outline>
</glyph>
<glyph name="OE" format="2">
  <advance width="1930"/>
  <unicode hex="0152"/>
  <outline>
    <contour>
      <point x="827.3338341677822" y="1477.0" type="qcurve" smooth="yes"/>
      <point x="860.3338341677822" y="1477.0"/>
      <point x="1009.4427272996841" y="1464.0"/>
      <point x="1075.278969227008" y="1456.0" type="qcurve"/>
      <point x="1945.353969227008" y="1456.0" type="line"/>
      <point x="1922.3697472916597" y="1287.675" type="line"/>
      <point x="1181.8197472916597" y="1287.675" type="line"/>
      <point x="1113.7399000401213" y="835.075" type="line"/>
      <point x="1763.3399000401214" y="835.075" type="line"/>
      <point x="1740.5011478638576" y="667.925" type="line"/>
      <point x="1090.9011478638574" y="667.925" type="line"/>
      <point x="1015.838752176264" y="167.15" type="line"/>
      <point x="1766.388752176264" y="167.15" type="line"/>
      <point x="1743.55" y="0.0" type="line"/>
      <point x="863.475" y="0.0" type="line"/>
      <point x="795.4567116864087" y="-7.0"/>
      <point x="644.4201350592259" y="-21.0"/>
      <point x="568.4201350592259" y="-21.0" type="qcurve" smooth="yes"/>
      <point x="354.42013505922586" y="-21.0"/>
      <point x="63.93471808872444" y="340.0"/>
      <point x="113.68537569561781" y="682.0" type="qcurve" smooth="yes"/>
      <point x="126.77765401322135" y="772.0" type="line" smooth="yes"/>
      <point x="175.2190837883544" y="1105.0"/>
      <point x="569.3338341677822" y="1477.0"/>
    </contour>
    <contour>
      <point x="323.2103756956178" y="682.0" type="line" smooth="yes"/>
      <point x="284.80635929731415" y="417.825"/>
      <point x="468.27012916281393" y="136.575"/>
      <point x="633.0951291628139" y="136.575" type="qcurve" smooth="yes"/>
      <point x="686.0951291628139" y="136.575"/>
      <point x="767.4043569945742" y="145.575"/>
      <point x="806.2771755490812" y="151.575" type="qcurve"/>
      <point x="976.0403844006735" y="1300.9" type="line"/>
      <point x="925.058672714265" y="1307.9"/>
      <point x="831.2224307869408" y="1315.9"/>
      <point x="809.2224307869408" y="1315.9" type="qcurve" smooth="yes"/>
      <point x="638.6974307869408" y="1315.9"/>
      <point x="373.83385185701815" y="1028.775"/>
      <point x="336.59359353139035" y="774.0" type="qcurve" smooth="yes"/>
    </contour>
  </outline>
</glyph>
<glyph name="oe" format="2">
  <advance width="1915"/>
  <unicode hex="0153"/>
  <outline>
    <contour>
      <point x="267.3196094237901" y="554.075" type="qcurve" smooth="yes"/>
      <point x="262.66457713308665" y="521.9" type="line" smooth="yes"/>
      <point x="238.95300640231582" y="358.375"/>
      <point x="360.572310608307" y="129.7"/>
      <point x="513.7973106083069" y="129.7" type="qcurve" smooth="yes"/>
      <point x="666.6723106083069" y="129.7"/>
      <point x="853.6075366432314" y="357.2"/>
      <point x="877.4645771330867" y="521.725" type="qcurve" smooth="yes"/>
      <point x="882.1196094237902" y="554.075" type="line" smooth="yes"/>
      <point x="905.9766499136455" y="718.6"/>
      <point x="784.2118759485697" y="946.625"/>
      <point x="631.3368759485697" y="946.625" type="qcurve" smooth="yes"/>
      <point x="478.1118759485697" y="946.625"/>
      <point x="291.03118015456096" y="717.425"/>
    </contour>
    <contour>
      <point x="1025.901811367163" y="890.675" type="qcurve"/>
      <point x="1049.7299969122319" y="944.025"/>
      <point x="1294.7732793294113" y="1107.9"/>
      <point x="1484.1482793294113" y="1107.9" type="qcurve" smooth="yes"/>
      <point x="1673.2482793294114" y="1107.9"/>
      <point x="1872.6258072675869" y="817.325"/>
      <point x="1837.7130650873107" y="572.775" type="qcurve" smooth="yes"/>
      <point x="1826.65736339689" y="491.0" type="line"/>
      <point x="996.1323633968902" y="491.0" type="line"/>
      <point x="1017.6618877413937" y="648.275" type="line"/>
      <point x="1646.1868877413938" y="648.275" type="line"/>
      <point x="1650.8531619594214" y="675.775" type="line"/>
      <point x="1666.2617144950523" y="789.95"/>
      <point x="1557.7368759485698" y="946.625"/>
      <point x="1438.5368759485698" y="946.625" type="qcurve" smooth="yes"/>
      <point x="1288.7868759485698" y="946.625"/>
      <point x="1109.5016499136455" y="717.725"/>
      <point x="1085.6446094237901" y="553.9" type="qcurve" smooth="yes"/>
      <point x="1080.9895771330866" y="521.9" type="line" smooth="yes"/>
      <point x="1057.1325366432313" y="358.075"/>
      <point x="1167.3223106083071" y="129.7"/>
      <point x="1332.997310608307" y="129.7" type="qcurve" smooth="yes"/>
      <point x="1433.6973106083071" y="129.7"/>
      <point x="1604.3486494077415" y="219.8"/>
      <point x="1659.4768349528106" y="279.45" type="qcurve"/>
      <point x="1773.7072078397846" y="180.425" type="line"/>
      <point x="1710.5219759084484" y="103.15"/>
      <point x="1475.4359072274656" y="-31.75"/>
      <point x="1346.9609072274654" y="-31.75" type="qcurve" smooth="yes"/>
      <point x="1137.1859072274656" y="-31.75"/>
      <point x="945.4766734992932" y="113.675"/>
      <point x="929.3619054306296" y="184.65" type="qcurve"/>
      <point x="891.9221432583777" y="114.675"/>
      <point x="664.2109072274654" y="-31.75"/>
      <point x="456.2609072274655" y="-31.75" type="qcurve" smooth="yes"/>
      <point x="258.5109072274655" y="-31.75"/>
      <point x="24.042774470979552" y="278.825"/>
      <point x="58.66457713308664" y="521.9" type="qcurve" smooth="yes"/>
      <point x="63.31960942379012" y="553.9" type="line" smooth="yes"/>
      <point x="97.94141208589721" y="797.325"/>
      <point x="418.7778095703268" y="1106.725"/>
      <point x="639.0278095703268" y="1106.725" type="qcurve" smooth="yes"/>
      <point x="836.4028095703268" y="1106.725"/>
      <point x="1018.8026481168095" y="938.15"/>
    </contour>
  </outline>
</glyph>
<glyph name="Schwa" format="2">
  <advance width="389"/>
  <unicode hex="018F"/>
  <outline>
    <contour>
      <point x="82.25980745292907" y="1183.0" type="line"/>
      <point x="132.4652593359069" y="1341.0"/>
      <point x="226.0490778307891" y="1459.0"/>
      <point x="299.0490778307891" y="1459.0" type="qcurve" smooth="yes"/>
      <point x="401.0490778307891" y="1459.0"/>
      <point x="418.42739002275107" y="1234.0"/>
      <point x="355.8867185801868" y="789.0" type="qcurve" smooth="yes"/>
      <point x="274.2324936180974" y="208.0"/>
      <point x="193.78377495892823" y="-30.0"/>
      <point x="79.78377495892826" y="-30.0" type="qcurve" smooth="yes"/>
      <point x="-10.216225041071738" y="-30.0"/>
      <point x="-39.34049729874846" y="147.0"/>
      <point x="21.23260245798224" y="578.0" type="qcurve" smooth="yes"/>
      <point x="36.41101260584051" y="686.0" type="line"/>
      <point x="282.4110126058405" y="686.0" type="line"/>
      <point x="266.67043911917267" y="574.0" type="line"/>
      <point x="176.7947657967918" y="582.0" type="line"/>
      <point x="120.95152078857745" y="576.0" type="line"/>
      <point x="107.60014149185028" y="481.0" type="line" smooth="yes"/>
      <point x="66.2811360893472" y="187.0"/>
      <point x="64.41623592506022" y="67.0"/>
      <point x="101.41623592506022" y="67.0" type="qcurve" smooth="yes"/>
      <point x="142.41623592506022" y="67.0"/>
      <point x="185.2433211961337" y="265.0"/>
      <point x="250.2650851920912" y="749.0" type="qcurve" smooth="yes"/>
      <point x="304.4652049159645" y="1156.0"/>
      <point x="316.41661686465716" y="1362.0"/>
      <point x="278.41661686465716" y="1362.0" type="qcurve" smooth="yes"/>
      <point x="251.41661686465716" y="1362.0"/>
      <point x="206.31389092316817" y="1283.0"/>
      <point x="153.24897987489274" y="1126.0" type="qcurve"/>
    </contour>
  </outline>
</glyph>
<glyph name="florin" format="2">
  <advance width="1040"/>
  <unicode hex="0192"/>
  <outline>
    <contour>
      <point x="924.4793275125146" y="885.675" type="line"/>
      <point x="903.8226217225179" y="735.975" type="line"/>
      <point x="571.7476217225179" y="735.975" type="line"/>
      <point x="480.24714325837766" y="111.0" type="line" smooth="yes"/>
      <point x="438.93373167838433" y="-176.5"/>
      <point x="191.02971528008067" y="-437.0"/>
      <point x="-67.92028471991932" y="-437.0" type="qcurve" smooth="yes"/>
      <point x="-98.92028471991932" y="-437.0"/>
      <point x="-150.90199640632795" y="-430.0"/>
      <point x="-177.4472988154831" y="-420.0" type="qcurve"/>
      <point x="-141.77230471189506" y="-261.2" type="line"/>
      <point x="-127.64512326640192" y="-267.2"/>
      <point x="-59.66341157999332" y="-274.2"/>
      <point x="-45.66341157999332" y="-274.2" type="qcurve" smooth="yes"/>
      <point x="75.33658842000668" y="-274.2"/>
      <point x="247.702689391693" y="-122.0"/>
      <point x="281.5971432583777" y="111.0" type="qcurve" smooth="yes"/>
      <point x="373.0976217225179" y="735.975" type="line"/>
      <point x="119.1476217225179" y="735.975" type="line"/>
      <point x="139.80432751251453" y="885.675" type="line"/>
      <point x="393.7543275125146" y="885.675" type="line"/>
      <point x="429.24894872912853" y="1126.7" type="line" smooth="yes"/>
      <point x="454.7061565689132" y="1301.7"/>
      <point x="667.488531758627" y="1488.575"/>
      <point x="828.5135317586271" y="1488.575" type="qcurve" smooth="yes"/>
      <point x="920.2885317586271" y="1488.575"/>
      <point x="1048.0536345271496" y="1431.025"/>
      <point x="1081.939541754615" y="1401.025" type="qcurve"/>
      <point x="974.0714266873649" y="1245.525" type="line"/>
      <point x="938.0059892189838" y="1277.925"/>
      <point x="855.5700819915184" y="1309.5"/>
      <point x="808.3950819915184" y="1309.5" type="qcurve" smooth="yes"/>
      <point x="741.5450819915184" y="1309.5"/>
      <point x="642.1549851194079" y="1217.525"/>
      <point x="627.8989487291285" y="1126.7" type="qcurve" smooth="yes"/>
      <point x="592.4043275125146" y="885.675" type="line"/>
    </contour>
  </outline>
</glyph>
<glyph name="schwa" format="2">
  <advance width="1097"/>
  <unicode hex="0259"/>
  <outline>
    <contour>
      <point x="980.4446094237902" y="554.25" type="qcurve" smooth="yes"/>
      <point x="975.7895771330866" y="522.25" type="line" smooth="yes"/>
      <point x="941.1677744709796" y="278.825"/>
      <point x="627.6609072274655" y="-31.75"/>
      <point x="405.48590722746553" y="-31.75" type="qcurve" smooth="yes"/>
      <point x="183.4859072274655" y="-31.75"/>
      <point x="-15.891620710710129" y="258.825"/>
      <point x="19.021121469565948" y="503.375" type="qcurve" smooth="yes"/>
      <point x="30.07682315998668" y="585.15" type="line"/>
      <point x="860.6018231599867" y="585.15" type="line"/>
      <point x="839.0722988154831" y="427.875" type="line"/>
      <point x="210.54729881548312" y="427.875" type="line"/>
      <point x="205.8810245974555" y="400.375" type="line"/>
      <point x="190.4724720618244" y="286.2"/>
      <point x="298.997310608307" y="129.525"/>
      <point x="418.19731060830696" y="129.525" type="qcurve" smooth="yes"/>
      <point x="567.9473106083069" y="129.525"/>
      <point x="747.3780064023158" y="359.6"/>
      <point x="771.0895771330867" y="522.25" type="qcurve" smooth="yes"/>
      <point x="775.7446094237902" y="554.25" type="line" smooth="yes"/>
      <point x="799.4561801545609" y="716.9"/>
      <point x="677.6618759485698" y="946.45"/>
      <point x="511.9868759485697" y="946.45" type="qcurve" smooth="yes"/>
      <point x="411.28687594856973" y="946.45"/>
      <point x="252.3855371491352" y="856.35"/>
      <point x="197.25735160406617" y="796.7" type="qcurve"/>
      <point x="83.02697871709213" y="895.725" type="line"/>
      <point x="146.21221064842837" y="973.0"/>
      <point x="381.29827932941123" y="1107.9"/>
      <point x="534.4482793294113" y="1107.9" type="qcurve" smooth="yes"/>
      <point x="788.8982793294113" y="1107.9"/>
      <point x="1015.0664120858972" y="796.975"/>
    </contour>
  </outline>
</glyph>
<glyph name="primemod" format="2">
  <advance width="301"/>
  <unicode hex="02B9"/>
  <outline>
    <contour>
      <point x="230.2815170289441" y="1482.0" type="line"/>
      <point x="349.2815170289441" y="1482.0" type="line"/>
      <point x="181.27596719006988" y="991.0" type="line"/>
      <point x="109.97867136358187" y="996.0" type="line"/>
    </contour>
  </outline>
</glyph>
<glyph name="doubleprimemod" format="2">
  <advance width="491"/>
  <unicode hex="02BA"/>
  <outline>
    <contour>
      <point x="230.2815170289441" y="1482.0" type="line"/>
      <point x="349.2815170289441" y="1482.0" type="line"/>
      <point x="181.27596719006988" y="991.0" type="line"/>
      <point x="109.97867136358187" y="996.0" type="line"/>
    </contour>
    <contour>
      <point x="420.2815170289441" y="1482.0" type="line"/>
      <point x="539.2815170289441" y="1482.0" type="line"/>
      <point x="371.2759671900699" y="991.0" type="line"/>
      <point x="299.97867136358184" y="996.0" type="line"/>
    </contour>
  </outline>
</glyph>
<glyph name="apostrophemod" format="2">
  <advance width="600"/>
  <unicode hex="02BC"/>
  <outline>
    <contour>
      <point x="203.8888841477216" y="1046.25" type="line"/>
      <point x="250.1779769202561" y="1077.3"/>
      <point x="376.5934084922252" y="1199.15"/>
      <point x="402.0398823508855" y="1268.25" type="qcurve"/>
      <point x="327.53988235088553" y="1268.25"/>
      <point x="254.42511428222184" y="1345.7"/>
      <point x="263.0078300682064" y="1406.625" type="qcurve" smooth="yes"/>
      <point x="271.4450760951064" y="1466.55"/>
      <point x="367.6712475446117" y="1546.0"/>
      <point x="433.82124754461165" y="1546.0" type="qcurve" smooth="yes"/>
      <point x="495.7962475446117" y="1546.0"/>
      <point x="582.7311506725013" y="1446.85"/>
      <point x="571.529979222996" y="1367.4" type="qcurve" smooth="yes"/>
      <point x="553.782668614689" y="1241.375"/>
      <point x="359.38435390680604" y="1047.25"/>
      <point x="241.8608659525819" y="995.675" type="qcurve"/>
    </contour>
  </outline>
</glyph>
<glyph name="circumflex" format="2">
  <advance width="500"/>
  <unicode hex="02C6"/>
  <outline>
    <contour>
      <point x="346.0435824118573" y="1153.0" type="line"/>
      <point x="419.2002829837006" y="962.0" type="line"/>
      <point x="326.20028298370056" y="962.0" type="line"/>
      <point x="292.2543664539397" y="1062.0" type="line"/>
      <point x="231.20028298370056" y="962.0" type="line"/>
      <point x="139.20028298370056" y="962.0" type="line"/>
      <point x="264.0435824118573" y="1153.0" type="line"/>
    </contour>
  </outline>
</glyph>
<glyph name="caron" format="2">
  <advance width="385"/>
  <unicode hex="02C7"/>
  <outline>
    <contour>
      <point x="203.43989414370947" y="979.0" type="line"/>
      <point x="158.13434801039415" y="1244.725" type="line"/>
      <point x="215.93434801039416" y="1244.725" type="line"/>
      <point x="219.9877126982164" y="1043.8" type="line"/>
      <point x="296.68434801039416" y="1244.725" type="line"/>
      <point x="353.95934801039414" y="1244.725" type="line"/>
      <point x="234.96489414370944" y="979.0" type="line"/>
    </contour>
  </outline>
</glyph>
<glyph name="breve" format="2">
  <advance width="500"/>
  <unicode hex="02D8"/>
  <outline>
    <contour>
      <point x="388.9678982054879" y="1124.0" type="qcurve"/>
      <point x="436.89221399911867" y="1095.0" type="line"/>
      <point x="415.7570597434632" y="1030.0"/>
      <point x="330.0759563060814" y="954.0"/>
      <point x="278.0759563060814" y="954.0" type="qcurve" smooth="yes"/>
      <point x="226.07595630608142" y="954.0"/>
      <point x="163.77327390054643" y="1023.0"/>
      <point x="159.3138365032258" y="1098.0" type="qcurve"/>
      <point x="218.2489798748927" y="1126.0" type="line"/>
      <point x="227.4868056520947" y="1085.0"/>
      <point x="258.3030089251895" y="1041.0"/>
      <point x="291.3030089251895" y="1041.0" type="qcurve" smooth="yes"/>
      <point x="323.3030089251895" y="1041.0"/>
      <point x="367.4868056520947" y="1085.0"/>
    </contour>
  </outline>
</glyph>
<glyph name="dotaccent" format="2">
  <advance width="385"/>
  <unicode hex="02D9"/>
  <outline>
    <contour>
      <point x="181.0766381208215" y="1032.0" type="qcurve" smooth="yes"/>
      <point x="182.3858659525819" y="1053.425"/>
      <point x="212.47244257976465" y="1084.225"/>
      <point x="238.17244257976466" y="1084.225" type="qcurve" smooth="yes"/>
      <point x="263.69744257976464" y="1084.225"/>
      <point x="289.8858659525819" y="1053.425"/>
      <point x="288.57663812082154" y="1032.0" type="qcurve" smooth="yes"/>
      <point x="287.2674102890612" y="1011.45"/>
      <point x="257.00583366187846" y="981.0"/>
      <point x="231.48083366187842" y="981.0" type="qcurve" smooth="yes"/>
      <point x="205.78083366187843" y="981.0"/>
      <point x="179.76741028906122" y="1011.45"/>
    </contour>
  </outline>
</glyph>
<glyph name="ring" format="2">
  <advance width="385"/>
  <unicode hex="02DA"/>
  <outline>
    <contour>
      <point x="142.50264222039746" y="1091.525" type="qcurve"/>
      <point x="150.2125394518751" y="1154.325"/>
      <point x="215.05884596060622" y="1227.65"/>
      <point x="261.9338459606062" y="1227.65" type="qcurve" smooth="yes"/>
      <point x="308.4588459606062" y="1227.65"/>
      <point x="357.36253945187514" y="1154.325"/>
      <point x="349.6526422203975" y="1091.525" type="qcurve" smooth="yes"/>
      <point x="342.2336845070888" y="1030.025"/>
      <point x="277.18284775744223" y="958.575"/>
      <point x="230.6578477574422" y="958.575" type="qcurve" smooth="yes"/>
      <point x="183.7828477574422" y="958.575"/>
      <point x="135.08368450708878" y="1030.025"/>
    </contour>
    <contour>
      <point x="180.9276422203975" y="1091.7" type="qcurve"/>
      <point x="173.94509378434225" y="1046.675"/>
      <point x="200.65566631194912" y="995.375"/>
      <point x="231.53066631194912" y="995.375" type="qcurve" smooth="yes"/>
      <point x="262.4056663119491" y="995.375"/>
      <point x="304.24509378434226" y="1046.5"/>
      <point x="311.2276422203975" y="1091.7" type="qcurve" smooth="yes"/>
      <point x="318.50113017462166" y="1138.375"/>
      <point x="292.0814971651838" y="1191.5"/>
      <point x="261.2064971651838" y="1191.5" type="qcurve" smooth="yes"/>
      <point x="230.33149716518378" y="1191.5"/>
      <point x="188.20113017462165" y="1138.375"/>
    </contour>
  </outline>
</glyph>
<glyph name="ogonek" format="2">
  <advance width="350"/>
  <unicode hex="02DB"/>
  <outline>
    <contour>
      <point x="55.93514337166695" y="28.0" type="qcurve"/>
      <point x="95.43783666119043" y="-4.0" type="line"/>
      <point x="64.23782577720195" y="-41.0"/>
      <point x="28.648620703272826" y="-95.0"/>
      <point x="25.978344843927374" y="-114.0" type="qcurve" smooth="yes"/>
      <point x="23.167528149879544" y="-134.0"/>
      <point x="36.37292561291497" y="-161.0"/>
      <point x="63.37292561291497" y="-161.0" type="qcurve" smooth="yes"/>
      <point x="88.37292561291497" y="-161.0"/>
      <point x="129.62157896815324" y="-145.0"/>
      <point x="144.16752814987956" y="-134.0" type="qcurve"/>
      <point x="151.03237389422412" y="-199.0" type="line"/>
      <point x="134.92426137368824" y="-214.0"/>
      <point x="72.28641382850932" y="-247.0"/>
      <point x="35.286413828509325" y="-247.0" type="qcurve" smooth="yes"/>
      <point x="-10.713586171490675" y="-247.0"/>
      <point x="-60.84329942815676" y="-191.0"/>
      <point x="-53.39463518893002" y="-138.0" type="qcurve" smooth="yes"/>
      <point x="-48.616246809048704" y="-104.0"/>
      <point x="-3.3729800328573987" y="-24.0"/>
    </contour>
  </outline>
</glyph>
<glyph name="tilde" format="2">
  <advance width="500"/>
  <unicode hex="02DC"/>
  <outline>
    <contour>
      <point x="148.9732847845349" y="1060.0" type="line"/>
      <point x="169.18950982560665" y="1090.0"/>
      <point x="227.37330655251185" y="1134.0"/>
      <point x="247.37330655251185" y="1134.0" type="qcurve" smooth="yes"/>
      <point x="269.37330655251185" y="1134.0"/>
      <point x="303.8435715278688" y="1116.0"/>
      <point x="316.29762234614253" y="1105.0" type="qcurve" smooth="yes"/>
      <point x="327.7516731644162" y="1094.0"/>
      <point x="350.9246423132851" y="1081.0"/>
      <point x="365.9246423132851" y="1081.0" type="qcurve" smooth="yes"/>
      <point x="381.9246423132851" y="1081.0"/>
      <point x="410.17329566852345" y="1097.0"/>
      <point x="425.8435715278688" y="1116.0" type="qcurve"/>
      <point x="454.5354481233445" y="1064.0" type="line"/>
      <point x="430.7570597434632" y="1030.0"/>
      <point x="380.83813052887945" y="995.0"/>
      <point x="355.83813052887945" y="995.0" type="qcurve" smooth="yes"/>
      <point x="333.83813052887945" y="995.0"/>
      <point x="296.94624304941533" y="1010.0"/>
      <point x="283.49219223114164" y="1021.0" type="qcurve" smooth="yes"/>
      <point x="270.89760057816557" y="1031.0"/>
      <point x="247.28679476810623" y="1048.0"/>
      <point x="236.28679476810623" y="1048.0" type="qcurve" smooth="yes"/>
      <point x="218.28679476810623" y="1048.0"/>
      <point x="193.1948964046536" y="1026.0"/>
      <point x="180.94624304941533" y="1010.0" type="qcurve"/>
    </contour>
  </outline>
</glyph>
<glyph name="hungarumlaut" format="2">
  <advance width="385"/>
  <unicode hex="02DD"/>
  <outline>
    <contour>
      <point x="166.75566631194908" y="994.15" type="line"/>
      <point x="288.5361947560285" y="1233.35" type="line"/>
      <point x="341.1747854787751" y="1196.575" type="line"/>
      <point x="211.88972679378014" y="965.2" type="line"/>
    </contour>
    <contour>
      <point x="185.4806663119491" y="994.15" type="line"/>
      <point x="307.43619475602856" y="1233.35" type="line"/>
      <point x="360.0747854787752" y="1196.575" type="line"/>
      <point x="230.61472679378016" y="965.2" type="line"/>
    </contour>
  </outline>
</glyph>
<glyph name="hookabovecomb" format="2">
  <advance width="500"/>
  <unicode hex="0309"/>
  <outline>
    <contour>
      <point x="179.638119644891" y="958.0" type="line"/>
      <point x="180.90298715721252" y="967.0" type="line" smooth="yes"/>
      <point x="185.25975303298662" y="998.0"/>
      <point x="215.17868224757035" y="1033.0"/>
      <point x="263.0219272557847" y="1039.0" type="qcurve" smooth="yes"/>
      <point x="285.4435497598919" y="1042.0"/>
      <point x="302.69220311513016" y="1058.0"/>
      <point x="304.94085647036843" y="1074.0" type="qcurve" smooth="yes"/>
      <point x="307.18950982560665" y="1090.0"/>
      <point x="287.8597856849521" y="1109.0"/>
      <point x="266.8597856849521" y="1109.0" type="qcurve" smooth="yes"/>
      <point x="235.8597856849521" y="1109.0"/>
      <point x="176.8922139991186" y="1095.0"/>
      <point x="160.62734648679708" y="1086.0" type="qcurve"/>
      <point x="139.48141907304776" y="1149.0" type="line"/>
      <point x="158.16790908947644" y="1161.0"/>
      <point x="245.40034828763146" y="1184.0"/>
      <point x="283.40034828763146" y="1184.0" type="qcurve" smooth="yes"/>
      <point x="332.40034828763146" y="1184.0"/>
      <point x="391.37330655251185" y="1134.0"/>
      <point x="384.4868056520947" y="1085.0" type="qcurve" smooth="yes"/>
      <point x="377.17868224757035" y="1033.0"/>
      <point x="302.46515049602203" y="971.0"/>
      <point x="248.46515049602203" y="971.0" type="qcurve"/>
      <point x="246.638119644891" y="958.0" type="line"/>
    </contour>
  </outline>
</glyph>
<glyph name="breveinvertedcomb" format="2">
  <advance width="385"/>
  <unicode hex="030F"/>
  <outline>
    <contour>
      <point x="147.0328477574422" y="964.0" type="qcurve"/>
      <point x="107.92831751652668" y="976.9" type="line"/>
      <point x="137.71405149765093" y="1087.7"/>
      <point x="211.77461812884582" y="1204.475"/>
      <point x="257.4996181288458" y="1204.475" type="qcurve" smooth="yes"/>
      <point x="300.12461812884584" y="1204.475"/>
      <point x="347.01405149765094" y="1090.675"/>
      <point x="347.4283175165267" y="976.55" type="qcurve"/>
      <point x="306.2828477574422" y="964.0" type="line"/>
      <point x="309.932172461313" y="1056.75"/>
      <point x="285.176799574339" y="1145.45"/>
      <point x="256.101799574339" y="1145.45" type="qcurve" smooth="yes"/>
      <point x="225.67679957433896" y="1145.45"/>
      <point x="173.10717246131298" y="1057.1"/>
    </contour>
  </outline>
</glyph>
<glyph name="horncomb" format="2">
  <advance width="500"/>
  <unicode hex="031B"/>
  <outline>
    <contour>
      <point x="126.45432291798576" y="914.0" type="line"/>
      <point x="162.4543229179858" y="914.0" type="line" smooth="yes"/>
      <point x="197.4543229179858" y="914.0"/>
      <point x="240.1245987773312" y="933.0"/>
      <point x="245.60569133072443" y="972.0" type="qcurve" smooth="yes"/>
      <point x="248.69758969417705" y="994.0"/>
      <point x="244.31922308227274" y="1034.0"/>
      <point x="234.11382561923733" y="1061.0" type="qcurve"/>
      <point x="303.11382561923733" y="1061.0" type="line"/>
      <point x="315.17868224757035" y="1033.0"/>
      <point x="327.58947717364117" y="979.0"/>
      <point x="322.8110887937599" y="945.0" type="qcurve" smooth="yes"/>
      <point x="316.4867512321523" y="900.0"/>
      <point x="258.47592365411595" y="843.0"/>
      <point x="192.47592365411595" y="843.0" type="qcurve"/>
      <point x="166.47592365411595" y="843.0"/>
      <point x="133.45970949703272" y="850.0"/>
      <point x="118.02187283584226" y="854.0" type="qcurve"/>
    </contour>
  </outline>
</glyph>
<glyph name="dotbelowcomb" format="2">
  <advance width="500"/>
  <unicode hex="0323"/>
  <outline>
    <contour>
      <point x="44.75129222481934" y="-201.0" type="qcurve" smooth="yes"/>
      <point x="49.95130310880779" y="-164.0"/>
      <point x="93.57293649690345" y="-124.0"/>
      <point x="130.57293649690345" y="-124.0" type="qcurve" smooth="yes"/>
      <point x="164.57293649690348" y="-124.0"/>
      <point x="199.52968060470062" y="-167.0"/>
      <point x="194.75129222481934" y="-201.0" type="qcurve" smooth="yes"/>
      <point x="189.55128134083083" y="-238.0"/>
      <point x="145.9296479527352" y="-278.0"/>
      <point x="108.9296479527352" y="-278.0" type="qcurve" smooth="yes"/>
      <point x="74.9296479527352" y="-278.0"/>
      <point x="39.972903844938" y="-235.0"/>
    </contour>
  </outline>
</glyph>
<glyph name="dieresisbelowcomb" format="2">
  <advance width="385"/>
  <unicode hex="0324"/>
  <outline>
    <contour>
      <point x="-42.51358482633458" y="-177.85" type="qcurve" smooth="yes"/>
      <point x="-41.49529651274321" y="-162.45"/>
      <point x="-21.97012916281389" y="-143.05"/>
      <point x="-4.745129162813896" y="-143.05" type="qcurve" smooth="yes"/>
      <point x="11.954870837186093" y="-143.05"/>
      <point x="29.62970348725679" y="-163.15"/>
      <point x="28.61141517366542" y="-177.85" type="qcurve" smooth="yes"/>
      <point x="27.59312686007405" y="-193.07500000000002"/>
      <point x="7.417959510144726" y="-212.47500000000002"/>
      <point x="-9.982040489855251" y="-212.47500000000002" type="qcurve" smooth="yes"/>
      <point x="-26.682040489855268" y="-212.47500000000002"/>
      <point x="-43.53187313992598" y="-192.55"/>
    </contour>
    <contour>
      <point x="98.06594541458094" y="-178.675" type="qcurve" smooth="yes"/>
      <point x="99.22970348725676" y="-162.45"/>
      <point x="118.7548708371861" y="-143.05"/>
      <point x="136.80487083718617" y="-143.05" type="qcurve" smooth="yes"/>
      <point x="153.5048708371861" y="-143.05"/>
      <point x="170.35470348725676" y="-163.15"/>
      <point x="169.19094541458094" y="-178.675" type="qcurve" smooth="yes"/>
      <point x="168.17265710098957" y="-193.9"/>
      <point x="148.96795951014474" y="-212.47500000000002"/>
      <point x="131.56795951014476" y="-212.47500000000002" type="qcurve" smooth="yes"/>
      <point x="114.04295951014478" y="-212.47500000000002"/>
      <point x="97.04765710098957" y="-193.375"/>
    </contour>
  </outline>
</glyph>
<glyph name="commaaccentcomb" format="2">
  <advance width="385"/>
  <unicode hex="0326"/>
  <outline>
    <contour>
      <point x="-37.05417785182101" y="-442.2" type="line"/>
      <point x="-2.0003229070347857" y="-338.2"/>
      <point x="13.661588420006694" y="-284.0"/>
      <point x="52.80671758282057" y="-156.0" type="qcurve"/>
      <point x="142.25218734190503" y="-154.825" type="line"/>
      <point x="45.12988263001" y="-444.375" type="line"/>
    </contour>
  </outline>
</glyph>
<glyph name="brevebelowcomb" format="2">
  <advance width="385"/>
  <unicode hex="032E"/>
  <outline>
    <contour>
      <point x="222.84581035535518" y="-126.175" type="qcurve"/>
      <point x="244.45940107810168" y="-140.9" type="line"/>
      <point x="220.99497360570842" y="-201.125"/>
      <point x="117.35504408352745" y="-300.475"/>
      <point x="48.43004408352738" y="-300.475" type="qcurve" smooth="yes"/>
      <point x="-13.569955916472622" y="-300.475"/>
      <point x="-95.08237518971396" y="-207.7"/>
      <point x="-107.42012916281391" y="-139.9" type="qcurve"/>
      <point x="-83.85418964464492" y="-126.175" type="line"/>
      <point x="-71.95502639429156" y="-182.575"/>
      <point x="-4.301667602881253" y="-265.125"/>
      <point x="49.44833239711875" y="-265.125" type="qcurve" smooth="yes"/>
      <point x="108.54833239711877" y="-265.125"/>
      <point x="198.24497360570842" y="-183.45"/>
    </contour>
  </outline>
</glyph>
<glyph name="macronbelowcomb" format="2">
  <advance width="385"/>
  <unicode hex="0331"/>
  <outline>
    <contour>
      <point x="-67.68825012647596" y="-147.625" type="line"/>
      <point x="-66.81543157196904" y="-115.375" type="line"/>
      <point x="206.73456842803103" y="-115.375" type="line"/>
      <point x="205.8617498735241" y="-147.625" type="line"/>
    </contour>
  </outline>
</glyph>
<glyph name="Germandbls" format="2">
  <advance width="497"/>
  <unicode hex="1E9E"/>
  <outline>
    <contour>
      <point x="93.47059149501143" y="1092.0" type="line" smooth="yes"/>
      <point x="129.02742267471646" y="1345.0"/>
      <point x="239.58964043346845" y="1534.0"/>
      <point x="342.58964043346845" y="1534.0" type="qcurve"/>
      <point x="429.5896404334685" y="1534.0"/>
      <point x="484.7409544262648" y="1407.0"/>
      <point x="471.67065679894233" y="1314.0" type="qcurve" smooth="yes"/>
      <point x="462.67604337798934" y="1250.0"/>
      <point x="414.2976223461426" y="1105.0"/>
      <point x="380.45976391697513" y="1035.0" type="qcurve" smooth="yes"/>
      <point x="358.41650802477227" y="992.0"/>
      <point x="321.7678329015571" y="902.0"/>
      <point x="315.8651178440566" y="860.0" type="qcurve"/>
      <point x="309.6813211171514" y="816.0"/>
      <point x="338.31372766334096" y="728.0"/>
      <point x="362.5515534405429" y="687.0" type="qcurve" smooth="yes"/>
      <point x="402.1353175154827" y="620.0"/>
      <point x="419.4001306078618" y="444.0"/>
      <point x="401.5514446006581" y="317.0" type="qcurve" smooth="yes"/>
      <point x="375.2703085113109" y="130.0"/>
      <point x="299.5945916529761" y="-10.0"/>
      <point x="225.59459165297608" y="-10.0" type="qcurve" smooth="yes"/>
      <point x="163.59459165297608" y="-10.0"/>
      <point x="114.68110343738175" y="76.0"/>
      <point x="122.04869689119221" y="164.0" type="qcurve" smooth="yes"/>
      <point x="145.37847545178917" y="330.0" type="line"/>
      <point x="235.3784754517892" y="330.0" type="line"/>
      <point x="214.43789108113288" y="181.0" type="line" smooth="yes"/>
      <point x="205.0216551560726" y="114.0"/>
      <point x="223.3838076108937" y="81.0"/>
      <point x="238.3838076108937" y="81.0" type="qcurve" smooth="yes"/>
      <point x="260.3838076108937" y="81.0"/>
      <point x="290.0162685770257" y="178.0"/>
      <point x="308.1460362536342" y="307.0" type="qcurve" smooth="yes"/>
      <point x="324.1676914097068" y="421.0"/>
      <point x="314.26503077214875" y="564.0"/>
      <point x="286.7299091684588" y="610.0" type="qcurve" smooth="yes"/>
      <point x="249.86506342411423" y="675.0"/>
      <point x="213.88671858018682" y="789.0"/>
      <point x="223.8651178440566" y="860.0" type="qcurve"/>
      <point x="230.18945540566426" y="905.0"/>
      <point x="273.24353887590337" y="1005.0"/>
      <point x="296.9894989416182" y="1053.0" type="qcurve" smooth="yes"/>
      <point x="328.70303069316645" y="1115.0"/>
      <point x="375.5355025432869" y="1249.0"/>
      <point x="383.4057892866208" y="1305.0" type="qcurve" smooth="yes"/>
      <point x="391.41661686465716" y="1362.0"/>
      <point x="368.09772030203885" y="1438.0"/>
      <point x="329.09772030203885" y="1438.0" type="qcurve"/>
      <point x="278.09772030203885" y="1438.0"/>
      <point x="212.29767676608492" y="1290.0"/>
      <point x="184.47059149501143" y="1092.0" type="qcurve" smooth="yes" name="hr00"/>
      <point x="66.83791284910981" y="255.0" type="line" smooth="yes"/>
      <point x="44.91354263553674" y="99.0"/>
      <point x="-22.389194189940653" y="-17.0"/>
      <point x="-90.38919418994065" y="-17.0" type="qcurve" smooth="yes"/>
      <point x="-100.38919418994065" y="-17.0"/>
      <point x="-120.96757168583348" y="-14.0"/>
      <point x="-132.6864900164287" y="-12.0" type="qcurve"/>
      <point x="-121.4756515544039" y="82.0" type="line"/>
      <point x="-113.89727405851107" y="79.0"/>
      <point x="-101.31889656261825" y="76.0"/>
      <point x="-95.31889656261825" y="76.0" type="qcurve" smooth="yes"/>
      <point x="-69.31889656261825" y="76.0"/>
      <point x="-39.34049729874846" y="147.0"/>
      <point x="-24.162087150890187" y="255.0" type="qcurve" smooth="yes"/>
    </contour>
  </outline>
</glyph>
<glyph name="endash" format="2">
  <advance width="639"/>
  <unicode hex="2013"/>
  <outline>
    <contour>
      <point x="-18.94784214015467" y="569.0" type="line"/>
      <point x="-18.31814454930984" y="619.95" type="line"/>
      <point x="619.9318554506901" y="619.95" type="line"/>
      <point x="619.3021578598454" y="569.0" type="line"/>
    </contour>
  </outline>
</glyph>
<glyph name="emdash" format="2">
  <advance width="1062"/>
  <unicode hex="2014"/>
  <outline>
    <contour>
      <point x="93.55215785984535" y="569.0" type="line"/>
      <point x="94.1818554506902" y="619.95" type="line"/>
      <point x="903.1318554506902" y="619.95" type="line"/>
      <point x="902.5021578598453" y="569.0" type="line"/>
    </contour>
  </outline>
</glyph>
<glyph name="horizontalbar" format="2">
  <advance width="313"/>
  <unicode hex="2015"/>
  <outline>
    <contour>
      <point x="16.861212445264417" y="717.575" type="line"/>
      <point x="17.734030999771328" y="751.575" type="line"/>
      <point x="229.20903099977136" y="751.575" type="line"/>
      <point x="228.33621244526444" y="717.575" type="line"/>
    </contour>
  </outline>
</glyph>
<glyph name="quoteleft" format="2">
  <advance width="210"/>
  <unicode hex="2018"/>
  <outline>
    <contour>
      <point x="109.0024689740562" y="1147.8" type="line"/>
      <point x="111.8620315056752" y="1204.525" type="line" smooth="yes"/>
      <point x="121.31353765503903" y="1314.375"/>
      <point x="187.8514530816564" y="1442.45"/>
      <point x="262.3818200722185" y="1508.0" type="qcurve"/>
      <point x="306.0999410358806" y="1475.125" type="line"/>
      <point x="259.50598332257186" y="1424.3"/>
      <point x="213.6180678959546" y="1317.05"/>
      <point x="204.74844078292864" y="1221.525" type="qcurve" smooth="yes"/>
      <point x="201.59793873314072" y="1148.625" type="line"/>
    </contour>
  </outline>
</glyph>
<glyph name="quoteright" format="2">
  <advance width="263"/>
  <unicode hex="2019"/>
  <outline>
    <contour>
      <point x="303.6274553266819" y="1456.0" type="line"/>
      <point x="292.3841885504906" y="1376.0" type="line" smooth="yes"/>
      <point x="283.8111976336447" y="1315.0"/>
      <point x="210.6976441141195" y="1179.0"/>
      <point x="156.37330655251185" y="1134.0" type="qcurve"/>
      <point x="101.25980745292907" y="1183.0" type="line"/>
      <point x="135.30306334513187" y="1226.0"/>
      <point x="177.51390180715669" y="1320.0"/>
      <point x="185.1031068810858" y="1374.0" type="qcurve" smooth="yes"/>
      <point x="196.6274553266819" y="1456.0" type="line"/>
    </contour>
  </outline>
</glyph>
<glyph name="quotesinglbase" format="2">
  <advance width="215"/>
  <unicode hex="201A"/>
  <outline>
    <contour>
      <point x="102.7533469985865" y="220.0" type="line"/>
      <point x="99.89378446696736" y="164.675" type="line" smooth="yes"/>
      <point x="90.44227831760355" y="56.04999999999998"/>
      <point x="25.129362890986215" y="-70.10000000000002"/>
      <point x="-48.00100409957594" y="-134.77500000000003" type="qcurve"/>
      <point x="-89.96912506323798" y="-103.125" type="line"/>
      <point x="-43.550167349929325" y="-52.82500000000002"/>
      <point x="1.987748076688014" y="53.54999999999998"/>
      <point x="10.857375189713963" y="148.375" type="qcurve" smooth="yes"/>
      <point x="14.007877239501902" y="219.175" type="line"/>
    </contour>
  </outline>
</glyph>
<glyph name="quotedblleft" format="2">
  <advance width="401"/>
  <unicode hex="201C"/>
  <outline>
    <contour>
      <point x="109.0024689740562" y="1153.225" type="line"/>
      <point x="111.8620315056752" y="1208.55" type="line" smooth="yes"/>
      <point x="121.31353765503903" y="1317.175"/>
      <point x="186.6264530816564" y="1443.325"/>
      <point x="259.7568200722185" y="1508.0" type="qcurve"/>
      <point x="301.7249410358806" y="1476.35" type="line"/>
      <point x="255.30598332257188" y="1426.05"/>
      <point x="209.76806789595457" y="1319.675"/>
      <point x="200.89844078292867" y="1224.85" type="qcurve" smooth="yes"/>
      <point x="197.7479387331407" y="1154.05" type="line"/>
    </contour>
    <contour>
      <point x="295.1524689740562" y="1153.225" type="line"/>
      <point x="298.0120315056752" y="1208.55" type="line" smooth="yes"/>
      <point x="307.46353765503903" y="1317.175"/>
      <point x="372.77645308165637" y="1443.325"/>
      <point x="445.9068200722185" y="1508.0" type="qcurve"/>
      <point x="487.8749410358806" y="1476.35" type="line"/>
      <point x="441.4559833225719" y="1426.05"/>
      <point x="395.91806789595455" y="1319.675"/>
      <point x="387.04844078292865" y="1224.85" type="qcurve" smooth="yes"/>
      <point x="383.8979387331408" y="1154.05" type="line"/>
    </contour>
  </outline>
</glyph>
<glyph name="quotedblright" format="2">
  <advance width="401"/>
  <unicode hex="201D"/>
  <outline>
    <contour>
      <point x="282.6994389860926" y="1457.175" type="line"/>
      <point x="279.83987645447365" y="1401.85" type="line" smooth="yes"/>
      <point x="270.38837030510973" y="1293.225"/>
      <point x="205.07545487849242" y="1167.075"/>
      <point x="131.9450878879303" y="1102.4" type="qcurve"/>
      <point x="89.97696692426823" y="1134.05" type="line"/>
      <point x="136.39592463757688" y="1184.35"/>
      <point x="181.93384006419421" y="1290.725"/>
      <point x="190.8034671772202" y="1385.55" type="qcurve" smooth="yes"/>
      <point x="193.95396922700814" y="1456.35" type="line"/>
    </contour>
    <contour>
      <point x="468.84943898609254" y="1457.175" type="line"/>
      <point x="465.9898764544737" y="1401.85" type="line" smooth="yes"/>
      <point x="456.53837030510977" y="1293.225"/>
      <point x="391.2254548784924" y="1167.075"/>
      <point x="318.09508788793033" y="1102.4" type="qcurve"/>
      <point x="276.12696692426823" y="1134.05" type="line"/>
      <point x="322.5459246375769" y="1184.35"/>
      <point x="368.08384006419425" y="1290.725"/>
      <point x="376.9534671772202" y="1385.55" type="qcurve" smooth="yes"/>
      <point x="380.1039692270082" y="1456.35" type="line"/>
    </contour>
  </outline>
</glyph>
<glyph name="quotedblbase" format="2">
  <advance width="401"/>
  <unicode hex="201E"/>
  <outline>
    <contour>
      <point x="102.7533469985865" y="220.0" type="line"/>
      <point x="99.89378446696736" y="164.675" type="line" smooth="yes"/>
      <point x="90.44227831760355" y="56.04999999999998"/>
      <point x="25.129362890986215" y="-70.10000000000002"/>
      <point x="-48.00100409957594" y="-134.77500000000003" type="qcurve"/>
      <point x="-89.96912506323798" y="-103.125" type="line"/>
      <point x="-43.550167349929325" y="-52.82500000000002"/>
      <point x="1.987748076688014" y="53.54999999999998"/>
      <point x="10.857375189713963" y="148.375" type="qcurve" smooth="yes"/>
      <point x="14.007877239501902" y="219.175" type="line"/>
    </contour>
    <contour>
      <point x="288.90334699858647" y="220.0" type="line"/>
      <point x="286.0437844669674" y="164.675" type="line" smooth="yes"/>
      <point x="276.5922783176036" y="56.04999999999998"/>
      <point x="211.27936289098625" y="-70.10000000000002"/>
      <point x="138.1489959004241" y="-134.77500000000003" type="qcurve"/>
      <point x="96.18087493676205" y="-103.125" type="line"/>
      <point x="142.5998326500707" y="-52.82500000000002"/>
      <point x="188.13774807668807" y="53.54999999999998"/>
      <point x="197.00737518971397" y="148.375" type="qcurve" smooth="yes"/>
      <point x="200.15787723950194" y="219.175" type="line"/>
    </contour>
  </outline>
</glyph>
<glyph name="dagger" format="2">
  <advance width="1044"/>
  <unicode hex="2020"/>
  <outline>
    <contour>
      <point x="271.04128601085154" y="-274.0" type="qcurve"/>
      <point x="308.0637580726759" y="8.0" type="line"/>
      <point x="436.7113797951937" y="748.0" type="line"/>
      <point x="451.84023473998" y="845.0" type="line"/>
      <point x="90.34023473998002" y="845.0" type="line"/>
      <point x="115.5065030615957" y="1032.0" type="line"/>
      <point x="473.0065030615957" y="1032.0" type="line"/>
      <point x="530.2683966994013" y="1516.75" type="line"/>
      <point x="735.2683966994013" y="1516.75" type="line"/>
      <point x="652.0065030615957" y="1032.0" type="line"/>
      <point x="1009.5065030615957" y="1032.0" type="line"/>
      <point x="984.3402347399799" y="845.0" type="line"/>
      <point x="622.84023473998" y="845.0" type="line"/>
      <point x="607.7113797951937" y="748.0" type="line"/>
      <point x="521.0637580726759" y="8.0" type="line"/>
      <point x="476.0412860108515" y="-274.0" type="line"/>
      <point x="377.9800499799393" y="-424.625"/>
      <point x="328.93458022085485" y="-425.8"/>
    </contour>
  </outline>
</glyph>
<glyph name="daggerdbl" format="2">
  <advance width="1008"/>
  <unicode hex="2021"/>
  <outline>
    <contour>
      <point x="-22.197149154789614" y="31.525" type="line"/>
      <point x="1.9508308532346632" y="210.3" type="line"/>
      <point x="361.0008308532347" y="210.3" type="line"/>
      <point x="389.00585135111425" y="534.0" type="line"/>
      <point x="450.7016440172335" y="848.525" type="line"/>
      <point x="96.65164401723348" y="848.525" type="line"/>
      <point x="120.94509378434225" y="1028.475" type="line"/>
      <point x="460.9950937843423" y="1028.475" type="line"/>
      <point x="528.6933966994013" y="1508.0" type="line"/>
      <point x="736.8433966994013" y="1508.0" type="line"/>
      <point x="663.1450937843423" y="1028.475" type="line"/>
      <point x="1003.1950937843422" y="1028.475" type="line"/>
      <point x="978.9016440172336" y="848.525" type="line"/>
      <point x="624.8516440172335" y="848.525" type="line"/>
      <point x="593.1558513511143" y="534.0" type="line"/>
      <point x="525.1508308532348" y="210.3" type="line"/>
      <point x="884.2008308532347" y="210.3" type="line"/>
      <point x="860.0528508452104" y="31.525" type="line"/>
      <point x="515.0028508452103" y="31.525" type="line"/>
      <point x="446.72266889381336" y="-452.0" type="line"/>
      <point x="248.57266889381341" y="-452.0" type="line"/>
      <point x="322.85285084521036" y="31.525" type="line"/>
    </contour>
  </outline>
</glyph>
<glyph name="bullet" format="2">
  <advance width="270"/>
  <unicode hex="2022"/>
  <outline>
    <contour>
      <point x="52.638065224948576" y="773.0" type="qcurve" smooth="yes"/>
      <point x="57.83807610893706" y="810.0"/>
      <point x="115.28674034816379" y="863.0"/>
      <point x="154.2867403481638" y="863.0" type="qcurve" smooth="yes"/>
      <point x="193.2867403481638" y="863.0"/>
      <point x="235.83807610893706" y="810.0"/>
      <point x="230.6380652249486" y="773.0" type="qcurve" smooth="yes"/>
      <point x="225.71913601036488" y="738.0"/>
      <point x="168.27047177113815" y="685.0"/>
      <point x="129.27047177113815" y="685.0" type="qcurve" smooth="yes"/>
      <point x="90.27047177113815" y="685.0"/>
      <point x="47.71913601036488" y="738.0"/>
    </contour>
  </outline>
</glyph>
<glyph name="minute" format="2">
  <advance width="661"/>
  <unicode hex="2032"/>
  <outline>
    <contour>
      <point x="134.6328477574422" y="964.0" type="line"/>
      <point x="516.18735441271" y="1559.0" type="line"/>
      <point x="706.5720901906702" y="1444.825" type="line"/>
      <point x="264.8452670306835" y="877.35" type="line"/>
    </contour>
  </outline>
</glyph>
<glyph name="second" format="2">
  <advance width="1061"/>
  <unicode hex="2033"/>
  <outline>
    <contour>
      <point x="134.6328477574422" y="964.0" type="line"/>
      <point x="516.18735441271" y="1559.0" type="line"/>
      <point x="706.5720901906702" y="1444.825" type="line"/>
      <point x="264.8452670306835" y="877.35" type="line"/>
    </contour>
    <contour>
      <point x="534.6328477574422" y="964.0" type="line"/>
      <point x="916.18735441271" y="1559.0" type="line"/>
      <point x="1106.5720901906702" y="1444.825" type="line"/>
      <point x="664.8452670306834" y="877.35" type="line"/>
    </contour>
  </outline>
</glyph>
<glyph name="guilsinglleft" format="2">
  <advance width="660"/>
  <unicode hex="2039"/>
  <guideline x="25.46825293511972" y="901.0" angle="0" identifier="Amp5Ormvx4"/>
  <guideline x="-24.8642837081116" y="555.0" angle="0" identifier="JDX5vz3jKp"/>
  <outline>
    <contour>
      <point x="78.33521424210046" y="523.05" type="line"/>
      <point x="86.91793002808497" y="585.9" type="line"/>
      <point x="441.5758013711749" y="954.95" type="line"/>
      <point x="613.0258013711749" y="954.95" type="line"/>
      <point x="295.20383725555047" y="553.975" type="line"/>
      <point x="497.23187313992594" y="153.0" type="line"/>
      <point x="325.781873139926" y="153.0" type="line"/>
    </contour>
  </outline>
</glyph>
<glyph name="guilsinglright" format="2">
  <advance width="660"/>
  <unicode hex="203A"/>
  <guideline x="25.46825293511972" y="901.0" angle="0" identifier="Amp5Ormvx4"/>
  <guideline x="-24.8642837081116" y="555.0" angle="0" identifier="JDX5vz3jKp"/>
  <outline>
    <contour>
      <point x="-3.6931268600740026" y="153.0" type="line"/>
      <point x="314.1288372555505" y="553.975" type="line"/>
      <point x="112.10080137117494" y="954.95" type="line"/>
      <point x="283.72580137117495" y="954.95" type="line"/>
      <point x="531.142930028085" y="585.9" type="line"/>
      <point x="522.5602142421004" y="523.05" type="line"/>
      <point x="167.93187313992598" y="153.0" type="line"/>
    </contour>
  </outline>
</glyph>
<glyph name="fraction" format="2">
  <advance width="144"/>
  <unicode hex="2044"/>
  <guideline x="50.095545001974415" y="901.0" angle="0" identifier="tcCoNUQTdD"/>
  <guideline x="-48.86412044828435" y="555.0" angle="0" identifier="0lx51aIE0d"/>
  <outline>
    <contour>
      <point x="431.2095158330309" y="1420.9" type="line"/>
      <point x="-250.5442963090311" y="7.574999999999999" type="line"/>
      <point x="-293.925376485905" y="32.5" type="line"/>
      <point x="384.3322251764374" y="1443.475" type="line"/>
    </contour>
  </outline>
</glyph>
<glyph name="commercialMinusSign" format="2">
  <advance width="904"/>
  <unicode hex="2052"/>
  <outline>
    <contour>
      <point x="-44.715939518168966" y="-2.0" type="line"/>
      <point x="758.92510838581" y="1501.0" type="line"/>
      <point x="932.3949087451772" y="1455.025" type="line"/>
      <point x="128.75386084119825" y="-47.975" type="line"/>
    </contour>
    <contour>
      <point x="422.8545243445036" y="157.975" type="qcurve" smooth="yes"/>
      <point x="432.310058684995" y="227.0"/>
      <point x="543.0206253161899" y="329.95"/>
      <point x="618.3956253161899" y="329.95" type="qcurve" smooth="yes"/>
      <point x="693.7706253161899" y="329.95"/>
      <point x="776.260058684995" y="227.0"/>
      <point x="766.8045243445036" y="157.975" type="qcurve" smooth="yes"/>
      <point x="757.4944597630966" y="89.95"/>
      <point x="646.7838931319017" y="-13.0"/>
      <point x="571.4088931319017" y="-13.0" type="qcurve" smooth="yes"/>
      <point x="496.03389313190166" y="-13.0"/>
      <point x="413.54445976309665" y="89.95"/>
    </contour>
    <contour>
      <point x="134.29256584616658" y="1294.025" type="qcurve" smooth="yes"/>
      <point x="143.74810018665804" y="1363.05"/>
      <point x="254.45866681785293" y="1466.0"/>
      <point x="329.83366681785293" y="1466.0" type="qcurve" smooth="yes"/>
      <point x="405.20866681785293" y="1466.0"/>
      <point x="487.69810018665805" y="1363.05"/>
      <point x="478.2425658461666" y="1294.025" type="qcurve" smooth="yes"/>
      <point x="468.9325012647597" y="1226.0"/>
      <point x="358.22193463356473" y="1123.05"/>
      <point x="282.84693463356473" y="1123.05" type="qcurve" smooth="yes"/>
      <point x="207.47193463356473" y="1123.05"/>
      <point x="124.98250126475968" y="1226.0"/>
    </contour>
  </outline>
</glyph>
<glyph name="foursuperior" format="2">
  <advance width="335"/>
  <unicode hex="2074"/>
  <outline>
    <contour>
      <point x="58.85667630793696" y="885.775" type="line"/>
      <point x="58.79543438061284" y="910.225" type="line"/>
      <point x="303.07896922700814" y="1463.0" type="line"/>
      <point x="330.55396922700817" y="1463.0" type="line"/>
      <point x="229.87545487849243" y="1232.875" type="line"/>
      <point x="91.10449486244387" y="913.475" type="line"/>
      <point x="320.0544948624439" y="913.475" type="line"/>
      <point x="319.181676307937" y="885.775" type="line"/>
    </contour>
    <contour>
      <point x="344.27896922700813" y="1463.0" type="line"/>
      <point x="227.17581316399884" y="659.05" type="line"/>
      <point x="194.75081316399886" y="659.05" type="line"/>
      <point x="311.8539692270082" y="1463.0" type="line"/>
    </contour>
  </outline>
</glyph>
<glyph name="coloncurrency" format="2">
  <advance width="1166"/>
  <unicode hex="20A1"/>
  <guideline x="122.78752176263926" y="1570.0" angle="0" identifier="0DwZ2nfhdf"/>
  <outline>
    <contour>
      <point x="1099.8375217626394" y="1570.0" type="line"/>
      <point x="1025.0519610278564" y="1324.0" type="line"/>
      <point x="1006.9561565689131" y="1301.0" type="line"/>
      <point x="655.5919436177448" y="68.0" type="line"/>
      <point x="659.7051996406328" y="43.0" type="line"/>
      <point x="611.2662801144395" y="-125.0" type="line"/>
      <point x="439.66628011443953" y="-125.0" type="line"/>
      <point x="486.66879036337934" y="40.0" type="line"/>
      <point x="506.20100409957587" y="66.0" type="line"/>
      <point x="879.5843421139822" y="1361.0" type="line"/>
      <point x="873.7437372956718" y="1381.0" type="line"/>
      <point x="929.2375217626393" y="1570.0" type="line"/>
    </contour>
    <contour>
      <point x="822.4125217626394" y="1570.0" type="line"/>
      <point x="771.9553139228547" y="1395.0" type="line"/>
      <point x="754.1504489820805" y="1374.0" type="line"/>
      <point x="376.87600409957594" y="66.0" type="line"/>
      <point x="380.69832060429485" y="39.0" type="line"/>
      <point x="333.84128011443954" y="-125.0" type="line"/>
      <point x="162.24128011443958" y="-125.0" type="line"/>
      <point x="233.172310608307" y="122.0" type="line"/>
      <point x="252.70452434450357" y="148.0" type="line"/>
      <point x="607.3413885002494" y="1376.0" type="line"/>
      <point x="601.9371929591925" y="1399.0" type="line"/>
      <point x="651.8125217626393" y="1570.0" type="line"/>
    </contour>
    <contour>
      <point x="68.25249255970398" y="598.525" type="qcurve" smooth="yes"/>
      <point x="102.00147666730416" y="857.475" type="line" smooth="yes"/>
      <point x="147.09710198349404" y="1156.275"/>
      <point x="501.06806199954264" y="1487.75"/>
      <point x="737.5180619995426" y="1487.75" type="qcurve" smooth="yes"/>
      <point x="974.9680619995427" y="1487.75"/>
      <point x="1211.8142129511682" y="1232.825"/>
      <point x="1183.7385494478629" y="1044.55" type="qcurve" smooth="yes"/>
      <point x="1176.4650614936388" y="991.05" type="line"/>
      <point x="982.3900614936388" y="991.05" type="line"/>
      <point x="989.8090192069475" y="1045.725" type="line" smooth="yes"/>
      <point x="1007.2653902970856" y="1155.05"/>
      <point x="877.0657191005322" y="1324.125"/>
      <point x="715.1157191005321" y="1324.125" type="qcurve" smooth="yes"/>
      <point x="557.4907191005321" y="1324.125"/>
      <point x="336.0096886066647" y="1086.05"/>
      <point x="300.9514766673042" y="857.475" type="qcurve" smooth="yes"/>
      <point x="264.2930973780143" y="575.025" type="line" smooth="yes"/>
      <point x="231.85334110217445" y="367.075"/>
      <point x="390.48355253563113" y="119.95"/>
      <point x="548.6335525356312" y="119.95" type="qcurve" smooth="yes"/>
      <point x="711.6335525356312" y="119.95"/>
      <point x="886.5816998935848" y="297.3"/>
      <point x="904.1835407428073" y="406.75" type="qcurve" smooth="yes"/>
      <point x="912.0389077333693" y="464.95" type="line"/>
      <point x="1111.9889077333694" y="464.95" type="line"/>
      <point x="1106.17011736999" y="424.95" type="line" smooth="yes"/>
      <point x="1079.2582119393605" y="243.975"/>
      <point x="765.6609072274655" y="-31.925"/>
      <point x="529.0859072274654" y="-31.925" type="qcurve" smooth="yes"/>
      <point x="290.43590722746546" y="-31.925"/>
      <point x="24.029685798020964" y="305.55"/>
    </contour>
  </outline>
</glyph>
<glyph name="franc" format="2">
  <advance width="1064"/>
  <unicode hex="20A3"/>
  <outline>
    <contour>
      <point x="83.15" y="0.0" type="line"/>
      <point x="294.95396922700814" y="1456.0" type="line"/>
      <point x="1146.5289692270082" y="1456.0" type="line"/>
      <point x="1123.5447472916596" y="1287.675" type="line"/>
      <point x="478.3197472916597" y="1287.675" type="line"/>
      <point x="414.7494625717404" y="866.25" type="line"/>
      <point x="966.7744625717404" y="866.25" type="line"/>
      <point x="943.790240636392" y="697.75" type="line"/>
      <point x="391.765240636392" y="697.75" type="line"/>
      <point x="289.5" y="0.0" type="line"/>
    </contour>
    <contour>
      <point x="-42.54095131099286" y="296.0" type="line"/>
      <point x="-19.556729375644437" y="464.85" type="line"/>
      <point x="720.4432706243556" y="464.85" type="line"/>
      <point x="697.4590486890072" y="296.0" type="line"/>
    </contour>
  </outline>
</glyph>
<glyph name="lira" format="2">
  <advance width="1047"/>
  <unicode hex="20A4"/>
  <outline>
    <contour>
      <point x="949.875" y="0.0" type="line"/>
      <point x="-69.6" y="0.0" type="line"/>
      <point x="-46.32483854648261" y="170.85" type="line"/>
      <point x="11.250161453517379" y="170.85" type="line" smooth="yes"/>
      <point x="105.70016145351737" y="170.85"/>
      <point x="211.85720194337267" y="324.0"/>
      <point x="218.30937749245385" y="467.0" type="qcurve" smooth="yes"/>
      <point x="244.94307968877845" y="1039.0" type="line" smooth="yes"/>
      <point x="254.26186415574585" y="1224.15"/>
      <point x="497.68836440869774" y="1476.0"/>
      <point x="705.1633644086977" y="1476.0" type="qcurve" smooth="yes"/>
      <point x="899.8883644086977" y="1476.0"/>
      <point x="1089.5715940372943" y="1267.725"/>
      <point x="1065.2781442701853" y="1103.0" type="qcurve" smooth="yes"/>
      <point x="1062.9506281248337" y="1087.0" type="line"/>
      <point x="856.6006281248336" y="1087.0" type="line"/>
      <point x="858.9281442701854" y="1103.0" type="line" smooth="yes"/>
      <point x="867.432166564901" y="1215.025"/>
      <point x="773.3496122324339" y="1308.675"/>
      <point x="684.3246122324339" y="1308.675" type="qcurve" smooth="yes"/>
      <point x="583.8996122324338" y="1308.675"/>
      <point x="446.31086005616993" y="1155.0"/>
      <point x="439.89307968877847" y="1039.0" type="qcurve" smooth="yes"/>
      <point x="415.0486376149177" y="499.25" type="line" smooth="yes"/>
      <point x="407.9147503794279" y="369.2"/>
      <point x="333.31224013048814" y="216.625"/>
      <point x="257.1729800080243" y="176.85" type="qcurve"/>
      <point x="974.0229800080243" y="176.85" type="line"/>
    </contour>
    <contour>
      <point x="779.8793452017503" y="428.0" type="line"/>
      <point x="-1.545654798249636" y="428.0" type="line"/>
      <point x="19.547460269000503" y="581.225" type="line"/>
      <point x="800.9724602690005" y="581.225" type="line"/>
    </contour>
    <contour>
      <point x="827.8843656996299" y="763.25" type="line"/>
      <point x="46.459365699629956" y="763.25" type="line"/>
      <point x="67.55248076688008" y="916.475" type="line"/>
      <point x="848.9774807668801" y="916.475" type="line"/>
    </contour>
  </outline>
</glyph>
<glyph name="naira" format="2">
  <advance width="1024"/>
  <unicode hex="20A6"/>
  <outline>
    <contour>
      <point x="-2.950704778188925" y="846.5" type="line"/>
      <point x="16.978652216385306" y="990.85" type="line"/>
      <point x="207.55365221638533" y="990.85" type="line"/>
      <point x="206.09895462554047" y="979.975" type="line"/>
      <point x="877.5239546255405" y="979.975" type="line"/>
      <point x="878.9786522163853" y="990.85" type="line"/>
      <point x="1079.8445917345543" y="992.85" type="line"/>
      <point x="1059.91523473998" y="848.5" type="line"/>
      <point x="859.0492952218111" y="846.5" type="line"/>
      <point x="859.7766440172335" y="852.025" type="line"/>
      <point x="188.35164401723347" y="852.025" type="line"/>
      <point x="187.62429522181108" y="846.5" type="line"/>
    </contour>
    <contour>
      <point x="-48.04633009437886" y="536.15" type="line"/>
      <point x="-28.1169730998046" y="680.5" type="line"/>
      <point x="162.4580269001954" y="680.5" type="line"/>
      <point x="161.730678104773" y="674.975" type="line"/>
      <point x="833.155678104773" y="674.975" type="line"/>
      <point x="833.8830269001953" y="680.5" type="line"/>
      <point x="1034.7489664183645" y="682.5" type="line"/>
      <point x="1014.8196094237901" y="538.15" type="line"/>
      <point x="813.9536699056212" y="536.15" type="line"/>
      <point x="815.408367496466" y="547.025" type="line"/>
      <point x="143.983367496466" y="547.025" type="line"/>
      <point x="142.52866990562114" y="536.15" type="line"/>
    </contour>
    <contour>
      <point x="1034.7789692270082" y="1456.0" type="line"/>
      <point x="822.975" y="0.0" type="line"/>
      <point x="627.975" y="0.0" type="line"/>
      <point x="323.10146487448026" y="1142.0" type="line"/>
      <point x="317.24860813285795" y="1253.0" type="line"/>
      <point x="305.24860813285795" y="1253.0" type="line"/>
      <point x="299.62847897004406" y="1125.0" type="line"/>
      <point x="135.975" y="0.0" type="line"/>
      <point x="-22.599999999999994" y="0.0" type="line"/>
      <point x="189.20396922700814" y="1456.0" type="line"/>
      <point x="389.20396922700814" y="1456.0" type="line"/>
      <point x="681.8780064023158" y="347.0" type="line"/>
      <point x="693.4216353121777" y="227.0" type="line"/>
      <point x="707.8580445894313" y="230.0" type="line"/>
      <point x="715.4598854386537" y="351.0" type="line"/>
      <point x="876.2039692270082" y="1456.0" type="line"/>
    </contour>
  </outline>
</glyph>
<glyph name="peseta" format="2">
  <advance width="1725"/>
  <unicode hex="20A7"/>
  <outline>
    <contour>
      <point x="528.7654138827332" y="558.525" type="qcurve"/>
      <point x="309.4654138827333" y="558.525" type="line"/>
      <point x="331.57681726357475" y="719.8" type="line"/>
      <point x="550.8768172635747" y="719.8" type="line"/>
      <point x="725.9596530844702" y="719.8"/>
      <point x="851.6621777039279" y="899.523880597015"/>
      <point x="867.7289869162439" y="1005.5" type="qcurve"/>
      <point x="884.0129151719698" y="1113.0548507462686"/>
      <point x="811.350401667062" y="1294.9"/>
      <point x="636.2675658461666" y="1294.725" type="qcurve"/>
      <point x="455.6925658461666" y="1294.725" type="line"/>
      <point x="266.0" y="0.0" type="line"/>
      <point x="67.875" y="0.0" type="line"/>
      <point x="279.6789692270081" y="1456.0" type="line"/>
      <point x="658.3789692270082" y="1456.0" type="line"/>
      <point x="912.0446408687991" y="1456.0"/>
      <point x="1094.9361639908516" y="1199.4276119402984"/>
      <point x="1067.144926434413" y="1007.675" type="qcurve"/>
      <point x="1039.2451293562694" y="815.0455223880597"/>
      <point x="782.4310855245243" y="558.525"/>
    </contour>
    <contour>
      <point x="1623.0269728206802" y="1030.2" type="line"/>
      <point x="1602.3702670306834" y="880.5" type="line"/>
      <point x="995.2202670306835" y="880.5" type="line"/>
      <point x="1015.8769728206802" y="1030.2" type="line"/>
    </contour>
    <contour>
      <point x="1249.4818259686303" y="1345.0" type="line"/>
      <point x="1448.1318259686304" y="1345.0" type="line"/>
      <point x="1291.4608954346415" y="270.8" type="line"/>
      <point x="1279.4107885254045" y="192.8929104477612"/>
      <point x="1347.4796248709522" y="149.675"/>
      <point x="1390.4702965127433" y="149.675" type="qcurve" smooth="yes"/>
      <point x="1413.6281323336386" y="149.675"/>
      <point x="1488.3112360309124" y="150.625"/>
      <point x="1557.336570730771" y="174.725" type="qcurve"/>
      <point x="1535.3706371090138" y="14.625" type="line"/>
      <point x="1478.3271814454931" y="-5.3"/>
      <point x="1358.4368734750267" y="-20.0"/>
      <point x="1307.2156048183103" y="-20.0" type="qcurve" smooth="yes"/>
      <point x="1204.585007803385" y="-20.0"/>
      <point x="1069.398948983776" y="108.99514925373136"/>
      <point x="1092.9563651937262" y="271.975" type="qcurve"/>
    </contour>
  </outline>
</glyph>
<glyph name="won" format="2">
  <advance width="1816"/>
  <unicode hex="20A9"/>
  <outline>
    <contour>
      <point x="70.41338799434558" y="876.85" type="line"/>
      <point x="90.3427449889198" y="1020.5" type="line"/>
      <point x="389.19274498891986" y="1020.5" type="line"/>
      <point x="387.73804739807497" y="1009.625" type="line"/>
      <point x="1527.7630473980748" y="1009.625" type="line"/>
      <point x="1529.2177449889198" y="1020.5" type="line"/>
      <point x="1810.758684507089" y="1022.5" type="line"/>
      <point x="1790.8293275125145" y="878.85" type="line"/>
      <point x="1509.2883879943456" y="876.85" type="line"/>
      <point x="1510.015736789768" y="882.375" type="line"/>
      <point x="369.990736789768" y="882.375" type="line"/>
      <point x="369.2633879943456" y="876.85" type="line"/>
    </contour>
    <contour>
      <point x="49.04427472393149" y="516.5" type="line"/>
      <point x="68.97363171850574" y="660.15" type="line"/>
      <point x="427.82363171850574" y="660.15" type="line"/>
      <point x="427.0962829230833" y="654.625" type="line"/>
      <point x="1397.1212829230833" y="654.625" type="line"/>
      <point x="1397.8486317185057" y="660.15" type="line"/>
      <point x="1719.3895712366748" y="662.15" type="line"/>
      <point x="1699.4602142421004" y="519.375" type="line"/>
      <point x="1377.9192747239315" y="517.375" type="line"/>
      <point x="1379.3739723147762" y="527.375" type="line"/>
      <point x="409.34897231477635" y="527.375" type="line"/>
      <point x="407.89427472393146" y="516.5" type="line"/>
    </contour>
    <contour>
      <point x="365.94530240915515" y="-10.0" type="line"/>
      <point x="221.20396922700814" y="1456.0" type="line"/>
      <point x="406.0539692270081" y="1456.0" type="line"/>
      <point x="493.5125689339348" y="398.3" type="line"/>
      <point x="492.89243977112085" y="270.3" type="line"/>
      <point x="498.89243977112085" y="270.3" type="line"/>
      <point x="535.5125689339347" y="398.3" type="line" smooth="yes"/>
      <point x="906.1289692270082" y="1456.0" type="line"/>
      <point x="1122.3289692270082" y="1456.0" type="line"/>
      <point x="1208.7875689339348" y="398.125" type="line"/>
      <point x="1208.167439771121" y="270.125" type="line"/>
      <point x="1214.167439771121" y="270.125" type="line"/>
      <point x="1250.7875689339348" y="398.125" type="line" smooth="yes"/>
      <point x="1622.5789692270082" y="1456.0" type="line"/>
      <point x="1793.3289692270082" y="1456.0" type="line"/>
      <point x="1262.0703024091551" y="-10.0" type="line"/>
      <point x="1074.795302409155" y="-10.0" type="line"/>
      <point x="990.2667349929319" y="1100.0" type="line"/>
      <point x="987.8868641557458" y="1228.0" type="line"/>
      <point x="981.8868641557458" y="1228.0" type="line"/>
      <point x="942.2667349929319" y="1100.0" type="line" smooth="yes"/>
      <point x="554.7953024091552" y="-10.0" type="line"/>
    </contour>
  </outline>
</glyph>
<glyph name="dong" format="2">
  <advance width="1039"/>
  <unicode hex="20AB"/>
  <outline>
    <contour>
      <point x="-27.949515639447874" y="488.4" type="qcurve" smooth="yes"/>
      <point x="-26.20387853043406" y="496.9" type="line" smooth="yes"/>
      <point x="6.090407986321281" y="722.75"/>
      <point x="269.85600101180773" y="1005.65"/>
      <point x="451.7810010118078" y="1005.65" type="qcurve" smooth="yes"/>
      <point x="563.0060010118078" y="1005.65"/>
      <point x="697.4345271531473" y="938.825"/>
      <point x="737.3677508853317" y="881.65" type="qcurve"/>
      <point x="822.9039692270081" y="1461.075" type="line"/>
      <point x="1010.9789692270082" y="1461.075" type="line"/>
      <point x="799.175" y="0.0" type="line"/>
      <point x="631.375" y="0.0" type="line"/>
      <point x="642.0793569945743" y="137.7" type="line"/>
      <point x="635.2043569945743" y="137.7" type="line"/>
      <point x="585.7488226540828" y="72.35"/>
      <point x="415.9656048183103" y="-20.0"/>
      <point x="326.89060481831035" y="-20.0" type="qcurve" smooth="yes"/>
      <point x="123.51560481831032" y="-20.0"/>
      <point x="-61.26209046979462" y="254.325"/>
    </contour>
    <contour>
      <point x="176.05048436055213" y="488.4" type="line" smooth="yes"/>
      <point x="151.32062531618993" y="316.65"/>
      <point x="242.45200819915186" y="141.45"/>
      <point x="358.07700819915186" y="141.45" type="qcurve" smooth="yes"/>
      <point x="470.35200819915184" y="141.45"/>
      <point x="615.1286816984451" y="251.975"/>
      <point x="656.4865648343589" y="322.15" type="qcurve"/>
      <point x="710.0194361774488" y="684.55" type="line"/>
      <point x="688.8523193133627" y="754.9"/>
      <point x="573.3445976309662" y="844.375"/>
      <point x="472.8195976309662" y="844.375" type="qcurve" smooth="yes"/>
      <point x="345.6195976309662" y="844.375"/>
      <point x="203.980678104773" y="680.575"/>
      <point x="177.79612146956595" y="496.9" type="qcurve" smooth="yes"/>
    </contour>
    <contour>
      <point x="1090.563041501663" y="1156.0" type="line"/>
      <point x="371.06304150166306" y="1156.0" type="line"/>
      <point x="392.30162632799767" y="1310.925" type="line"/>
      <point x="1111.8016263279978" y="1310.925" type="line"/>
    </contour>
    <contour>
      <point x="833.7050440835274" y="-273.175" type="line"/>
      <point x="-93.79495591647262" y="-273.175" type="line"/>
      <point x="-73.72012916281392" y="-128.0" type="line"/>
      <point x="853.7798708371861" y="-128.0" type="line"/>
    </contour>
  </outline>
</glyph>
